<svg width="90" height="90" viewBox="0 0 90 90" fill="none" xmlns="http://www.w3.org/2000/svg">
<path d="M79.4369 86.7297V3.26724C80.2605 3.18102 80.9027 2.48478 80.9027 1.63823C80.9027 0.733515 80.1692 0 79.2645 0H10.7355C9.83074 0 9.09723 0.733515 9.09723 1.63823C9.09723 2.52512 9.80248 3.24553 10.6824 3.27379V86.7235C9.7777 86.7235 9.04419 87.4571 9.04419 88.3618C9.04419 89.2665 9.7777 90 10.6824 90H79.3173C80.222 90 80.9555 89.2665 80.9555 88.3618C80.9555 87.4972 80.2855 86.7909 79.4369 86.7297ZM13.9591 3.27645H76.1604V86.7235H33.5836V67.0818C33.5836 66.1771 32.8501 65.4436 31.9453 65.4436H18.9163C18.0116 65.4436 17.2781 66.1771 17.2781 67.0818V86.7235H13.9591V3.27645ZM20.5546 78.5019C20.9592 78.4825 21.3493 78.3135 21.6362 78.0266C21.9411 77.7215 22.1154 77.2997 22.1154 76.8696C22.1154 76.4375 21.9411 76.0157 21.6362 75.7106C21.3493 75.4239 20.959 75.2547 20.5546 75.2353V68.7203H30.3071V86.7235H20.5546V78.5019Z" fill="#2C237D"/>
<path d="M38.6006 80.1195H51.7064C52.6111 80.1195 53.3447 79.3859 53.3447 78.4812V67.0818C53.3447 66.1771 52.6111 65.4436 51.7064 65.4436H38.6006C37.6959 65.4436 36.9624 66.1771 36.9624 67.0818V78.4812C36.9624 79.3859 37.6959 80.1195 38.6006 80.1195ZM50.0682 76.843H46.7918V68.7201H50.0682V76.843ZM40.2389 68.7201H43.5153V76.843H40.2389V68.7201Z" fill="#2C237D"/>
<path d="M58.3106 80.1195H71.4164C72.3211 80.1195 73.0546 79.3859 73.0546 78.4812V67.0818C73.0546 66.1771 72.3211 65.4436 71.4164 65.4436H58.3106C57.4059 65.4436 56.6724 66.1771 56.6724 67.0818V78.4812C56.6724 79.3859 57.4059 80.1195 58.3106 80.1195ZM69.7782 76.843H66.5017V68.7201H69.7782V76.843ZM59.9488 68.7201H63.2253V76.843H59.9488V68.7201Z" fill="#2C237D"/>
<path d="M38.6006 60.4608H51.7064C52.6111 60.4608 53.3447 59.7272 53.3447 58.8225V47.4231C53.3447 46.5184 52.6111 45.7849 51.7064 45.7849H38.6006C37.6959 45.7849 36.9624 46.5184 36.9624 47.4231V58.8225C36.9624 59.7272 37.6959 60.4608 38.6006 60.4608ZM50.0682 57.1843H46.7918V49.0614H50.0682V57.1843ZM40.2389 49.0614H43.5153V57.1843H40.2389V49.0614Z" fill="#2C237D"/>
<path d="M18.8778 60.4608H31.9837C32.8884 60.4608 33.6219 59.7272 33.6219 58.8225V47.4231C33.6219 46.5184 32.8884 45.7849 31.9837 45.7849H18.8778C17.9731 45.7849 17.2396 46.5184 17.2396 47.4231V58.8225C17.2396 59.7272 17.9731 60.4608 18.8778 60.4608ZM30.3454 57.1843H27.069V49.0614H30.3454V57.1843ZM20.5161 49.0614H23.7925V57.1843H20.5161V49.0614Z" fill="#2C237D"/>
<path d="M58.3106 60.4608H71.4164C72.3211 60.4608 73.0546 59.7272 73.0546 58.8225V47.4231C73.0546 46.5184 72.3211 45.7849 71.4164 45.7849H58.3106C57.4059 45.7849 56.6724 46.5184 56.6724 47.4231V58.8225C56.6724 59.7272 57.4059 60.4608 58.3106 60.4608ZM69.7782 57.1843H66.5017V49.0614H69.7782V57.1843ZM59.9488 49.0614H63.2253V57.1843H59.9488V49.0614Z" fill="#2C237D"/>
<path d="M38.6006 40.8702H51.7064C52.6111 40.8702 53.3447 40.1367 53.3447 39.232V27.8326C53.3447 26.9279 52.6111 26.1944 51.7064 26.1944H38.6006C37.6959 26.1944 36.9624 26.9279 36.9624 27.8326V39.232C36.9624 40.1369 37.6959 40.8702 38.6006 40.8702ZM50.0682 37.5938H46.7918V29.4708H50.0682V37.5938ZM40.2389 29.4711H43.5153V37.594H40.2389V29.4711Z" fill="#2C237D"/>
<path d="M18.8778 40.8702H31.9837C32.8884 40.8702 33.6219 40.1367 33.6219 39.232V27.8326C33.6219 26.9279 32.8884 26.1944 31.9837 26.1944H18.8778C17.9731 26.1944 17.2396 26.9279 17.2396 27.8326V39.232C17.2396 40.1369 17.9731 40.8702 18.8778 40.8702ZM30.3454 37.5938H27.069V29.4708H30.3454V37.5938ZM20.5161 29.4711H23.7925V37.594H20.5161V29.4711Z" fill="#2C237D"/>
<path d="M58.3106 40.8702H71.4164C72.3211 40.8702 73.0546 40.1367 73.0546 39.232V27.8326C73.0546 26.9279 72.3211 26.1944 71.4164 26.1944H58.3106C57.4059 26.1944 56.6724 26.9279 56.6724 27.8326V39.232C56.6724 40.1369 57.4059 40.8702 58.3106 40.8702ZM69.7782 37.5938H66.5017V29.4708H69.7782V37.5938ZM59.9488 29.4711H63.2253V37.594H59.9488V29.4711Z" fill="#2C237D"/>
<path d="M38.6006 21.2115H51.7064C52.6111 21.2115 53.3447 20.478 53.3447 19.5733V8.17414C53.3447 7.26943 52.6111 6.53591 51.7064 6.53591H38.6006C37.6959 6.53591 36.9624 7.26943 36.9624 8.17414V19.5735C36.9624 20.478 37.6959 21.2115 38.6006 21.2115ZM50.0682 17.9351H46.7918V9.81236H50.0682V17.9351ZM40.2389 9.81236H43.5153V17.9353H40.2389V9.81236Z" fill="#2C237D"/>
<path d="M18.8778 21.2115H31.9837C32.8884 21.2115 33.6219 20.478 33.6219 19.5733V8.17414C33.6219 7.26943 32.8884 6.53591 31.9837 6.53591H18.8778C17.9731 6.53591 17.2396 7.26943 17.2396 8.17414V19.5735C17.2396 20.478 17.9731 21.2115 18.8778 21.2115ZM30.3454 17.9351H27.069V9.81236H30.3454V17.9351ZM20.5161 9.81236H23.7925V17.9353H20.5161V9.81236Z" fill="#2C237D"/>
<path d="M58.3106 21.2115H71.4164C72.3211 21.2115 73.0546 20.478 73.0546 19.5733V8.17414C73.0546 7.26943 72.3211 6.53591 71.4164 6.53591H58.3106C57.4059 6.53591 56.6724 7.26943 56.6724 8.17414V19.5735C56.6724 20.478 57.4059 21.2115 58.3106 21.2115ZM69.7782 17.9351H66.5017V9.81236H69.7782V17.9351ZM59.9488 9.81236H63.2253V17.9353H59.9488V9.81236Z" fill="#2C237D"/>
</svg>
