<svg width="90" height="90" viewBox="0 0 90 90" fill="none" xmlns="http://www.w3.org/2000/svg">
<path d="M15 51.75C14.1716 51.75 13.5 52.4216 13.5 53.25V55.9497C13.522 63.4307 10.5512 70.6091 5.24998 75.8862L3.44969 77.6865C3.06004 78.063 2.9033 78.6211 3.041 79.1455C3.17796 79.6699 3.58811 80.0793 4.11253 80.2163C4.63694 80.354 5.19432 80.1973 5.57078 79.8076L7.37107 78.0073C13.237 72.1692 16.5241 64.2268 16.5 55.9497V53.25C16.5 52.4216 15.8284 51.75 15 51.75Z" fill="#2C237D"/>
<path d="M75 51.75C74.1716 51.75 73.5 52.4216 73.5 53.25V55.9497C73.4773 64.2275 76.7673 72.1699 82.6362 78.0073L84.4365 79.8076C85.0254 80.376 85.9607 80.3679 86.5393 79.7893C87.1179 79.2107 87.126 78.2754 86.5576 77.6865L84.7573 75.8862C79.4531 70.6106 76.4795 63.4314 76.5 55.9497V53.25C76.5 52.4216 75.8284 51.75 75 51.75Z" fill="#2C237D"/>
<path d="M23.5605 79.8105C28.6604 74.7385 31.5198 67.8362 31.5 60.6438V56.25C31.5 55.4216 30.8284 54.75 30 54.75C29.1716 54.75 28.5 55.4216 28.5 56.25V60.6438C28.5176 67.0408 25.9753 73.1785 21.4394 77.6895C21.0498 78.0659 20.893 78.624 21.0307 79.1484C21.1677 79.6728 21.5771 80.0823 22.1015 80.2192C22.626 80.3569 23.1841 80.2002 23.5605 79.8105Z" fill="#2C237D"/>
<path d="M60 54.75C59.1716 54.75 58.5 55.4216 58.5 56.25V60.6438C58.4802 67.8362 61.3396 74.7385 66.4394 79.8105C67.0283 80.3789 67.9636 80.3708 68.5422 79.7922C69.1208 79.2136 69.1289 78.2783 68.5605 77.6894C64.0246 73.1785 61.4824 67.0408 61.5 60.6438V56.25C61.5 55.4216 60.8283 54.75 60 54.75Z" fill="#2C237D"/>
<path d="M45 78.75V54.75C45 53.9216 44.3284 53.25 43.5 53.25C42.6716 53.25 42 53.9216 42 54.75V78.75C42 79.5784 42.6716 80.25 43.5 80.25C44.3284 80.25 45 79.5784 45 78.75Z" fill="#2C237D"/>
<path d="M85.5 9.75H4.5C2.01489 9.75 0 11.7649 0 14.25V44.25C0 46.7351 2.01489 48.75 4.5 48.75H85.5C87.9851 48.75 90 46.7351 90 44.25V14.25C90 11.7649 87.9851 9.75 85.5 9.75ZM10.5 45.75V42.75H79.5V45.75H10.5ZM79.5 39.75H10.5V36.75H79.5V39.75ZM87 44.25C87 45.0784 86.3284 45.75 85.5 45.75H82.5V33.75H7.5V45.75H4.5C3.67163 45.75 3 45.0784 3 44.25V14.25C3 13.4216 3.67163 12.75 4.5 12.75H85.5C86.3284 12.75 87 13.4216 87 14.25V44.25Z" fill="#2C237D"/>
<path d="M30 20.25H60V23.25H30V20.25Z" fill="#2C237D"/>
<path d="M81 15.75H84V18.75H81V15.75Z" fill="#2C237D"/>
<path d="M75 15.75H78V18.75H75V15.75Z" fill="#2C237D"/>
</svg>
