<svg width="90" height="90" viewBox="0 0 90 90" fill="none" xmlns="http://www.w3.org/2000/svg">
<path d="M89.8195 58.1615V54.6403L84.3126 49.4783H89.2662L77.6886 26.3231H57.9811V20.4488C59.6318 20.0912 60.8755 18.6228 60.8755 16.8654V15.9595C60.8755 14.7052 60.2459 13.5513 59.1894 12.8729L39.1674 0L19.1448 12.8729C18.0898 13.5498 17.4594 14.7038 17.4594 15.9581V16.864C17.4594 18.6214 18.7024 20.0898 20.3538 20.4474V26.3231H12.2232L0.645611 49.4783H5.88182V81.3167H4.43462C2.04052 81.3167 0.0930176 83.265 0.0930176 85.6583V90H89.8195V85.6583C89.8195 83.7744 88.6048 82.1824 86.9251 81.5832V58.1615H89.8195ZM72.4531 81.3167V63.9503H57.9811V81.3167H52.1923V58.1615H78.2419V81.3167H72.4531ZM69.5587 81.3167H60.8755V66.8447H69.5587V81.3167ZM49.2979 81.3167H46.4035V58.1615H49.2979V81.3167ZM63.7699 53.8199C63.7699 53.0228 64.4193 52.3727 65.2171 52.3727C66.0142 52.3727 66.6643 53.0228 66.6643 53.8199C66.6643 54.6177 66.0142 55.2671 65.2171 55.2671C64.4193 55.2671 63.7699 54.6177 63.7699 53.8199ZM69.2923 55.2671C69.4541 54.8128 69.5587 54.3294 69.5587 53.8199C69.5587 51.4265 67.6105 49.4783 65.2171 49.4783C62.823 49.4783 60.8755 51.4265 60.8755 53.8199C60.8755 54.3294 60.9793 54.8128 61.1412 55.2671H52.9067L65.2171 43.51L77.5254 55.2671H69.2923ZM65.2171 39.5069L48.717 55.2671H44.1775L65.2171 35.5434L86.2559 55.2671H81.7164L65.2171 39.5069ZM23.2482 19.8616L39.1674 9.24923L55.0867 19.8616V29.2175H44.9563V17.6399H33.3786V29.2175H23.2482V19.8616ZM23.2482 32.1119H26.1426V35.0063H23.2482V32.1119ZM29.037 32.1119H31.9314V35.0063H29.037V32.1119ZM42.0619 29.2175H36.273V20.5343H42.0619V29.2175ZM34.8258 32.1119H37.7202V35.0063H34.8258V32.1119ZM40.6147 32.1119H43.5091V35.0063H40.6147V32.1119ZM46.4035 32.1119H49.2979V35.0063H46.4035V32.1119ZM52.1923 32.1119H55.0867V35.0063H52.1923V32.1119ZM21.801 37.9007H56.5339C57.0426 37.9007 57.4857 38.1756 57.745 38.5812L55.3827 40.7951H20.3538V39.3479C20.3538 38.5508 21.0032 37.9007 21.801 37.9007ZM75.9001 29.2175L84.5833 46.5839H81.226L65.2171 31.5749L59.872 36.5849C59.3746 35.9864 58.723 35.5271 57.9811 35.2642V29.2175H75.9001ZM20.3538 15.9581C20.3538 15.6938 20.4867 15.4486 20.7093 15.3073L39.1674 3.44134L57.6249 15.3073C57.8475 15.45 57.9811 15.6938 57.9811 15.9581V16.864C57.9811 17.4434 57.2589 17.8293 56.777 17.5085L39.1674 5.76973L21.5572 17.5099C21.0725 17.8307 20.3538 17.4449 20.3538 16.8654V15.9581ZM14.0117 29.2175H20.3538V35.2727C18.6734 35.8719 17.4594 37.464 17.4594 39.3479V43.6895H52.2947L49.2081 46.5839H5.32852L14.0117 29.2175ZM8.77623 49.4783H46.1208L40.6147 54.6403V58.1615H43.5091V81.3167H8.77623V49.4783ZM86.9251 87.1056H2.98742V85.6583C2.98742 84.8613 3.63682 84.2112 4.43462 84.2112H85.4779C86.275 84.2112 86.9251 84.8613 86.9251 85.6583V87.1056ZM84.0307 81.3167H81.1363V58.1615H84.0307V81.3167Z" fill="#EF760D"/>
<path d="M26.1426 52.3727H11.6705V63.9503H26.1426V52.3727ZM14.5649 55.2671H17.4593V61.0559H14.5649V55.2671ZM23.2481 61.0559H20.3537V55.2671H23.2481V61.0559Z" fill="#EF760D"/>
<path d="M26.1426 78.4224H40.6146V66.8447H26.1426V78.4224ZM37.7202 75.5279H34.8258V69.7391H37.7202V75.5279ZM29.037 69.7391H31.9314V75.5279H29.037V69.7391Z" fill="#EF760D"/>
</svg>
