<svg width="90" height="90" viewBox="0 0 90 90" fill="none" xmlns="http://www.w3.org/2000/svg">
<path d="M87.0968 81.5575V5.80645H84.1936V0H52.2581V5.80645H49.3548V40.6452H40.6452V23.2258H37.7419V20.3226H43.2032L21.7742 2.46519L0.345183 20.3226H5.80645V23.2258H2.90323V81.5575C1.21771 82.1586 0 83.7555 0 85.6452V90H90V85.6452C90 83.7555 88.7823 82.1586 87.0968 81.5575ZM55.1613 2.90323H81.2903V5.80645H55.1613V2.90323ZM52.2581 8.70968H84.1936V81.2903H75.4839V69.6774H63.871V66.7742H81.2903V58.0645H63.871V55.1613H81.2903V46.4516H60.9677V43.5484H81.2903V34.8387H55.1613V40.6452H52.2581V8.70968ZM49.3548 81.2903H40.6452V69.6774H49.3548V81.2903ZM37.7419 66.7742V81.2903H29.0323V49.3548H60.9677V81.2903H52.2581V66.7742H37.7419ZM78.3871 37.7419V40.6452H75.4839V37.7419H78.3871ZM72.5807 40.6452H69.6774V37.7419H72.5807V40.6452ZM66.7742 40.6452H63.871V37.7419H66.7742V40.6452ZM60.9677 40.6452H58.0645V37.7419H60.9677V40.6452ZM63.871 49.3548H66.7742V52.2581H63.871V49.3548ZM78.3871 49.3548V52.2581H75.4839V49.3548H78.3871ZM72.5807 52.2581H69.6774V49.3548H72.5807V52.2581ZM63.871 60.9677H66.7742V63.871H63.871V60.9677ZM78.3871 60.9677V63.871H75.4839V60.9677H78.3871ZM72.5807 63.871H69.6774V60.9677H72.5807V63.871ZM58.0645 46.4516H31.9355V43.5484H58.0645V46.4516ZM63.871 72.5807H72.5807V81.2903H63.871V72.5807ZM21.7742 6.24449L35.1839 17.4194H8.36449L21.7742 6.24449ZM8.70968 20.3226H34.8387V23.2258H8.70968V20.3226ZM37.7419 26.129V40.6452H29.0323V46.4516H26.129V81.2903H20.3226V75.4839H8.70968V81.2903H5.80645V26.129H37.7419ZM17.4194 81.2903H11.6129V78.3871H17.4194V81.2903ZM87.0968 87.0968H2.90323V85.6452C2.90323 84.8442 3.5539 84.1936 4.35484 84.1936H85.6452C86.4461 84.1936 87.0968 84.8442 87.0968 85.6452V87.0968Z" fill="#2C237D"/>
<path d="M20.3226 29.0323H8.70972V37.7419H20.3226V29.0323ZM17.4194 34.8387H11.6129V31.9355H17.4194V34.8387Z" fill="#2C237D"/>
<path d="M20.3226 40.6452H8.70972V49.3549H20.3226V40.6452ZM17.4194 46.4516H11.6129V43.5484H17.4194V46.4516Z" fill="#2C237D"/>
<path d="M20.3226 52.2581H8.70972V60.9677H20.3226V52.2581ZM17.4194 58.0645H11.6129V55.1613H17.4194V58.0645Z" fill="#2C237D"/>
<path d="M20.3226 63.871H8.70972V72.5807H20.3226V63.871ZM17.4194 69.6774H11.6129V66.7742H17.4194V69.6774Z" fill="#2C237D"/>
<path d="M34.8387 29.0323H23.2258V37.7419H34.8387V29.0323ZM31.9355 34.8387H26.1291V31.9355H31.9355V34.8387Z" fill="#2C237D"/>
<path d="M81.2903 11.6129H55.1613V20.3226H81.2903V11.6129ZM69.6774 14.5161H72.5806V17.4194H69.6774V14.5161ZM66.7742 17.4194H63.8709V14.5161H66.7742V17.4194ZM58.0645 14.5161H60.9677V17.4194H58.0645V14.5161ZM78.3871 17.4194H75.4838V14.5161H78.3871V17.4194Z" fill="#2C237D"/>
<path d="M81.2903 23.2258H55.1613V31.9355H81.2903V23.2258ZM69.6774 26.129H72.5806V29.0323H69.6774V26.129ZM66.7742 29.0323H63.8709V26.129H66.7742V29.0323ZM58.0645 26.129H60.9677V29.0323H58.0645V26.129ZM78.3871 29.0323H75.4838V26.129H78.3871V29.0323Z" fill="#2C237D"/>
<path d="M58.0645 52.2581H31.9354V60.9677H58.0645V52.2581ZM46.4516 55.1613H49.3548V58.0645H46.4516V55.1613ZM43.5483 58.0645H40.6451V55.1613H43.5483V58.0645ZM34.8387 55.1613H37.7419V58.0645H34.8387V55.1613ZM55.1612 58.0645H52.258V55.1613H55.1612V58.0645Z" fill="#2C237D"/>
</svg>
