<svg width="85" height="85" viewBox="0 0 85 85" fill="none" xmlns="http://www.w3.org/2000/svg">
<path d="M68 30.5081H53.8333V29.0915C53.8333 26.7437 51.9304 24.8415 49.5833 24.8415H45.3333V17.2165C45.5422 16.9827 45.7318 16.7323 45.8999 16.4674L60.669 19.1506L60.9167 19.1748C63.1544 19.1783 65.184 17.8626 66.095 15.8185C67.0053 13.7752 66.6269 11.3859 65.1279 9.72438C63.6296 8.06284 61.2923 7.44028 59.1659 8.13616L46.62 10.4168C47.1138 8.15276 46.1793 5.8154 44.2605 4.51633C42.3416 3.21656 39.8251 3.21656 37.9062 4.51633C35.9873 5.8154 35.0528 8.15276 35.5467 10.4168L23.0008 8.13616C20.8744 7.44028 18.537 8.06284 17.0387 9.72438C15.5398 11.3859 15.1614 13.7752 16.0717 15.8185C16.9827 17.8626 19.0122 19.1783 21.25 19.1748H21.3773L36.2668 16.4674C36.4349 16.7323 36.6244 16.9827 36.8333 17.2165V24.8415H34C31.653 24.8415 29.75 26.7437 29.75 29.0915V30.5081H8.5V19.1748H2.83333V9.25815H0V74.4248H2.83333V63.0915H8.5V50.3415H30.9923C33.6465 53.0593 37.2843 54.5915 41.0833 54.5915C44.8823 54.5915 48.5201 53.0593 51.1743 50.3415H64.9003C66.6117 50.3429 67.9986 51.7298 68 53.4411V67.3415H74.6683L71.9256 73.74C71.2269 75.3856 71.3314 77.263 72.2092 78.8208C73.0033 80.2561 74.4276 81.2328 76.0524 81.457C76.3042 81.4902 76.5588 81.5075 76.8134 81.5081C77.07 81.5075 77.3266 81.4902 77.5812 81.457C79.2061 81.2308 80.6296 80.252 81.423 78.8159C82.3002 77.2588 82.4053 75.3829 81.706 73.7372L78.9653 67.3415H85V47.5081C84.9896 38.1234 77.3847 30.5178 68 30.5081ZM78.9563 77.4221C78.6001 78.0841 77.9519 78.5385 77.2083 78.6478C76.9503 78.6817 76.6888 78.6817 76.4308 78.6478C75.6858 78.5392 75.0363 78.0855 74.678 77.4235C74.2346 76.6363 74.182 75.6865 74.5362 74.8551L76.8244 69.5197L79.1106 74.8565C79.4606 75.6893 79.4039 76.6377 78.9563 77.4221ZM38.25 13.5081C38.25 11.9428 39.5186 10.6748 41.0833 10.6748C42.648 10.6748 43.9167 11.9428 43.9167 13.5081C43.9167 15.0728 42.648 16.3415 41.0833 16.3415C39.5186 16.3415 38.25 15.0728 38.25 13.5081ZM46.75 13.2743L59.7732 10.9038L59.9877 10.8484C60.2851 10.7385 60.5992 10.6797 60.9167 10.6748C62.4814 10.643 63.7756 11.8853 63.8074 13.4507C63.8392 15.0154 62.5962 16.3097 61.0315 16.3415L46.75 13.742V13.2743ZM41.0833 6.42481C42.3838 6.42827 43.5148 7.31646 43.826 8.57956C42.1299 7.59522 40.0367 7.59522 38.3406 8.57956C38.6519 7.31646 39.7829 6.42827 41.0833 6.42481ZM35.4167 13.742L21.1352 16.3415C19.5705 16.3097 18.3274 15.0154 18.3593 13.4507C18.3911 11.8853 19.6853 10.643 21.25 10.6748C21.5675 10.6797 21.8815 10.7385 22.179 10.8484L35.4167 13.2743V13.742ZM39.6667 18.9735C40.5922 19.2419 41.5745 19.2419 42.5 18.9735V24.8415H39.6667V18.9735ZM5.66667 60.2581H2.83333V22.0081H5.66667V60.2581ZM82.1667 64.5081H70.8333V53.4411C70.8292 50.1658 68.1757 47.5116 64.9003 47.5081H49.9292L49.5038 47.9785C47.3643 50.3823 44.2992 51.7575 41.0806 51.7575C37.8619 51.7575 34.7969 50.3823 32.6567 47.9785L32.2319 47.5081H8.5V33.3415H32.5833V29.0915C32.5833 28.3091 33.2177 27.6748 34 27.6748H49.5833C50.3657 27.6748 51 28.3091 51 29.0915V33.3415H68C75.8207 33.3498 82.1584 39.6874 82.1667 47.5081V64.5081Z" fill="#2C237D"/>
<path d="M11.3333 41.8415H29.75V44.6748H11.3333V41.8415Z" fill="#2C237D"/>
<path d="M52.4167 41.8415H63.75V44.6748H52.4167V41.8415Z" fill="#2C237D"/>
</svg>
