<svg width="85" height="85" viewBox="0 0 85 85" fill="none" xmlns="http://www.w3.org/2000/svg">
<path d="M39.9503 15.463L29.8773 14.4503C28.415 14.3036 26.9907 14.9746 26.1724 16.1962C25.3548 17.4178 25.2766 18.9908 25.9697 20.2871C26.6628 21.5841 28.0138 22.3928 29.4837 22.3921C29.6138 22.3921 29.7459 22.3921 29.8773 22.372L39.9475 21.3648C41.3933 21.2251 42.4973 20.0111 42.5 18.5585V18.2894C42.5076 16.8298 41.4022 15.6048 39.9503 15.463ZM29.5972 19.5587C29.1759 19.6002 28.7657 19.4072 28.5305 19.0558C28.2946 18.7044 28.2711 18.252 28.4696 17.8785C28.6682 17.505 29.0562 17.2705 29.4796 17.2691C29.5183 17.267 29.5577 17.267 29.5972 17.2691L39.6667 18.2818V18.5516L29.5972 19.5587ZM39.6667 18.5585L39.8085 19.9682L39.6667 18.5585Z" fill="#2C237D"/>
<path d="M29.4837 36.8333C29.6137 36.8333 29.7458 36.8333 29.8773 36.8133L39.9489 35.8061C41.3967 35.6608 42.4986 34.442 42.4986 32.9873V32.7251C42.5062 31.2649 41.4029 30.0384 39.9503 29.8918L29.8786 28.886C28.4302 28.7657 27.0315 29.4449 26.2298 30.6569C25.428 31.8695 25.3506 33.4224 26.0278 34.7083C26.7057 35.995 28.0303 36.8091 29.4837 36.8333ZM28.7117 32.0009C28.9213 31.81 29.1945 31.7041 29.4781 31.7048C29.5169 31.7028 29.5563 31.7028 29.5957 31.7048L39.6666 32.7251V32.9942L29.5957 34C29.1025 34.0498 28.6328 33.7766 28.4315 33.3235C28.2309 32.8704 28.3437 32.3391 28.7117 32.0064V32.0009Z" fill="#2C237D"/>
<path d="M32.5833 5.66669H52.4166V8.50002H32.5833V5.66669Z" fill="#2C237D"/>
<path d="M60.9167 85V78.5454C62.664 77.5411 63.7438 75.6817 63.75 73.6667V5.66667C63.75 2.53727 61.2127 0 58.0833 0H26.9167C23.7873 0 21.25 2.53727 21.25 5.66667V73.6667C21.2562 75.6817 22.336 77.5411 24.0833 78.5454V85H60.9167ZM58.0833 82.1667H26.9167V79.3333H58.0833V82.1667ZM24.0833 5.66667C24.0833 4.10197 25.352 2.83333 26.9167 2.83333H58.0833C59.648 2.83333 60.9167 4.10197 60.9167 5.66667V24.0833H24.0833V5.66667ZM60.9167 26.9167V73.6667C60.9167 75.2314 59.648 76.5 58.0833 76.5H26.9167C25.352 76.5 24.0833 75.2314 24.0833 73.6667V26.9167H60.9167Z" fill="#2C237D"/>
</svg>
