<svg width="90" height="90" viewBox="0 0 90 90" fill="none" xmlns="http://www.w3.org/2000/svg">
<path d="M18 31.5H21V36H18V31.5Z" fill="#2C237D"/>
<path d="M18 45H21V52.5H18V45Z" fill="#2C237D"/>
<path d="M33 69H52.5V72H33V69Z" fill="#2C237D"/>
<path d="M85.0005 39H63.4995C60.7397 39.0037 58.5037 41.2397 58.5 43.9995V50.5005C58.5029 52.4861 59.6807 54.2812 61.5 55.0752V57H37.5V54H34.5V57H33V49.2422C33.0015 48.8445 33.1597 48.4636 33.4395 48.1816C34.032 47.6125 34.968 47.6125 35.5605 48.1816L36.4395 49.0605L38.5605 46.9395L37.6831 46.0605C35.9019 44.3606 33.0996 44.3606 31.3184 46.0605C30.4717 46.9021 29.9963 48.0476 30 49.2422V57H27V19.5H0V90H90V57H87V55.0752C88.8193 54.2812 89.9971 52.4861 90 50.5005V43.9995C89.9963 41.2397 87.7603 39.0037 85.0005 39ZM61.5 43.9995C61.5015 42.8958 62.3958 42.0015 63.4995 42H78V52.5H63.4995C62.3958 52.4985 61.5015 51.6042 61.5 50.5005V43.9995ZM58.5 60V63H27V60H58.5ZM24 22.5V39H3V22.5H24ZM24 87H3V42H24V87ZM33 87V84H52.5V87H33ZM52.5 81H33V78H52.5V81ZM30 75V87H27V66H58.5V87H55.5V75H30ZM69 87V66H79.5V87H69ZM87 87H82.5V63H66V87H61.5V60H87V87ZM64.5 57V55.5H84V57H64.5ZM87 50.5005C86.9985 51.6042 86.1042 52.4985 85.0005 52.5H81V42H85.0005C86.1042 42.0015 86.9985 42.8958 87 43.9995V50.5005Z" fill="#2C237D"/>
<path d="M73.5 45H76.5V49.5H73.5V45Z" fill="#2C237D"/>
<path d="M31.5 27H61.5V24H59.1658C59.7056 23.0918 59.9941 22.0562 60 21C60 17.6865 57.3135 15 54 15C52.6318 15.0051 51.3076 15.4819 50.25 16.3499C48.074 14.5496 44.926 14.5496 42.75 16.3499C40.5117 14.5166 37.281 14.5532 35.0852 16.437C32.8894 18.3215 32.3621 21.509 33.8342 24H31.5V27ZM54 18C55.6567 18 57 19.3433 57 21C57 22.6568 55.6567 24 54 24C52.3433 24 51 22.6568 51 21C51 19.3433 52.3433 18 54 18ZM46.5 18C47.2178 18.0044 47.9099 18.2673 48.4497 18.7412C47.8521 20.1878 47.8521 21.8123 48.4497 23.2588C47.4441 24.1377 45.9785 24.2461 44.8542 23.5239C43.7307 22.8018 43.2195 21.4234 43.6011 20.1431C43.9827 18.8628 45.1641 17.989 46.5 18ZM36 21C35.9927 19.8252 36.6753 18.7559 37.7439 18.2688C38.8125 17.781 40.0679 17.9656 40.9497 18.7412C40.3521 20.1878 40.3521 21.8123 40.9497 23.2588C40.0679 24.0344 38.8125 24.219 37.7439 23.7312C36.6753 23.2442 35.9927 22.1748 36 21Z" fill="#2C237D"/>
<path d="M72 69H76.5V72H72V69Z" fill="#2C237D"/>
<path d="M64.5 3.375V11.625C64.5073 18.4563 70.0437 23.9927 76.875 24H90V0H67.875C66.0117 0.00219728 64.5022 1.51172 64.5 3.375ZM87 21H76.875C71.6997 20.9941 67.5059 16.8003 67.5 11.625V3.375C67.5 3.16772 67.6677 3 67.875 3H87V21Z" fill="#2C237D"/>
<path d="M70.5 6H73.5V13.5H70.5V6Z" fill="#2C237D"/>
</svg>
