<svg width="85" height="85" viewBox="0 0 85 85" fill="none" xmlns="http://www.w3.org/2000/svg">
<g clip-path="url(#clip0)">
<path d="M17 29.75H19.8333V34H17V29.75Z" fill="#2C237D"/>
<path d="M17 42.5H19.8333V49.5833H17V42.5Z" fill="#2C237D"/>
<path d="M31.1667 65.1667H49.5834V68H31.1667V65.1667Z" fill="#2C237D"/>
<path d="M80.2782 36.8334H59.9718C57.3653 36.8368 55.2535 38.9487 55.25 41.5551V47.6949C55.2528 49.5702 56.3651 51.2656 58.0833 52.0155V53.8334H35.4167V51H32.5833V53.8334H31.1667V46.5065C31.168 46.1309 31.3175 45.7712 31.5817 45.5049C32.1413 44.9674 33.0253 44.9674 33.585 45.5049L34.415 46.335L36.4183 44.3317L35.5896 43.5016C33.9073 41.8961 31.2607 41.8961 29.5784 43.5016C28.7788 44.2964 28.3299 45.3783 28.3333 46.5065V53.8334H25.5V18.4167H0V85H85V53.8334H82.1667V52.0155C83.8849 51.2656 84.9972 49.5702 85 47.6949V41.5551C84.9965 38.9487 82.8847 36.8368 80.2782 36.8334ZM58.0833 41.5551C58.0847 40.5127 58.9293 39.6681 59.9718 39.6667H73.6667V49.5834H59.9718C58.9293 49.582 58.0847 48.7374 58.0833 47.6949V41.5551ZM55.25 56.6667V59.5H25.5V56.6667H55.25ZM22.6667 21.25V36.8334H2.83333V21.25H22.6667ZM22.6667 82.1667H2.83333V39.6667H22.6667V82.1667ZM31.1667 82.1667V79.3334H49.5833V82.1667H31.1667ZM49.5833 76.5H31.1667V73.6667H49.5833V76.5ZM28.3333 70.8334V82.1667H25.5V62.3334H55.25V82.1667H52.4167V70.8334H28.3333ZM65.1667 82.1667V62.3334H75.0833V82.1667H65.1667ZM82.1667 82.1667H77.9167V59.5H62.3333V82.1667H58.0833V56.6667H82.1667V82.1667ZM60.9167 53.8334V52.4167H79.3333V53.8334H60.9167ZM82.1667 47.6949C82.1653 48.7374 81.3207 49.582 80.2782 49.5834H76.5V39.6667H80.2782C81.3207 39.6681 82.1653 40.5127 82.1667 41.5551V47.6949Z" fill="#2C237D"/>
<path d="M69.4167 42.5H72.25V46.75H69.4167V42.5Z" fill="#2C237D"/>
<path d="M29.75 25.5H58.0833V22.6667H55.8788C56.3886 21.8089 56.6611 20.8308 56.6667 19.8334C56.6667 16.704 54.1294 14.1667 51 14.1667C49.7078 14.1715 48.4572 14.6219 47.4583 15.4416C45.4032 13.7413 42.4301 13.7413 40.375 15.4416C38.2611 13.7101 35.2098 13.7447 33.136 15.5239C31.0622 17.3037 30.5642 20.3141 31.9545 22.6667H29.75V25.5ZM51 17C52.5647 17 53.8333 18.2687 53.8333 19.8334C53.8333 21.3981 52.5647 22.6667 51 22.6667C49.4353 22.6667 48.1667 21.3981 48.1667 19.8334C48.1667 18.2687 49.4353 17 51 17ZM43.9167 17C44.5946 17.0042 45.2483 17.2525 45.7581 17.7001C45.1936 19.0662 45.1936 20.6005 45.7581 21.9667C44.8083 22.7967 43.4242 22.8991 42.3623 22.2171C41.3012 21.535 40.8184 20.2332 41.1788 19.024C41.5392 17.8149 42.6549 16.9896 43.9167 17ZM34 19.8334C33.9931 18.7238 34.6378 17.7139 35.647 17.2539C36.6562 16.7932 37.8419 16.9675 38.6747 17.7001C38.1103 19.0662 38.1103 20.6005 38.6747 21.9667C37.8419 22.6992 36.6562 22.8735 35.647 22.4128C34.6378 21.9528 33.9931 20.9429 34 19.8334Z" fill="#2C237D"/>
<path d="M68 65.1667H72.25V68H68V65.1667Z" fill="#2C237D"/>
<path d="M60.9167 3.1875V10.9792C60.9236 17.431 66.1524 22.6597 72.6042 22.6667H85V0H64.1042C62.3444 0.0020752 60.9188 1.42773 60.9167 3.1875ZM82.1667 19.8333H72.6042C67.7164 19.8278 63.7556 15.8669 63.75 10.9792V3.1875C63.75 2.99174 63.9084 2.83333 64.1042 2.83333H82.1667V19.8333Z" fill="#2C237D"/>
<path d="M66.5833 5.66669H69.4166V12.75H66.5833V5.66669Z" fill="#2C237D"/>
</g>
<defs>
<clipPath id="clip0">
<rect width="85" height="85" fill="white"/>
</clipPath>
</defs>
</svg>
