<svg width="85" height="85" viewBox="0 0 85 85" fill="none" xmlns="http://www.w3.org/2000/svg">
<path d="M50.0924 26.4739C49.8188 26.1313 49.4044 25.9322 48.9655 25.9322H25.9498C25.5108 25.9315 25.0958 26.1313 24.8222 26.4739C24.5485 26.8164 24.4458 27.2652 24.5436 27.6929L29.1273 47.8624C29.2771 48.518 29.8596 48.983 30.5321 48.983H44.3832C45.0557 48.983 45.6381 48.518 45.788 47.8624L50.3717 27.6929C50.4688 27.2652 50.3661 26.8164 50.0924 26.4739ZM43.233 46.1017H31.6823L27.7549 28.8135H47.1604L43.233 46.1017Z" fill="#2C237D"/>
<path d="M33.1356 31.6949H41.7797V34.5763H33.1356V31.6949Z" fill="#2C237D"/>
<path d="M34.5763 37.4576H40.339V40.339H34.5763V37.4576Z" fill="#2C237D"/>
<path d="M8.64404 77.7966V85H11.5254V77.7966C11.5254 74.6142 14.1057 72.0339 17.2881 72.0339H66.2712C68.658 72.0339 70.5932 70.0987 70.5932 67.7119C70.5932 65.325 68.658 63.3898 66.2712 63.3898H41.7796C38.5972 63.3898 36.0169 60.8096 36.0169 57.6271V54.7458H38.8983V56.1864C38.8983 58.5733 40.8335 60.5085 43.2203 60.5085H66.2712C70.2492 60.5085 73.4745 63.7338 73.4745 67.7119C73.4745 71.6899 70.2492 74.9153 66.2712 74.9153H18.7288C16.342 74.9153 14.4068 76.8505 14.4068 79.2373V85H17.2881V79.2373C17.2881 78.4417 17.9332 77.7966 18.7288 77.7966H66.2712C71.8411 77.7966 76.3559 73.2818 76.3559 67.7119C76.3559 62.1419 71.8411 57.6271 66.2712 57.6271H43.2203C42.4247 57.6271 41.7796 56.9821 41.7796 56.1864V54.7458H46.6778C48.6988 54.7535 50.4525 53.3543 50.8936 51.3818L56.7858 25.4496C57.077 24.1686 56.7696 22.8243 55.9508 21.7973C55.1319 20.7702 53.8896 20.1709 52.5763 20.1695H50.4237V4.32203C50.4237 1.93521 48.4885 0 46.1017 0C43.7148 0 41.7796 1.93521 41.7796 4.32203V20.1695H33.1356V4.32203C33.1356 1.93521 31.2004 0 28.8135 0C26.4267 0 24.4915 1.93521 24.4915 4.32203V20.1695H22.3389C21.0242 20.1695 19.7812 20.7674 18.9609 21.7952C18.14 22.8222 17.8326 24.1672 18.1238 25.4496L24.0188 51.3818C24.4584 53.3557 26.215 54.7563 28.2374 54.7458H33.1356V57.6271C33.1405 62.3994 37.0074 66.2663 41.7796 66.2712H66.2712C67.0668 66.2712 67.7118 66.9163 67.7118 67.7119C67.7118 68.5075 67.0668 69.1525 66.2712 69.1525H17.2881C12.5159 69.1575 8.64897 73.0244 8.64404 77.7966ZM44.661 4.32203C44.661 3.52643 45.3061 2.88136 46.1017 2.88136C46.8973 2.88136 47.5423 3.52643 47.5423 4.32203V10.0847H44.661V4.32203ZM44.661 12.9661H47.5423V20.1695H44.661V12.9661ZM27.3729 4.32203C27.3729 3.52643 28.0179 2.88136 28.8135 2.88136C29.6091 2.88136 30.2542 3.52643 30.2542 4.32203V10.0847H27.3729V4.32203ZM27.3729 12.9661H30.2542V20.1695H27.3729V12.9661ZM26.8284 50.7438L20.9327 24.8116C20.8356 24.3839 20.9383 23.9351 21.212 23.5925C21.4856 23.2499 21.9007 23.0501 22.3389 23.0508H52.5763C53.0145 23.0508 53.4289 23.2506 53.7018 23.5932C53.9755 23.9358 54.0782 24.3839 53.9811 24.8116L48.0882 50.7438C47.9384 51.4015 47.3524 51.8672 46.6778 51.8644H28.2374C27.5635 51.8665 26.9782 51.4008 26.8284 50.7438Z" fill="#2C237D"/>
</svg>
