<svg width="90" height="90" viewBox="0 0 90 90" fill="none" xmlns="http://www.w3.org/2000/svg">
<path d="M53.039 28.0311C52.7493 27.6684 52.3106 27.4576 51.8458 27.4576H27.4762C27.0115 27.4569 26.572 27.6684 26.2823 28.0311C25.9925 28.3939 25.8838 28.8691 25.9873 29.3219L30.8407 50.6779C30.9993 51.372 31.616 51.8644 32.3281 51.8644H46.9939C47.706 51.8644 48.3227 51.372 48.4814 50.6779L53.3347 29.3219C53.4375 28.8691 53.3287 28.3939 53.039 28.0311ZM45.7761 48.8135H33.5459L29.3875 30.5085H49.9345L45.7761 48.8135Z" fill="#2C237D"/>
<path d="M35.0847 33.5593H44.2373V36.6102H35.0847V33.5593Z" fill="#2C237D"/>
<path d="M36.6101 39.661H42.7118V42.7119H36.6101V39.661Z" fill="#2C237D"/>
<path d="M9.15259 82.3729V90H12.2034V82.3729C12.2034 79.0032 14.9355 76.2712 18.3051 76.2712H70.1695C72.6968 76.2712 74.7458 74.2221 74.7458 71.6949C74.7458 69.1677 72.6968 67.1186 70.1695 67.1186H44.2373C40.8677 67.1186 38.1356 64.3866 38.1356 61.017V57.9661H41.1865V59.4915C41.1865 62.0188 43.2355 64.0678 45.7628 64.0678H70.1695C74.3816 64.0678 77.7967 67.4829 77.7967 71.6949C77.7967 75.907 74.3816 79.322 70.1695 79.322H19.8306C17.3033 79.322 15.2543 81.3711 15.2543 83.8983V90H18.3051V83.8983C18.3051 83.0559 18.9881 82.3729 19.8306 82.3729H70.1695C76.0671 82.3729 80.8475 77.5925 80.8475 71.6949C80.8475 65.7973 76.0671 61.017 70.1695 61.017H45.7628C44.9203 61.017 44.2373 60.3339 44.2373 59.4915V57.9661H49.4236C51.5635 57.9743 53.4204 56.4928 53.8874 54.4043L60.1262 26.9467C60.4345 25.5903 60.109 24.1669 59.2421 23.0795C58.3751 21.992 57.0597 21.3574 55.6691 21.3559H53.3899V4.57627C53.3899 2.04904 51.3408 0 48.8136 0C46.2864 0 44.2373 2.04904 44.2373 4.57627V21.3559H35.0848V4.57627C35.0848 2.04904 33.0357 0 30.5085 0C27.9813 0 25.9322 2.04904 25.9322 4.57627V21.3559H23.6531C22.261 21.3559 20.9448 21.989 20.0764 23.0772C19.2071 24.1647 18.8816 25.5888 19.19 26.9467L25.4317 54.4043C25.8972 56.4943 27.7571 57.9773 29.8985 57.9661H35.0848V61.017C35.09 66.0699 39.1844 70.1643 44.2373 70.1695H70.1695C71.0119 70.1695 71.695 70.8525 71.695 71.6949C71.695 72.5373 71.0119 73.2203 70.1695 73.2203H18.3051C13.2522 73.2256 9.1578 77.3199 9.15259 82.3729ZM47.2882 4.57627C47.2882 3.73386 47.9712 3.05085 48.8136 3.05085C49.656 3.05085 50.339 3.73386 50.339 4.57627V10.678H47.2882V4.57627ZM47.2882 13.7288H50.339V21.3559H47.2882V13.7288ZM28.9831 4.57627C28.9831 3.73386 29.6661 3.05085 30.5085 3.05085C31.3509 3.05085 32.0339 3.73386 32.0339 4.57627V10.678H28.9831V4.57627ZM28.9831 13.7288H32.0339V21.3559H28.9831V13.7288ZM28.4066 53.7287L22.1641 26.2711C22.0613 25.8182 22.1701 25.343 22.4598 24.9803C22.7496 24.6176 23.189 24.406 23.6531 24.4068H55.6691C56.1331 24.4068 56.5718 24.6183 56.8608 24.981C57.1506 25.3438 57.2593 25.8182 57.1565 26.2711L50.917 53.7287C50.7584 54.4252 50.1379 54.9182 49.4236 54.9153H29.8985C29.1849 54.9175 28.5652 54.4244 28.4066 53.7287Z" fill="#2C237D"/>
</svg>
