<svg width="90" height="90" viewBox="0 0 90 90" fill="none" xmlns="http://www.w3.org/2000/svg">
<g clip-path="url(#clip0)">
<path d="M82.491 87.0968C81.1089 87.0968 80.4858 86.6148 79.6225 85.9485C78.6118 85.166 77.3537 84.1935 74.9799 84.1935C72.6069 84.1935 71.3495 85.1674 70.3394 85.9485C69.4782 86.6148 68.8573 87.0968 67.4766 87.0968C66.0994 87.0968 65.4764 86.6148 64.6159 85.9485C63.6052 85.1674 62.3499 84.1935 59.9776 84.1935C57.6059 84.1935 56.3485 85.1674 55.3385 85.9485C54.4773 86.6148 53.8564 87.0968 52.4757 87.0968C51.0985 87.0968 50.4754 86.6148 49.615 85.9485C48.6042 85.1674 47.3489 84.1935 44.9766 84.1935C42.605 84.1935 41.3476 85.1674 40.3375 85.9485C39.4764 86.6148 38.8555 87.0968 37.4761 87.0968C36.0975 87.0968 35.4759 86.6148 34.6154 85.9485C33.6047 85.1674 32.3494 84.1935 29.9771 84.1935C27.6055 84.1935 26.3481 85.1674 25.3394 85.9499C24.4782 86.6148 23.8573 87.0968 22.4794 87.0968C21.1037 87.0968 20.4835 86.6162 19.623 85.9499C18.6144 85.1674 17.3584 84.1935 14.9882 84.1935C12.6158 84.1935 11.3592 85.1674 10.3498 85.9499C9.48935 86.6148 8.86774 87.0968 7.49055 87.0968C6.11407 87.0968 5.49316 86.6162 4.6334 85.9499C3.62478 85.1674 2.36879 84.1935 0 84.1935V87.0968C1.37648 87.0968 1.99739 87.5773 2.85645 88.2436C3.86577 89.0261 5.12105 90 7.49055 90C9.86076 90 11.1182 89.0261 12.1268 88.245C12.9873 87.5787 13.6103 87.0968 14.9882 87.0968C16.364 87.0968 16.9856 87.5787 17.8461 88.245C18.8547 89.0261 20.1107 90 22.4794 90C24.8504 90 26.1071 89.0261 27.1164 88.245C27.9769 87.5787 28.5999 87.0968 29.9771 87.0968C31.355 87.0968 31.9773 87.5787 32.8385 88.245C33.8485 89.0261 35.1059 90 37.4761 90C39.8471 90 41.1038 89.0261 42.1145 88.245C42.975 87.5787 43.598 87.0968 44.9766 87.0968C46.3545 87.0968 46.9768 87.5787 47.838 88.245C48.8481 89.0261 50.1055 90 52.4757 90C54.8466 90 56.1047 89.0261 57.1154 88.245C57.9759 87.5787 58.5989 87.0968 59.9776 87.0968C61.3555 87.0968 61.9778 87.5787 62.839 88.245C63.849 89.0261 65.1064 90 67.4766 90C69.8475 90 71.1056 89.0275 72.1164 88.245C72.9769 87.5787 73.5999 87.0968 74.9799 87.0968C76.3621 87.0968 76.9851 87.5787 77.8484 88.245C78.8592 89.0275 80.1173 90 82.491 90C84.8641 90 86.1215 89.0275 87.1315 88.245C87.9955 87.5787 88.6179 87.0968 90 87.0968V84.1935C87.627 84.1935 86.3681 85.166 85.3574 85.9485C84.4941 86.6148 83.871 87.0968 82.491 87.0968Z" fill="#2C237D"/>
<path d="M90 49.3548V36.2903H66.7742V4.35484C66.7742 1.95415 64.82 0 62.4194 0C60.0187 0 58.0645 1.95415 58.0645 4.35484V11.6129H31.9355V4.35484C31.9355 1.95415 29.9813 0 27.5806 0C25.18 0 23.2258 1.95415 23.2258 4.35484V36.2903H0V49.3548H23.2258V56.542C22.9976 56.581 22.763 56.6129 22.4794 56.6129C21.1037 56.6129 20.4835 56.1323 19.623 55.4661C18.6144 54.6836 17.3584 53.7097 14.9882 53.7097C12.6158 53.7097 11.3592 54.6836 10.3498 55.4661C9.48935 56.1309 8.86774 56.6129 7.49055 56.6129C6.11407 56.6129 5.49316 56.1323 4.6334 55.4661C3.62478 54.6836 2.36879 53.7097 0 53.7097V56.6129C1.37648 56.6129 1.99739 57.0935 2.85645 57.7597C3.86577 58.5422 5.12105 59.5161 7.49055 59.5161C9.86076 59.5161 11.1182 58.5422 12.1268 57.7612C12.9873 57.0949 13.6103 56.6129 14.9882 56.6129C16.364 56.6129 16.9856 57.0949 17.8461 57.7612C18.8547 58.5422 20.1107 59.5161 22.4794 59.5161C24.8504 59.5161 26.1071 58.5422 27.1164 57.7612C27.9769 57.0949 28.5999 56.6129 29.9771 56.6129C31.355 56.6129 31.9773 57.0949 32.8385 57.7612C33.8485 58.5422 35.1059 59.5161 37.4761 59.5161C39.8471 59.5161 41.1038 58.5422 42.1145 57.7612C42.975 57.0949 43.598 56.6129 44.9766 56.6129C46.3545 56.6129 46.9768 57.0949 47.838 57.7612C48.8481 58.5422 50.1055 59.5161 52.4757 59.5161C54.8466 59.5161 56.1047 58.5422 57.1154 57.7612C57.9759 57.0949 58.5989 56.6129 59.9776 56.6129C61.3555 56.6129 61.9778 57.0949 62.839 57.7612C63.849 58.5422 65.1064 59.5161 67.4766 59.5161C69.8475 59.5161 71.1056 58.5437 72.1164 57.7612C72.9769 57.0949 73.5999 56.6129 74.9799 56.6129C76.3621 56.6129 76.9851 57.0949 77.8484 57.7612C78.8592 58.5437 80.1173 59.5161 82.491 59.5161C84.8641 59.5161 86.1215 58.5437 87.1315 57.7612C87.9955 57.0949 88.6179 56.6129 90 56.6129V53.7097C87.627 53.7097 86.3681 54.6821 85.3574 55.4647C84.4941 56.1309 83.871 56.6129 82.491 56.6129C81.1089 56.6129 80.4858 56.1309 79.6225 55.4647C78.6118 54.6821 77.3537 53.7097 74.9799 53.7097C72.6069 53.7097 71.3495 54.6836 70.3394 55.4647C69.4782 56.1309 68.8573 56.6129 67.4766 56.6129C67.2094 56.6129 66.9918 56.581 66.7742 56.5463V49.3548H90ZM72.5807 46.4516V39.1936H81.2903V46.4516H72.5807ZM87.0968 46.4516H84.1936V39.1936H87.0968V46.4516ZM69.6774 39.1936V46.4516H66.7742V39.1936H69.6774ZM58.0645 26.129H31.9355V20.3226H58.0645V26.129ZM58.0645 29.0323V31.9355H31.9355V29.0323H58.0645ZM58.0645 34.8387V40.6452H31.9355V34.8387H58.0645ZM58.0645 43.5484V46.4516H31.9355V43.5484H58.0645ZM58.0645 14.5161V17.4194H31.9355V14.5161H58.0645ZM17.4194 39.1936V46.4516H8.70968V39.1936H17.4194ZM2.90323 39.1936H5.80645V46.4516H2.90323V39.1936ZM20.3226 46.4516V39.1936H23.2258V46.4516H20.3226ZM26.129 54.8813V4.35484C26.129 3.5539 26.7797 2.90323 27.5806 2.90323C28.3816 2.90323 29.0323 3.5539 29.0323 4.35484V53.7706C27.7578 53.9273 26.8548 54.3845 26.129 54.8813ZM55.3385 55.4647C54.4773 56.1309 53.8564 56.6129 52.4757 56.6129C51.0985 56.6129 50.4754 56.1309 49.615 55.4647C48.6042 54.6836 47.3489 53.7097 44.9766 53.7097C42.605 53.7097 41.3476 54.6836 40.3375 55.4647C39.4764 56.1309 38.8555 56.6129 37.4761 56.6129C36.0975 56.6129 35.4759 56.1309 34.6154 55.4647C33.9286 54.9352 33.1199 54.3221 31.9341 53.9797V49.3548H58.0631V53.9663C56.8553 54.3065 56.0338 54.9274 55.3385 55.4647ZM60.9677 53.7777V4.35484C60.9677 3.5539 61.6184 2.90323 62.4194 2.90323C63.2203 2.90323 63.871 3.5539 63.871 4.35484V54.9118C63.1452 54.4107 62.2436 53.9436 60.9677 53.7777Z" fill="#2C237D"/>
<path d="M82.491 76.9355C81.1089 76.9355 80.4858 76.4535 79.6225 75.7872C78.6118 75.0047 77.3537 74.0323 74.9799 74.0323C72.6069 74.0323 71.3495 75.0061 70.3394 75.7872C69.4782 76.4535 68.8573 76.9355 67.4766 76.9355C66.0994 76.9355 65.4764 76.4535 64.6159 75.7872C63.6052 75.0061 62.3499 74.0323 59.9776 74.0323C57.6059 74.0323 56.3485 75.0061 55.3385 75.7872C54.4773 76.4535 53.8564 76.9355 52.4757 76.9355C51.0985 76.9355 50.4754 76.4535 49.615 75.7872C48.6042 75.0061 47.3489 74.0323 44.9766 74.0323C42.605 74.0323 41.3476 75.0061 40.3375 75.7872C39.4764 76.4535 38.8555 76.9355 37.4761 76.9355C36.0975 76.9355 35.4759 76.4535 34.6154 75.7872C33.6047 75.0061 32.3494 74.0323 29.9771 74.0323C27.6055 74.0323 26.3481 75.0061 25.3394 75.7887C24.4782 76.4535 23.8573 76.9355 22.4794 76.9355C21.1037 76.9355 20.4835 76.4549 19.623 75.7887C18.6144 75.0061 17.3584 74.0323 14.9882 74.0323C12.6158 74.0323 11.3592 75.0061 10.3498 75.7887C9.48935 76.4535 8.86774 76.9355 7.49055 76.9355C6.11407 76.9355 5.49316 76.4549 4.6334 75.7887C3.62478 75.0061 2.36879 74.0323 0 74.0323V76.9355C1.37648 76.9355 1.99739 77.416 2.85645 78.0823C3.86577 78.8648 5.12105 79.8387 7.49055 79.8387C9.86076 79.8387 11.1182 78.8648 12.1268 78.0837C12.9873 77.4175 13.6103 76.9355 14.9882 76.9355C16.364 76.9355 16.9856 77.4175 17.8461 78.0837C18.8547 78.8648 20.1107 79.8387 22.4794 79.8387C24.8504 79.8387 26.1071 78.8648 27.1164 78.0837C27.9769 77.4175 28.5999 76.9355 29.9771 76.9355C31.355 76.9355 31.9773 77.4175 32.8385 78.0837C33.8485 78.8648 35.1059 79.8387 37.4761 79.8387C39.8471 79.8387 41.1038 78.8648 42.1145 78.0837C42.975 77.4175 43.598 76.9355 44.9766 76.9355C46.3545 76.9355 46.9768 77.4175 47.838 78.0837C48.8481 78.8648 50.1055 79.8387 52.4757 79.8387C54.8466 79.8387 56.1047 78.8648 57.1154 78.0837C57.9759 77.4175 58.5989 76.9355 59.9776 76.9355C61.3555 76.9355 61.9778 77.4175 62.839 78.0837C63.849 78.8648 65.1064 79.8387 67.4766 79.8387C69.8475 79.8387 71.1056 78.8662 72.1164 78.0837C72.9769 77.4175 73.5999 76.9355 74.9799 76.9355C76.3621 76.9355 76.9851 77.4175 77.8484 78.0837C78.8592 78.8662 80.1173 79.8387 82.491 79.8387C84.8641 79.8387 86.1215 78.8662 87.1315 78.0837C87.9955 77.4175 88.6179 76.9355 90 76.9355V74.0323C87.627 74.0323 86.3681 75.0047 85.3574 75.7872C84.4941 76.4535 83.871 76.9355 82.491 76.9355Z" fill="#2C237D"/>
<path d="M82.491 66.7742C81.1089 66.7742 80.4858 66.2922 79.6225 65.6259C78.6118 64.8434 77.3537 63.871 74.9799 63.871C72.6069 63.871 71.3495 64.8449 70.3394 65.6259C69.4782 66.2922 68.8573 66.7742 67.4766 66.7742C66.0994 66.7742 65.4764 66.2922 64.6159 65.6259C63.6052 64.8449 62.3499 63.871 59.9776 63.871C57.6059 63.871 56.3485 64.8449 55.3385 65.6259C54.4773 66.2922 53.8564 66.7742 52.4757 66.7742C51.0985 66.7742 50.4754 66.2922 49.615 65.6259C48.6042 64.8449 47.3489 63.871 44.9766 63.871C42.605 63.871 41.3476 64.8449 40.3375 65.6259C39.4764 66.2922 38.8555 66.7742 37.4761 66.7742C36.0975 66.7742 35.4759 66.2922 34.6154 65.6259C33.6047 64.8449 32.3494 63.871 29.9771 63.871C27.6055 63.871 26.3481 64.8449 25.3394 65.6274C24.4782 66.2922 23.8573 66.7742 22.4794 66.7742C21.1037 66.7742 20.4835 66.2936 19.623 65.6274C18.6144 64.8449 17.3584 63.871 14.9882 63.871C12.6158 63.871 11.3592 64.8449 10.3498 65.6274C9.48935 66.2922 8.86774 66.7742 7.49055 66.7742C6.11407 66.7742 5.49316 66.2936 4.6334 65.6274C3.62478 64.8449 2.36879 63.871 0 63.871V66.7742C1.37648 66.7742 1.99739 67.2548 2.85645 67.921C3.86577 68.7035 5.12105 69.6774 7.49055 69.6774C9.86076 69.6774 11.1182 68.7035 12.1268 67.9224C12.9873 67.2562 13.6103 66.7742 14.9882 66.7742C16.364 66.7742 16.9856 67.2562 17.8461 67.9224C18.8547 68.7035 20.1107 69.6774 22.4794 69.6774C24.8504 69.6774 26.1071 68.7035 27.1164 67.9224C27.9769 67.2562 28.5999 66.7742 29.9771 66.7742C31.355 66.7742 31.9773 67.2562 32.8385 67.9224C33.8485 68.7035 35.1059 69.6774 37.4761 69.6774C39.8471 69.6774 41.1038 68.7035 42.1145 67.9224C42.975 67.2562 43.598 66.7742 44.9766 66.7742C46.3545 66.7742 46.9768 67.2562 47.838 67.9224C48.8481 68.7035 50.1055 69.6774 52.4757 69.6774C54.8466 69.6774 56.1047 68.7035 57.1154 67.9224C57.9759 67.2562 58.5989 66.7742 59.9776 66.7742C61.3555 66.7742 61.9778 67.2562 62.839 67.9224C63.849 68.7035 65.1064 69.6774 67.4766 69.6774C69.8475 69.6774 71.1056 68.705 72.1164 67.9224C72.9769 67.2562 73.5999 66.7742 74.9799 66.7742C76.3621 66.7742 76.9851 67.2562 77.8484 67.9224C78.8592 68.705 80.1173 69.6774 82.491 69.6774C84.8641 69.6774 86.1215 68.705 87.1315 67.9224C87.9955 67.2562 88.6179 66.7742 90 66.7742V63.871C87.627 63.871 86.3681 64.8434 85.3574 65.6259C84.4941 66.2922 83.871 66.7742 82.491 66.7742Z" fill="#2C237D"/>
</g>
<defs>
<clipPath id="clip0">
<rect width="90" height="90" fill="white"/>
</clipPath>
</defs>
</svg>
