<svg width="90" height="90" viewBox="0 0 90 90" fill="none" xmlns="http://www.w3.org/2000/svg">
<g clip-path="url(#clip0)">
<path d="M89.8967 60.451C89.896 60.4489 89.8953 60.4475 89.8946 60.4455C89.8939 60.4441 89.8932 60.442 89.8926 60.4407L75.4647 26.9947C74.9394 25.7773 74.1457 24.7199 73.1686 23.9371C71.3071 22.4443 68.9642 21.6217 66.5726 21.6217H58.6913C58.6576 21.621 58.6247 21.621 58.591 21.6217H45.0407C45.0277 21.6217 45.0139 21.621 45.0002 21.621C44.9865 21.621 44.9727 21.6217 44.9597 21.6217H31.4107C31.3764 21.6203 31.3414 21.6203 31.3077 21.6217H25.0194C24.2916 21.6217 23.7011 22.2122 23.7011 22.9401C23.7011 23.6686 24.2916 24.2584 25.0194 24.2584H29.7285L27.3513 35.2771C25.2014 33.5508 22.5035 32.593 19.6608 32.593C17.8542 32.593 16.1005 32.9837 14.5089 33.7143L16.9561 28.0405C17.3132 27.2131 17.8446 26.5024 18.4928 25.984C18.4928 25.984 19.6189 25.1991 20.2369 24.9272C20.903 24.6333 21.2051 23.8554 20.9112 23.1886C20.6173 22.5226 19.8387 22.2211 19.1726 22.5143C18.3486 22.8776 17.5727 23.3466 16.8662 23.9089C16.8648 23.9096 16.8483 23.9233 16.8476 23.924C15.8623 24.7109 15.0623 25.7732 14.535 26.9961L5.24671 48.5273C5.23435 48.5541 5.22267 48.5809 5.21237 48.6083L0.107832 60.4407C0.107145 60.442 0.106459 60.4441 0.105772 60.4455C0.105085 60.4475 0.104399 60.4489 0.103712 60.451C0.0316139 60.6219 -0.00203192 60.8005 2.80317e-05 60.9769V65.7526C2.80317e-05 66.5889 0.496475 67.3428 1.26415 67.6745C2.03045 68.0048 2.91897 67.8489 3.52597 67.2756C5.89009 65.0446 8.98413 63.8162 12.2382 63.8162C15.7964 63.8162 19.2145 65.3227 21.615 67.9485C22.0092 68.3804 22.5722 68.6282 23.1593 68.6282C23.7464 68.6282 24.3094 68.3804 24.7036 67.9492C27.1041 65.3227 30.5215 63.8162 34.0791 63.8162C37.6373 63.8162 41.0554 65.3227 43.4559 67.9485C43.8501 68.3804 44.4131 68.6282 45.0002 68.6282C45.5873 68.6282 46.1503 68.3804 46.5445 67.9492C48.945 65.3227 52.3624 63.8162 55.9193 63.8162C59.4782 63.8162 62.8963 65.3227 65.2968 67.9485C65.691 68.3804 66.254 68.6282 66.8411 68.6282C67.4282 68.6282 67.9912 68.3804 68.3854 67.9492C70.1219 66.0492 72.3556 64.7363 74.8467 64.1513C75.5553 63.9851 75.9948 63.2758 75.8286 62.5665C75.6625 61.8579 74.9532 61.4184 74.2438 61.5846C71.4231 62.2465 68.8756 63.6809 66.8411 65.7464C63.9688 62.8371 60.0213 61.1795 55.9193 61.1795C51.8186 61.1795 47.8724 62.8371 45.0002 65.7471C42.1279 62.8371 38.1811 61.1795 34.0791 61.1795C29.9784 61.1795 26.0315 62.8371 23.1593 65.7471C20.2877 62.8371 16.3402 61.1795 12.2382 61.1795C8.7184 61.1795 5.35314 62.3701 2.63676 64.555V61.4404C7.84224 55.4233 17.1978 55.665 22.1328 61.7899C22.1513 61.805 22.4191 62.1882 22.9663 62.2671C23.4607 62.3365 23.916 62.136 24.1989 61.7741C26.6234 58.7742 30.2235 57.0541 34.0791 57.0541C37.7279 57.0541 41.1639 58.4494 43.9991 61.8208C44.0176 61.8428 44.0334 61.86 44.0506 61.8771C44.0821 61.9108 44.1247 61.9499 44.157 61.976C44.3877 62.1683 44.6988 62.2905 45.0366 62.2809C45.3559 62.2706 45.6443 62.1518 45.8695 61.954C45.886 61.9396 45.9052 61.9224 45.921 61.9066C45.943 61.8847 45.9581 61.8696 45.978 61.8469C45.9958 61.827 46.0061 61.8153 46.0247 61.792C46.0254 61.7913 46.026 61.7906 46.0267 61.7899C48.452 58.7803 52.0576 57.0541 55.9193 57.0541C62.5338 57.0541 65.9862 61.9671 65.9684 61.9513C67.0265 62.8817 68.0626 61.6196 67.8457 61.8167C73.4947 55.1926 82.5234 55.849 87.3636 61.4404V64.5544C85.246 62.8501 82.7349 61.748 80.033 61.3463C79.3141 61.2413 78.6425 61.7364 78.5354 62.4567C78.4283 63.1769 78.9254 63.8478 79.6457 63.9549C82.2145 64.336 84.5758 65.4848 86.4744 67.2749C87.0814 67.8482 87.9693 68.0048 88.7355 67.6745C89.5039 67.3428 89.9997 66.5889 89.9997 65.7526V60.9769C90.0024 60.8005 89.9688 60.6219 89.8967 60.451ZM22.3944 58.2571C17.5308 53.9484 10.4007 53.1883 4.73584 56.3695L7.5662 49.8086C9.68039 47.4905 12.701 46.1646 15.8856 46.1646C19.0943 46.1646 22.0991 47.4891 24.2147 49.8175L22.3944 58.2571ZM24.8677 46.7908C22.3896 44.6951 19.2255 43.5278 15.8856 43.5278C13.689 43.5278 11.5543 44.0408 9.64263 44.9945L12.4764 38.4253C14.2864 36.3922 16.8936 35.2297 19.6608 35.2297C22.3662 35.2297 24.902 36.3304 26.7058 38.2681L24.8677 46.7908ZM43.6818 57.7895C40.9854 55.619 37.6215 54.4167 34.0784 54.4167C30.9012 54.4167 27.867 55.3842 25.3298 57.1502L26.8947 49.8985C29.0137 47.52 32.05 46.1646 35.2944 46.1646C38.5327 46.1646 41.5635 47.5138 43.6818 49.8814V57.7895ZM43.6818 46.3156C41.3019 44.5193 38.3727 43.5278 35.2944 43.5278C32.5911 43.5278 30.0031 44.2928 27.801 45.6963L29.37 38.4205C31.1814 36.3881 33.7776 35.229 36.553 35.229C39.3003 35.229 41.8725 36.364 43.6818 38.3587V46.3156ZM43.6818 34.852C41.6322 33.3943 39.1527 32.593 36.553 32.593C34.2953 32.593 32.1297 33.1972 30.2572 34.311L32.4256 24.2584H43.6818V34.852ZM66.5726 24.2584C68.3929 24.2584 70.1034 24.8586 71.5192 25.9936C72.1612 26.5086 72.6886 27.2158 73.0436 28.0391L75.4915 33.7143C73.8991 32.9837 72.1448 32.593 70.3375 32.593C67.4962 32.593 64.7983 33.5508 62.6491 35.2771L60.2719 24.2584H66.5726ZM46.3186 24.2584H57.5748L59.7432 34.311C57.87 33.1972 55.703 32.593 53.4453 32.593C50.8456 32.593 48.3675 33.3943 46.3186 34.852V24.2584ZM46.3186 38.3587C48.1272 36.364 50.6987 35.2297 53.4453 35.2297C56.2214 35.2297 58.8183 36.3881 60.6297 38.4205L62.1994 45.6963C59.9966 44.2928 57.4079 43.5278 54.7032 43.5278C51.6257 43.5278 48.6978 44.5193 46.3186 46.3156V38.3587ZM55.9193 54.4167C52.3775 54.4167 49.0143 55.619 46.3186 57.7895V49.8821C48.4369 47.5138 51.4664 46.1646 54.7039 46.1646C57.9497 46.1646 60.9867 47.52 63.1057 49.8985L64.6699 57.1509C62.1327 55.3849 59.0984 54.4167 55.9193 54.4167ZM63.2939 38.2681C65.0984 36.3304 67.6328 35.2297 70.3375 35.2297C73.1061 35.2297 75.714 36.3922 77.524 38.4253L80.3578 44.9945C78.4454 44.0408 76.3107 43.5278 74.1127 43.5278C70.7735 43.5278 67.6101 44.6951 65.1327 46.7908L63.2939 38.2681ZM67.606 58.2571L65.7857 49.8175C67.9006 47.4891 70.9054 46.1646 74.1127 46.1646C77.2987 46.1646 80.3193 47.4905 82.4342 49.8086L85.2652 56.3695C79.7041 53.248 72.5677 53.8605 67.606 58.2571Z" fill="#2C237D"/>
</g>
<defs>
<clipPath id="clip0">
<rect width="90" height="90" fill="white"/>
</clipPath>
</defs>
</svg>
