<svg width="85" height="85" viewBox="0 0 85 85" fill="none" xmlns="http://www.w3.org/2000/svg">
<g clip-path="url(#clip0)">
<path d="M47.4459 4.24837C46.339 4.24479 45.2558 4.5717 44.3345 5.18608L43.9632 4.81616C39.6582 0.52406 32.8311 0.108973 28.0379 3.84691L27.744 3.55369C22.9981 -1.18432 15.3121 -1.18432 10.5655 3.55369C4.85467 9.23802 1.65441 16.9713 1.67879 25.0293V85.0004H4.61522V39.4856H7.55166V85.0004H10.4881V79.7792C11.3771 80.3075 12.3908 80.5893 13.4245 80.5957H16.361C18.7934 80.5957 20.7656 78.6235 20.7656 76.1911V73.2546C20.7656 70.8215 18.7934 68.85 16.361 68.85H13.4245C12.3908 68.8557 11.3771 69.1375 10.4881 69.6658V25.3375C10.473 19.7414 12.6969 14.371 16.6649 10.4245C18.1203 8.9742 20.4746 8.9742 21.9299 10.4245L22.0489 10.5435C19.686 15.189 20.5828 20.8268 24.2706 24.5095L24.6405 24.8794C23.026 27.2861 23.5063 30.5265 25.7495 32.361C27.9934 34.1956 31.264 34.0235 33.3028 31.9639L51.4204 13.8427C53.0284 12.2354 53.5095 9.818 52.6391 7.71747C51.7688 5.61694 49.7192 4.24766 47.4459 4.24837ZM4.61522 36.5492V33.6127H7.55166V36.5492H4.61522ZM13.4245 71.7864H16.361C17.1718 71.7864 17.8292 72.4431 17.8292 73.2546V76.1911C17.8292 77.0019 17.1718 77.6593 16.361 77.6593H13.4245C11.8029 77.6593 10.4881 76.3445 10.4881 74.7228C10.4881 73.1005 11.8029 71.7864 13.4245 71.7864ZM14.5888 8.34906C10.0687 12.8448 7.53445 18.9621 7.55166 25.3375V30.6763H4.61522V25.0293C4.59515 17.7491 7.48857 10.7636 12.651 5.62985C16.2484 2.04103 22.0718 2.04103 25.6692 5.62985L25.8929 5.85424L24.2706 7.47802C24.0691 7.67947 23.887 7.89239 23.7035 8.10388C21.0789 5.76176 17.0836 5.86858 14.5888 8.34906ZM23.677 15.9941C23.6705 13.5767 24.6312 11.2575 26.3446 9.55274L29.0064 6.89088C32.5673 3.34077 38.3283 3.34077 41.8892 6.89088L42.1824 7.18481L26.6385 22.7273L26.3446 22.4333C24.6312 20.7293 23.6705 18.4101 23.677 15.9941ZM49.3443 11.768L31.2209 29.8906C30.4524 30.6569 29.2982 30.8864 28.2953 30.4706C27.2923 30.0547 26.6385 29.0762 26.6385 27.9908C26.6363 27.2782 26.9195 26.595 27.4242 26.0924L45.5475 7.96982C46.3161 7.20345 47.4703 6.97404 48.4732 7.38984C49.4755 7.80565 50.1293 8.78422 50.13 9.86961C50.1314 10.5822 49.849 11.2654 49.3443 11.768Z" fill="#2C237D"/>
<path d="M53.4958 17.0329L55.5727 14.956L61.4456 20.8289L59.3694 22.9057L53.4958 17.0329Z" fill="#2C237D"/>
<path d="M62.3052 25.8415L64.382 23.7654L67.3178 26.7011L65.2416 28.778L62.3052 25.8415Z" fill="#2C237D"/>
<path d="M68.1788 31.7151L70.2549 29.6382L76.1278 35.5111L74.0516 37.5879L68.1788 31.7151Z" fill="#2C237D"/>
<path d="M49.0927 21.4361L51.1688 19.3599L54.1045 22.2964L52.0284 24.3725L49.0927 21.4361Z" fill="#2C237D"/>
<path d="M54.9655 27.3097L57.0417 25.2328L62.9153 31.1064L60.8384 33.1825L54.9655 27.3097Z" fill="#2C237D"/>
<path d="M63.7748 36.1183L65.851 34.0422L68.7875 36.9786L66.7106 39.0548L63.7748 36.1183Z" fill="#2C237D"/>
<path d="M44.688 24.374L46.7649 22.2979L52.6377 28.1707L50.5609 30.2469L44.688 24.374Z" fill="#2C237D"/>
<path d="M53.4973 33.1833L55.5735 31.1064L58.5099 34.0428L56.433 36.119L53.4973 33.1833Z" fill="#2C237D"/>
<path d="M59.3687 39.0554L61.4449 36.9792L71.7224 47.2561L69.6455 49.3322L59.3687 39.0554Z" fill="#2C237D"/>
<path d="M69.6462 41.9919L71.7231 39.915L77.596 45.7886L75.5198 47.8648L69.6462 41.9919Z" fill="#2C237D"/>
<path d="M40.2826 28.7779L42.3595 26.7018L45.2952 29.6375L43.219 31.7136L40.2826 28.7779Z" fill="#2C237D"/>
<path d="M46.1562 34.6508L48.2324 32.5746L54.1052 38.4475L52.0291 40.5237L46.1562 34.6508Z" fill="#2C237D"/>
<path d="M54.9655 43.4601L57.0417 41.3839L59.9774 44.3196L57.9012 46.3958L54.9655 43.4601Z" fill="#2C237D"/>
<path d="M60.8384 49.333L62.9152 47.2568L68.7881 53.1297L66.7112 55.2059L60.8384 49.333Z" fill="#2C237D"/>
<path d="M35.8787 33.1819L37.9555 31.1057L43.8284 36.9786L41.7515 39.0555L35.8787 33.1819Z" fill="#2C237D"/>
<path d="M44.6873 41.9912L46.7634 39.915L52.6363 45.7879L50.5601 47.8648L44.6873 41.9912Z" fill="#2C237D"/>
<path d="M53.4966 50.8005L55.5727 48.7243L58.5084 51.66L56.4323 53.7362L53.4966 50.8005Z" fill="#2C237D"/>
<path d="M59.3694 56.6734L61.4456 54.5972L67.3192 60.4701L65.2423 62.547L59.3694 56.6734Z" fill="#2C237D"/>
<path d="M68.1788 65.4827L70.2549 63.4066L73.1914 66.3423L71.1145 68.4184L68.1788 65.4827Z" fill="#2C237D"/>
<path d="M69.6477 58.1423L71.7239 56.0662L74.6603 59.0019L72.5834 61.078L69.6477 58.1423Z" fill="#2C237D"/>
<path d="M72.5841 52.2702L74.6603 50.1933L77.596 53.1297L75.5198 55.2059L72.5841 52.2702Z" fill="#2C237D"/>
<path d="M78.4556 50.8005L80.5324 48.7243L83.4682 51.6607L81.392 53.7369L78.4556 50.8005Z" fill="#2C237D"/>
<path d="M76.988 40.5237L79.0642 38.4475L81.9999 41.3832L79.9237 43.4601L76.988 40.5237Z" fill="#2C237D"/>
</g>
<defs>
<clipPath id="clip0">
<rect width="85" height="85" fill="white"/>
</clipPath>
</defs>
</svg>
