<svg width="90" height="90" viewBox="0 0 90 90" fill="none" xmlns="http://www.w3.org/2000/svg">
<path d="M85.6452 29.0323H78.3871V25.8618C80.0726 25.2608 81.2903 23.6638 81.2903 21.7742V20.3226H82.7419C85.1426 20.3226 87.0968 18.3684 87.0968 15.9677V13.0645C87.0968 10.6638 85.1426 8.70968 82.7419 8.70968H81.0231C80.4221 7.02416 78.8251 5.80645 76.9355 5.80645H72.4339C71.7592 2.4985 68.8269 0 65.3226 0C61.8183 0 58.886 2.4985 58.2112 5.80645H53.7097C51.82 5.80645 50.2231 7.02416 49.6221 8.70968H47.9032C45.5025 8.70968 43.5484 10.6638 43.5484 13.0645V15.9677C43.5484 18.3684 45.5025 20.3226 47.9032 20.3226H49.3548V21.7742C49.3548 23.6638 50.5726 25.2608 52.2581 25.8618V29.0323H39.1936V20.3226H30.4839V29.0323H27.5806V20.3226H18.871V29.0323H15.9677V20.3226H7.25806V29.0323H4.35484C1.95415 29.0323 0 30.9864 0 33.3871V85.6452C0 88.0459 1.95415 90 4.35484 90H85.6452C88.0459 90 90 88.0459 90 85.6452V33.3871C90 30.9864 88.0459 29.0323 85.6452 29.0323ZM72.5807 29.0323V26.129H75.4839V29.0323H72.5807ZM69.6774 26.129V29.0323H60.9677V26.129H69.6774ZM76.9355 23.2258H53.7097C52.9102 23.2258 52.2581 22.5737 52.2581 21.7742V14.5161H78.3871V21.7742C78.3871 22.5737 77.735 23.2258 76.9355 23.2258ZM84.1936 13.0645V15.9677C84.1936 16.7673 83.5415 17.4194 82.7419 17.4194H81.2903V11.6129H82.7419C83.5415 11.6129 84.1936 12.265 84.1936 13.0645ZM65.3226 2.90323C67.2122 2.90323 68.8092 4.12094 69.4102 5.80645H61.2364C61.836 4.12094 63.4329 2.90323 65.3226 2.90323ZM53.7097 8.70968H76.9355C77.735 8.70968 78.3871 9.36177 78.3871 10.1613V11.6129H52.2581V10.1613C52.2581 9.36177 52.9102 8.70968 53.7097 8.70968ZM47.9032 17.4194C47.1037 17.4194 46.4516 16.7673 46.4516 15.9677V13.0645C46.4516 12.265 47.1037 11.6129 47.9032 11.6129H49.3548V17.4194H47.9032ZM55.1613 26.129H58.0645V29.0323H55.1613V26.129ZM33.3871 23.2258H36.2903V29.0323H33.3871V23.2258ZM21.7742 23.2258H24.6774V29.0323H21.7742V23.2258ZM10.1613 23.2258H13.0645V29.0323H10.1613V23.2258ZM4.35484 31.9355H85.6452C86.4447 31.9355 87.0968 32.5876 87.0968 33.3871V46.4516H76.8979C77.8194 45.2353 78.3871 43.7369 78.3871 42.0968C78.3871 38.0949 75.1309 34.8387 71.129 34.8387C67.1272 34.8387 63.871 38.0949 63.871 42.0968C63.871 43.7369 64.4387 45.2353 65.3601 46.4516H24.6399C25.5613 45.2353 26.129 43.7369 26.129 42.0968C26.129 38.0949 22.8728 34.8387 18.871 34.8387C14.8691 34.8387 11.6129 38.0949 11.6129 42.0968C11.6129 43.7369 12.1806 45.2353 13.1021 46.4516H2.90323V33.3871C2.90323 32.5876 3.55532 31.9355 4.35484 31.9355ZM69.6774 55.1613V60.9677H63.871V55.1613H69.6774ZM60.9677 60.9677H29.0323V55.1613H60.9677V60.9677ZM26.129 60.9677H20.3226V55.1613H26.129V60.9677ZM72.5807 63.871V55.1613H78.3871V81.2903H11.6129V55.1613H17.4194V63.871H72.5807ZM8.70968 52.2581V81.2903H2.90323V49.3548H87.0968V81.2903H81.2903V52.2581H8.70968ZM20.3226 46.1844V40.6452H17.4194V46.1844C15.7338 45.5833 14.5161 43.9864 14.5161 42.0968C14.5161 39.6961 16.4703 37.7419 18.871 37.7419C21.2717 37.7419 23.2258 39.6961 23.2258 42.0968C23.2258 43.9864 22.0081 45.5833 20.3226 46.1844ZM72.5807 46.1844V40.6452H69.6774V46.1844C67.9919 45.5833 66.7742 43.9864 66.7742 42.0968C66.7742 39.6961 68.7283 37.7419 71.129 37.7419C73.5297 37.7419 75.4839 39.6961 75.4839 42.0968C75.4839 43.9864 74.2662 45.5833 72.5807 46.1844ZM85.6452 87.0968H4.35484C3.55532 87.0968 2.90323 86.4461 2.90323 85.6452V84.1936H87.0968V85.6452C87.0968 86.4461 86.4447 87.0968 85.6452 87.0968Z" fill="#2C237D"/>
<path d="M63.871 66.7742H26.129V78.3871H63.871V66.7742ZM60.9677 75.4839H29.0323V69.6774H60.9677V75.4839Z" fill="#2C237D"/>
<path d="M58.0645 34.8387H31.9354V43.5484H58.0645V34.8387ZM46.4516 37.7419H49.3548V40.6452H46.4516V37.7419ZM43.5483 40.6452H40.6451V37.7419H43.5483V40.6452ZM34.8387 37.7419H37.7419V40.6452H34.8387V37.7419ZM55.1612 40.6452H52.258V37.7419H55.1612V40.6452Z" fill="#2C237D"/>
</svg>
