<svg width="90" height="80" viewBox="0 0 90 80" fill="none" xmlns="http://www.w3.org/2000/svg">
<path d="M45 39.2035C36.7158 39.2035 30.0004 45.9183 30.0004 54.2031C30.0004 62.4874 36.7158 69.2033 45 69.2033C53.2842 69.2033 59.9996 62.4874 59.9996 54.2031C59.9908 45.9227 53.2804 39.2123 45 39.2035ZM45 66.2029C38.3725 66.2029 33.0002 60.8306 33.0002 54.2031C33.0002 47.5756 38.3725 42.2033 45 42.2033C51.6275 42.2033 56.9998 47.5756 56.9998 54.2031C56.9921 60.8268 51.6242 66.1958 45 66.2029Z" fill="#2C237D"/>
<path d="M44.9999 37.7028C45.8283 37.7028 46.5001 37.0315 46.5001 36.2031V34.7029C46.5001 33.8751 45.8283 33.2033 44.9999 33.2033C44.1716 33.2033 43.4998 33.8751 43.4998 34.7029V36.2031C43.4998 37.0315 44.1716 37.7028 44.9999 37.7028Z" fill="#2C237D"/>
<path d="M57.7277 39.3529L56.6669 40.4136C56.0715 40.9893 56.055 41.9391 56.6301 42.5345C57.2058 43.13 58.1556 43.1465 58.7516 42.5714C58.7637 42.5598 58.7763 42.5472 58.7878 42.5345L59.8485 41.4738C60.4242 40.8778 60.4077 39.9286 59.8117 39.3529C59.2306 38.7915 58.3088 38.7915 57.7277 39.3529Z" fill="#2C237D"/>
<path d="M64.5002 52.7024H63C62.1716 52.7024 61.5004 53.3748 61.5004 54.2031C61.5004 55.0315 62.1716 55.7033 63 55.7033H64.5002C65.328 55.7033 65.9998 55.0315 65.9998 54.2031C65.9998 53.3748 65.328 52.7024 64.5002 52.7024Z" fill="#2C237D"/>
<path d="M58.7879 65.8695C58.1924 65.2944 57.2421 65.3108 56.667 65.9068C56.1061 66.4886 56.1061 67.4098 56.667 67.991L57.7277 69.0517C58.3133 69.6373 59.263 69.6378 59.8492 69.0522C60.4353 68.4667 60.4358 67.5169 59.8503 66.9308L58.7879 65.8695Z" fill="#2C237D"/>
<path d="M44.9999 70.7029C44.1716 70.7029 43.4998 71.3748 43.4998 72.2031V73.7028C43.4998 74.5317 44.1716 75.2035 44.9999 75.2035C45.8283 75.2035 46.5001 74.5317 46.5001 73.7028V72.2031C46.5001 71.3748 45.8283 70.7029 44.9999 70.7029Z" fill="#2C237D"/>
<path d="M31.2121 65.8695L30.1514 66.9308C29.5653 67.5164 29.5647 68.4661 30.1509 69.0522C30.7364 69.6378 31.6867 69.6389 32.2723 69.0533L33.333 67.9921C33.9087 67.3966 33.8922 66.4474 33.2962 65.8717C32.7151 65.3103 31.7933 65.3103 31.2121 65.8717V65.8695Z" fill="#2C237D"/>
<path d="M27 52.7024H25.4998C24.6709 52.7024 23.9996 53.3748 23.9996 54.2031C23.9996 55.0315 24.6709 55.7033 25.4998 55.7033H27C27.8284 55.7033 28.4996 55.0315 28.4996 54.2031C28.4996 53.3748 27.8284 52.7024 27 52.7024Z" fill="#2C237D"/>
<path d="M31.2122 42.5362C31.8076 43.1113 32.7579 43.0948 33.3331 42.4994C33.8939 41.9182 33.8939 40.9959 33.3331 40.4153L32.2723 39.3551C31.6868 38.7684 30.737 38.7684 30.1509 39.3534C29.5648 39.9396 29.5642 40.8899 30.1498 41.4755L31.2122 42.5362Z" fill="#2C237D"/>
<path d="M85.5 37.7028C83.0149 37.7028 81 39.7177 81 42.2033V43.7029H68.2108C65.6483 38.0703 61.1329 33.5549 55.5002 30.9923V19.7033C55.5002 18.8744 54.8284 18.2031 54 18.2031H50.9996V9.20312H68.9996C71.4853 9.20312 73.4996 7.18823 73.4996 4.70312C73.4996 2.21802 71.4853 0.203125 68.9996 0.203125H20.9998C18.5147 0.203125 16.5004 2.21802 16.5004 4.70312C16.5004 7.18823 18.5147 9.20312 20.9998 9.20312H39.0004V18.2031H36C35.1716 18.2031 34.4998 18.8749 34.4998 19.7033V30.9923C28.8666 33.5549 24.3517 38.0703 21.7886 43.7035H9V42.2033C9 39.7182 6.98511 37.7039 4.5 37.7039C2.01489 37.7039 0 39.7177 0 42.2033V66.2029C0 68.6886 2.01489 70.7029 4.5 70.7029C6.98511 70.7029 9 68.6886 9 66.2029V64.7033H21.7892C27.5647 77.5222 42.6385 83.2323 55.4579 77.4562C61.1224 74.9041 65.6587 70.3679 68.2108 64.7033H81V66.2029C81 68.6886 83.0149 70.7029 85.5 70.7029C87.9851 70.7029 90 68.6886 90 66.2029V42.2033C90 39.7177 87.9851 37.7028 85.5 37.7028ZM19.5002 4.70312C19.5002 3.87476 20.1714 3.20294 20.9998 3.20294H68.9996C69.8286 3.20294 70.4998 3.87476 70.4998 4.70312C70.4998 5.53149 69.8286 6.20276 68.9996 6.20276H20.9998C20.1714 6.20276 19.5002 5.53149 19.5002 4.70312ZM42.0002 9.20312H47.9998V18.2031H42.0002V9.20312ZM37.4996 21.2029H52.5004V29.8327C47.6136 28.327 42.3864 28.327 37.4996 29.8327V21.2029ZM5.99963 66.2029C5.99963 67.0319 5.32837 67.7031 4.5 67.7031C3.67163 67.7031 2.99982 67.0319 2.99982 66.2029V42.2033C2.99982 41.3744 3.67163 40.7031 4.5 40.7031C5.32837 40.7031 5.99963 41.3744 5.99963 42.2033V66.2029ZM9 61.7035V46.7028H20.6296C19.1239 51.5895 19.1239 56.8162 20.6296 61.7035H9ZM45 76.7031C32.5739 76.7031 22.5 66.6292 22.5 54.2031C22.5 41.7765 32.5739 31.7031 45 31.7031C57.4261 31.7031 67.5 41.7765 67.5 54.2031C67.4863 66.6237 57.4206 76.6894 45 76.7031ZM69.3704 61.7035C70.8761 56.8162 70.8761 51.5895 69.3704 46.7028H81V61.7035H69.3704ZM87.0002 66.2029C87.0002 67.0319 86.3284 67.7031 85.5 67.7031C84.6716 67.7031 84.0004 67.0319 84.0004 66.2029V42.2033C84.0004 41.3744 84.6716 40.7031 85.5 40.7031C86.3284 40.7031 87.0002 41.3744 87.0002 42.2033V66.2029Z" fill="#2C237D"/>
</svg>
