<svg width="90" height="90" viewBox="0 0 90 90" fill="none" xmlns="http://www.w3.org/2000/svg">
<path d="M86.1555 0H53.343C51.2212 0.00219727 49.5015 1.72266 49.5 3.84448V6.65698C49.5 8.45508 50.7458 10.0129 52.5 10.407V37.5H6.46802C3.7251 37.5037 1.5022 39.7266 1.5 42.4695V43.5C0.671631 43.5 0 44.1716 0 45V51C0 51.8284 0.671631 52.5 1.5 52.5H1.57178C2.09326 61.4744 8.78394 68.8799 17.6594 70.3066L13.5374 88.1565C13.4326 88.6033 13.5374 89.0728 13.8223 89.4324C14.1079 89.7913 14.5415 90.0007 15 90H79.5C80.3284 90 81 89.3284 81 88.5V85.032C80.9941 83.2083 79.7637 81.6152 78 81.1501V74.031C77.9934 71.5159 79.4172 69.2161 81.6702 68.0999C84.9478 66.4753 87.0154 63.1267 87 59.469V52.5H88.5C89.3284 52.5 90 51.8284 90 51V45C90 44.1716 89.3284 43.5 88.5 43.5H87V10.3997C88.7512 10.0056 89.9971 8.45215 90 6.65698V3.84448C89.9985 1.72192 88.2781 0.00146484 86.1555 0ZM4.5 42.4695C4.50073 41.3826 5.3811 40.5015 6.46802 40.5H52.5V43.5H4.5V42.4695ZM4.56299 52.5H49.437C48.9119 60.7808 42.1509 67.2898 33.8562 67.5H20.1438C11.8491 67.2898 5.08813 60.7808 4.56299 52.5ZM84 59.469C84.0095 61.9863 82.5857 64.2898 80.3298 65.4075C77.0544 67.0312 74.9875 70.3755 75 74.031V81H41.5151L38.8938 74.4419L36.1062 75.5581L39.1062 83.0581C39.3347 83.6272 39.8862 84.0007 40.5 84H76.968C77.5378 84.0007 77.9993 84.4622 78 85.032V87H16.8853L20.6997 70.5H33.8628C43.8047 70.2759 51.8965 62.4309 52.4282 52.5H84V59.469ZM87 49.5H3V46.5H87V49.5ZM55.5 43.5V10.5H84V43.5H55.5ZM87 6.65698C86.9993 7.1228 86.6213 7.5 86.1555 7.5H53.343C52.8772 7.5 52.5 7.1228 52.5 6.65698V3.84448C52.5 3.37866 52.8772 3.00073 53.343 3H86.1555C86.6221 3 87 3.37793 87 3.84448V6.65698Z" fill="#2C237D"/>
<path d="M69 13.5H60C59.1716 13.5 58.5 14.1716 58.5 15V21C58.5 21.8284 59.1716 22.5 60 22.5H69C69.8284 22.5 70.5 21.8284 70.5 21V15C70.5 14.1716 69.8284 13.5 69 13.5ZM67.5 19.5H61.5V16.5H67.5V19.5Z" fill="#2C237D"/>
<path d="M50.7854 66.7273L48.2146 68.2727L51.2073 73.2597C52.4385 75.3113 54.6738 76.5469 57.0659 76.4978C59.458 76.4487 61.6406 75.123 62.7869 73.0232L70.3169 59.2229L67.6831 57.7859L60.1545 71.5862C59.5239 72.7427 58.322 73.4721 57.0051 73.4993C55.6875 73.5264 54.457 72.8459 53.7795 71.7165L50.7854 66.7273Z" fill="#2C237D"/>
</svg>
