<svg width="85" height="85" viewBox="0 0 85 85" fill="none" xmlns="http://www.w3.org/2000/svg">
<path d="M81.3691 0H50.3795C48.3756 0.0020752 46.7514 1.62695 46.75 3.6309V6.28715C46.75 7.98535 47.9266 9.45667 49.5833 9.82882V35.4167H6.10868C3.51815 35.4201 1.41874 37.5195 1.41667 40.1101V41.0833C0.634318 41.0833 0 41.7177 0 42.5V48.1667C0 48.949 0.634318 49.5833 1.41667 49.5833H1.48446C1.97697 58.0591 8.29594 65.0532 16.6783 66.4007L12.7853 83.2589C12.6864 83.6809 12.7853 84.1243 13.0544 84.4639C13.3241 84.8029 13.7336 85.0007 14.1667 85H75.0833C75.8657 85 76.5 84.3657 76.5 83.5833V80.308C76.4945 78.5856 75.3324 77.0811 73.6667 76.6418V69.9182C73.6604 67.5428 75.0052 65.3707 77.1329 64.3165C80.2284 62.7823 82.1812 59.6197 82.1667 56.1652V49.5833H83.5833C84.3657 49.5833 85 48.949 85 48.1667V42.5C85 41.7177 84.3657 41.0833 83.5833 41.0833H82.1667V9.8219C83.8206 9.44975 84.9972 7.98258 85 6.28715V3.6309C84.9986 1.62626 83.3737 0.00138346 81.3691 0ZM4.25 40.1101C4.25069 39.0835 5.08215 38.2514 6.10868 38.25H49.5833V41.0833H4.25V40.1101ZM4.30949 49.5833H46.6905C46.1945 57.4041 39.8092 63.5515 31.9753 63.75H19.0247C11.1908 63.5515 4.80546 57.4041 4.30949 49.5833ZM79.3333 56.1652C79.3423 58.5426 77.9976 60.7181 75.8671 61.7737C72.7736 63.3073 70.8216 66.4657 70.8333 69.9182V76.5H39.2087L36.733 70.3062L34.1003 71.3604L36.9336 78.4438C37.1495 78.9812 37.6703 79.334 38.25 79.3333H72.692C73.2302 79.334 73.666 79.7698 73.6667 80.308V82.1667H15.9472L19.5497 66.5833H31.9815C41.3711 66.3717 49.0133 58.9625 49.5155 49.5833H79.3333V56.1652ZM82.1667 46.75H2.83333V43.9167H82.1667V46.75ZM52.4167 41.0833V9.91667H79.3333V41.0833H52.4167ZM82.1667 6.28715C82.166 6.72709 81.809 7.08333 81.3691 7.08333H50.3795C49.9396 7.08333 49.5833 6.72709 49.5833 6.28715V3.6309C49.5833 3.19096 49.9396 2.83402 50.3795 2.83333H81.3691C81.8097 2.83333 82.1667 3.19027 82.1667 3.6309V6.28715Z" fill="#2C237D"/>
<path d="M65.1667 12.75H56.6667C55.8843 12.75 55.25 13.3843 55.25 14.1667V19.8333C55.25 20.6157 55.8843 21.25 56.6667 21.25H65.1667C65.949 21.25 66.5833 20.6157 66.5833 19.8333V14.1667C66.5833 13.3843 65.949 12.75 65.1667 12.75ZM63.75 18.4167H58.0833V15.5833H63.75V18.4167Z" fill="#2C237D"/>
<path d="M47.964 63.0202L45.536 64.4798L48.3624 69.1898C49.5252 71.1273 51.6364 72.2943 53.8956 72.2479C56.1548 72.2016 58.2161 70.9495 59.2987 68.9663L66.4104 55.9327L63.9229 54.5756L56.8126 67.6092C56.217 68.7014 55.0819 69.3904 53.8382 69.416C52.5937 69.4416 51.4316 68.7989 50.7918 67.7323L47.964 63.0202Z" fill="#2C237D"/>
</svg>
