<svg width="90" height="90" viewBox="0 0 90 90" fill="none" xmlns="http://www.w3.org/2000/svg">
<path d="M20.3226 82.7419C20.3226 83.5436 19.6726 84.1936 18.871 84.1936C18.0693 84.1936 17.4194 83.5436 17.4194 82.7419C17.4194 81.9403 18.0693 81.2903 18.871 81.2903C19.6726 81.2903 20.3226 81.9403 20.3226 82.7419Z" fill="#2C237D"/>
<path d="M90 0H0V60.9677H11.6129V82.7419C11.6129 86.7438 14.8691 90 18.871 90C22.8728 90 26.129 86.7438 26.129 82.7419V60.9677H90V0ZM87.0968 11.6129H81.2903V2.90323H87.0968V11.6129ZM17.4194 55.1613V40.7919C17.8886 40.6962 18.3748 40.6452 18.871 40.6452C19.3671 40.6452 19.8534 40.6962 20.3226 40.7919V55.1613H17.4194ZM14.5161 46.4516H11.7596C12.1183 44.691 13.1326 43.1812 14.5161 42.1343V46.4516ZM23.2258 42.1343C24.6094 43.1812 25.6237 44.6924 25.9823 46.4516H23.2258V42.1343ZM28.916 46.4516C28.2079 41.5361 23.9793 37.7419 18.871 37.7419C13.7627 37.7419 9.53401 41.5361 8.82592 46.4516H7.55718C4.99063 46.4516 2.90323 44.3642 2.90323 41.7977C2.90323 41.2143 3.01096 40.6423 3.22431 40.1008L14.351 11.6682C15.0534 9.87068 16.7545 8.70968 18.6838 8.70968H19.0581C20.9874 8.70968 22.6885 9.87068 23.391 11.6682L34.519 40.1022C34.731 40.6423 34.8387 41.2143 34.8387 41.7977C34.8387 44.3642 32.7513 46.4516 30.1848 46.4516H28.916ZM72.5807 46.4516V37.7419H75.4839V46.4516H72.5807ZM72.5807 34.8387V26.129H78.3871V34.8387H72.5807ZM72.5807 23.2258C72.5807 20.0235 69.9765 17.4194 66.7742 17.4194C63.5719 17.4194 60.9677 20.0235 60.9677 23.2258V46.4516C60.9677 48.0528 59.6657 49.3548 58.0645 49.3548C56.4633 49.3548 55.1613 48.0528 55.1613 46.4516V26.129C55.1613 22.9267 52.5572 20.3226 49.3548 20.3226C46.1525 20.3226 43.5484 22.9267 43.5484 26.129V37.7419C43.5484 39.3431 42.2463 40.6452 40.6452 40.6452C39.044 40.6452 37.7419 39.3431 37.7419 37.7419V14.5161H75.4839V23.2258H72.5807ZM36.0947 46.4516C36.9332 45.3877 37.4832 44.1041 37.6519 42.6922C38.5287 43.2245 39.5465 43.5484 40.6452 43.5484C43.8475 43.5484 46.4516 40.9443 46.4516 37.7419V26.129C46.4516 24.5279 47.7537 23.2258 49.3548 23.2258C50.956 23.2258 52.2581 24.5279 52.2581 26.129V46.4516H36.0947ZM34.8387 13.0645V32.9505L29.0323 18.1133V11.6129C29.0323 10.0117 30.3343 8.70968 31.9355 8.70968C33.5367 8.70968 34.8387 10.0117 34.8387 11.6129V13.0645ZM66.7742 11.6129V2.90323H78.3871V11.6129H66.7742ZM63.871 11.6129H52.2581V2.90323H63.871V11.6129ZM49.3548 11.6129H37.7419V2.90323H49.3548V11.6129ZM34.8387 6.61377C33.9811 6.11407 32.998 5.80645 31.9355 5.80645C28.9826 5.80645 26.5657 8.02711 26.2027 10.8828L26.0971 10.6114C25.511 9.1144 24.4946 7.89527 23.2258 7.05748V2.90323H34.8387V6.61377ZM20.3226 5.91844C19.9086 5.84969 19.4876 5.80645 19.0581 5.80645H18.6838C15.551 5.80645 12.7888 7.69185 11.6448 10.6114L11.2528 11.6129H8.70968V2.90323H20.3226V5.91844ZM10.1181 14.5161L2.90323 32.9519V14.5161H10.1181ZM49.3548 49.3548V58.0645H37.7419V49.3548H49.3548ZM52.2581 49.3548H53.0654C54.0726 51.0822 55.9247 52.2581 58.0645 52.2581C61.2669 52.2581 63.871 49.654 63.871 46.4516V23.2258C63.871 21.6246 65.173 20.3226 66.7742 20.3226C68.3754 20.3226 69.6774 21.6246 69.6774 23.2258V58.0645H52.2581V49.3548ZM72.5807 49.3548H78.3871V58.0645H72.5807V49.3548ZM78.3871 46.4516V37.7419H87.0968V46.4516H78.3871ZM81.2903 34.8387V26.129H87.0968V34.8387H81.2903ZM78.3871 23.2258V14.5161H87.0968V23.2258H78.3871ZM5.80645 2.90323V11.6129H2.90323V2.90323H5.80645ZM2.90323 58.0645V47.7076C4.19111 48.7233 5.79369 49.3548 7.55718 49.3548H14.5161V55.1613H11.6129V58.0645H2.90323ZM18.871 87.0968C16.4703 87.0968 14.5161 85.1426 14.5161 82.7419V63.871H20.3226V60.9677H14.5161V58.0645H23.2258V66.7742H17.4194V69.6774H23.2258V82.7419C23.2258 85.1426 21.2717 87.0968 18.871 87.0968ZM23.2258 55.1613V49.3548H34.8387V58.0645H26.129V55.1613H23.2258ZM81.2903 58.0645V49.3548H87.0968V58.0645H81.2903Z" fill="#2C237D"/>
</svg>
