<svg width="90" height="90" viewBox="0 0 90 90" fill="none" xmlns="http://www.w3.org/2000/svg">
<path d="M45 44.2035C36.7158 44.2035 30.0004 50.9183 30.0004 59.2031C30.0004 67.4874 36.7158 74.2033 45 74.2033C53.2842 74.2033 59.9996 67.4874 59.9996 59.2031C59.9908 50.9227 53.2804 44.2123 45 44.2035ZM45 71.2029C38.3725 71.2029 33.0002 65.8306 33.0002 59.2031C33.0002 52.5756 38.3725 47.2033 45 47.2033C51.6275 47.2033 56.9998 52.5756 56.9998 59.2031C56.9921 65.8268 51.6242 71.1958 45 71.2029Z" fill="#2C237D"/>
<path d="M44.9999 42.7028C45.8283 42.7028 46.5001 42.0315 46.5001 41.2031V39.7029C46.5001 38.8751 45.8283 38.2033 44.9999 38.2033C44.1716 38.2033 43.4998 38.8751 43.4998 39.7029V41.2031C43.4998 42.0315 44.1716 42.7028 44.9999 42.7028Z" fill="#2C237D"/>
<path d="M57.7277 44.3529L56.6669 45.4136C56.0715 45.9893 56.055 46.9391 56.6301 47.5345C57.2058 48.13 58.1556 48.1465 58.7516 47.5714C58.7637 47.5598 58.7763 47.5472 58.7878 47.5345L59.8485 46.4738C60.4242 45.8778 60.4077 44.9286 59.8117 44.3529C59.2306 43.7915 58.3088 43.7915 57.7277 44.3529Z" fill="#2C237D"/>
<path d="M64.5002 57.7024H63C62.1716 57.7024 61.5004 58.3748 61.5004 59.2031C61.5004 60.0315 62.1716 60.7033 63 60.7033H64.5002C65.328 60.7033 65.9998 60.0315 65.9998 59.2031C65.9998 58.3748 65.328 57.7024 64.5002 57.7024Z" fill="#2C237D"/>
<path d="M58.7879 70.8695C58.1924 70.2944 57.2421 70.3108 56.667 70.9068C56.1061 71.4886 56.1061 72.4098 56.667 72.991L57.7277 74.0517C58.3133 74.6373 59.263 74.6378 59.8492 74.0522C60.4353 73.4667 60.4358 72.5169 59.8503 71.9308L58.7879 70.8695Z" fill="#2C237D"/>
<path d="M44.9999 75.7029C44.1716 75.7029 43.4998 76.3748 43.4998 77.2031V78.7028C43.4998 79.5317 44.1716 80.2035 44.9999 80.2035C45.8283 80.2035 46.5001 79.5317 46.5001 78.7028V77.2031C46.5001 76.3748 45.8283 75.7029 44.9999 75.7029Z" fill="#2C237D"/>
<path d="M31.2121 70.8695L30.1514 71.9308C29.5653 72.5164 29.5647 73.4661 30.1509 74.0522C30.7364 74.6378 31.6867 74.6389 32.2723 74.0533L33.333 72.9921C33.9087 72.3966 33.8922 71.4474 33.2962 70.8717C32.7151 70.3103 31.7933 70.3103 31.2121 70.8717V70.8695Z" fill="#2C237D"/>
<path d="M27 57.7024H25.4998C24.6709 57.7024 23.9996 58.3748 23.9996 59.2031C23.9996 60.0315 24.6709 60.7033 25.4998 60.7033H27C27.8284 60.7033 28.4996 60.0315 28.4996 59.2031C28.4996 58.3748 27.8284 57.7024 27 57.7024Z" fill="#2C237D"/>
<path d="M31.2122 47.5362C31.8076 48.1113 32.7579 48.0948 33.3331 47.4994C33.8939 46.9182 33.8939 45.9959 33.3331 45.4153L32.2723 44.3551C31.6868 43.7684 30.737 43.7684 30.1509 44.3534C29.5648 44.9396 29.5642 45.8899 30.1498 46.4755L31.2122 47.5362Z" fill="#2C237D"/>
<path d="M85.5 42.7028C83.0149 42.7028 81 44.7177 81 47.2033V48.7029H68.2108C65.6483 43.0703 61.1329 38.5549 55.5002 35.9923V24.7033C55.5002 23.8744 54.8284 23.2031 54 23.2031H50.9996V14.2031H68.9996C71.4853 14.2031 73.4996 12.1882 73.4996 9.70312C73.4996 7.21802 71.4853 5.20312 68.9996 5.20312H20.9998C18.5147 5.20312 16.5004 7.21802 16.5004 9.70312C16.5004 12.1882 18.5147 14.2031 20.9998 14.2031H39.0004V23.2031H36C35.1716 23.2031 34.4998 23.8749 34.4998 24.7033V35.9923C28.8666 38.5549 24.3517 43.0703 21.7886 48.7035H9V47.2033C9 44.7182 6.98511 42.7039 4.5 42.7039C2.01489 42.7039 0 44.7177 0 47.2033V71.2029C0 73.6886 2.01489 75.7029 4.5 75.7029C6.98511 75.7029 9 73.6886 9 71.2029V69.7033H21.7892C27.5647 82.5222 42.6385 88.2323 55.4579 82.4562C61.1224 79.9041 65.6587 75.3679 68.2108 69.7033H81V71.2029C81 73.6886 83.0149 75.7029 85.5 75.7029C87.9851 75.7029 90 73.6886 90 71.2029V47.2033C90 44.7177 87.9851 42.7028 85.5 42.7028ZM19.5002 9.70312C19.5002 8.87476 20.1714 8.20294 20.9998 8.20294H68.9996C69.8286 8.20294 70.4998 8.87476 70.4998 9.70312C70.4998 10.5315 69.8286 11.2028 68.9996 11.2028H20.9998C20.1714 11.2028 19.5002 10.5315 19.5002 9.70312ZM42.0002 14.2031H47.9998V23.2031H42.0002V14.2031ZM37.4996 26.2029H52.5004V34.8327C47.6136 33.327 42.3864 33.327 37.4996 34.8327V26.2029ZM5.99963 71.2029C5.99963 72.0319 5.32837 72.7031 4.5 72.7031C3.67163 72.7031 2.99982 72.0319 2.99982 71.2029V47.2033C2.99982 46.3744 3.67163 45.7031 4.5 45.7031C5.32837 45.7031 5.99963 46.3744 5.99963 47.2033V71.2029ZM9 66.7035V51.7028H20.6296C19.1239 56.5895 19.1239 61.8162 20.6296 66.7035H9ZM45 81.7031C32.5739 81.7031 22.5 71.6292 22.5 59.2031C22.5 46.7765 32.5739 36.7031 45 36.7031C57.4261 36.7031 67.5 46.7765 67.5 59.2031C67.4863 71.6237 57.4206 81.6894 45 81.7031ZM69.3704 66.7035C70.8761 61.8162 70.8761 56.5895 69.3704 51.7028H81V66.7035H69.3704ZM87.0002 71.2029C87.0002 72.0319 86.3284 72.7031 85.5 72.7031C84.6716 72.7031 84.0004 72.0319 84.0004 71.2029V47.2033C84.0004 46.3744 84.6716 45.7031 85.5 45.7031C86.3284 45.7031 87.0002 46.3744 87.0002 47.2033V71.2029Z" fill="#2C237D"/>
</svg>
