<svg width="85" height="85" viewBox="0 0 85 85" fill="none" xmlns="http://www.w3.org/2000/svg">
<g clip-path="url(#clip0)">
<path d="M5.66663 17H8.49996V39.6667H5.66663V17Z" fill="#2C237D"/>
<path d="M57.2733 2.83333H27.7267C26.8385 1.09985 25.0566 0.00691732 23.1087 0H0V2.83333H23.1087C24.4285 2.83472 25.4986 3.90483 25.5 5.22465V80.75C25.5 81.5323 24.8657 82.1667 24.0833 82.1667C23.301 82.1667 22.6667 81.5323 22.6667 80.75V69.4167H19.8333V76.7608C19.3796 76.5927 18.9002 76.5048 18.4167 76.5H15.5833C15.0998 76.5048 14.6204 76.5927 14.1667 76.7608V48.1667H11.3333V80.75C11.3333 81.5323 10.699 82.1667 9.91667 82.1667H7.08333C6.30098 82.1667 5.66667 81.5323 5.66667 80.75V60.9167H2.83333V76.7608C2.37956 76.5927 1.90019 76.5048 1.41667 76.5H0V79.3333H1.41667C2.19902 79.3333 2.83333 79.9677 2.83333 80.75C2.83333 83.097 4.73629 85 7.08333 85H9.91667C12.2637 85 14.1667 83.097 14.1667 80.75C14.1667 79.9677 14.801 79.3333 15.5833 79.3333H18.4167C19.199 79.3333 19.8333 79.9677 19.8333 80.75C19.8333 83.097 21.7363 85 24.0833 85C26.4304 85 28.3333 83.097 28.3333 80.75V76.5H56.6667V80.75C56.6667 83.097 58.5696 85 60.9167 85C63.2637 85 65.1667 83.097 65.1667 80.75C65.1667 79.9677 65.801 79.3333 66.5833 79.3333H69.4167C70.199 79.3333 70.8333 79.9677 70.8333 80.75C70.8333 83.097 72.7363 85 75.0833 85H77.9167C80.2637 85 82.1667 83.097 82.1667 80.75C82.1667 79.9677 82.801 79.3333 83.5833 79.3333H85V76.5H83.5833C83.0998 76.5048 82.6204 76.5927 82.1667 76.7608V60.9167H79.3333V80.75C79.3333 81.5323 78.699 82.1667 77.9167 82.1667H75.0833C74.301 82.1667 73.6667 81.5323 73.6667 80.75V48.1667H70.8333V76.7608C70.3796 76.5927 69.9002 76.5048 69.4167 76.5H66.5833C66.0998 76.5048 65.6204 76.5927 65.1667 76.7608V66.5833H62.3333V80.75C62.3333 81.5323 61.699 82.1667 60.9167 82.1667C60.1343 82.1667 59.5 81.5323 59.5 80.75V5.22465C59.5007 3.90483 60.5701 2.83472 61.8899 2.83333H85V0H61.8899C59.9427 0.00760906 58.1615 1.10055 57.2733 2.83333ZM28.3333 11.3333H41.0833V41.0833H28.3333V11.3333ZM28.3333 43.9167H41.0833V73.6667H28.3333V43.9167ZM43.9167 73.6667V43.9167H56.6667V73.6667H43.9167ZM56.6667 41.0833H43.9167V11.3333H56.6667V41.0833ZM28.3333 8.5V5.66667H56.6667V8.5H28.3333Z" fill="#2C237D"/>
<path d="M76.5 17H79.3333V39.6667H76.5V17Z" fill="#2C237D"/>
</g>
<defs>
<clipPath id="clip0">
<rect width="85" height="85" fill="white"/>
</clipPath>
</defs>
</svg>
