<svg width="160" height="160" viewBox="0 0 160 160" fill="none" xmlns="http://www.w3.org/2000/svg">
<g clip-path="url(#clip0)">
<path d="M125.1 124.8C120.834 128.8 120.834 135.467 125.1 139.733C127.234 141.867 129.9 142.933 132.567 142.933C135.233 142.933 137.9 141.867 140.033 139.733C144.3 135.733 144.3 129.067 140.033 124.8C136.034 120.533 129.367 120.533 125.1 124.8ZM136.3 136.267C134.167 138.4 130.967 138.4 128.834 136.267C126.7 134.133 126.7 130.933 128.834 128.8C129.9 127.733 131.234 127.2 132.567 127.2C133.9 127.2 135.234 127.733 136.3 128.8C138.434 130.933 138.434 134.133 136.3 136.267Z" fill="#2C237D"/>
<path d="M158.167 128L110.167 80L129.1 61.0666L129.1 61.0662L140.3 49.8666L140.3 49.8663L156.567 33.6C161.1 29.0666 161.1 21.6 156.567 17.0666L142.967 3.46656C140.833 1.33344 137.9 0 134.7 0C131.5 0 128.567 1.33344 126.433 3.46656L110.167 19.7331L98.9669 30.9331L80.0334 49.8666L32.5666 2.4C29.6331 -0.533438 24.3 -0.533438 21.3666 2.4L2.43345 21.3334C-0.766553 24.2669 -0.766553 29.3334 2.43345 32.5334L8.03345 38.1334L23.2334 53.3334L38.1666 68.2666C38.1666 68.2666 38.1666 68.2666 38.1669 68.2669L49.9 80L7.09188 122.808C6.29376 123.16 5.86345 123.88 5.63345 124.8L0.0334473 156.8C0.0334473 157.867 0.30001 158.667 0.833447 159.2C1.36657 159.733 1.90001 160 2.70001 160C2.96657 160 2.96657 160 3.23345 160L33.9975 154.312C34.2103 154.369 34.44 154.4 34.7 154.4C35.5 154.4 36.3 154.133 36.5666 153.6L80.0331 110.133L83.4997 113.6C83.4997 113.6 83.4997 113.6 83.5 113.6L83.5003 113.601L90.9666 121.067C90.9666 121.067 90.9666 121.067 90.9669 121.067L90.9672 121.067L128.033 158.134C129.367 159.467 130.967 160 132.567 160C134.167 160 135.767 159.467 136.833 158.134L158.167 136.8C160.567 134.4 160.567 130.4 158.167 128ZM34.7 147.733L25.3694 138.403L114.031 49.9972L123.233 59.2L34.7 147.733ZM130.167 7.2C132.567 4.8 136.833 4.8 139.233 7.2L152.833 20.8C155.233 23.2 155.233 27.4666 152.833 29.8666L138.433 44.2666L115.767 21.6L130.167 7.2ZM112.033 25.3334L123.367 36.6669L134.7 48L127.233 55.4666L104.567 32.8L112.033 25.3334ZM51.3666 74L57.1 68.2666C58.1666 67.2 58.1666 65.6 57.1 64.5331C56.0334 63.4662 54.4334 63.4666 53.3666 64.5331L47.6331 70.2666L43.7666 66.4L53.1 57.0666C54.1666 56 54.1666 54.4 53.1 53.3331C52.0334 52.2663 50.4334 52.2666 49.3666 53.3331L40.0331 62.6666L36.2997 58.9331L41.8997 53.3331C42.9663 52.2666 42.9663 50.6666 41.8997 49.5997C40.8331 48.5328 39.2331 48.5331 38.1663 49.5997L32.5663 55.1997L28.8328 51.4663L38.1663 42.1328C39.2328 41.0662 39.2328 39.4663 38.1663 38.3994C37.0997 37.3325 35.4997 37.3328 34.4328 38.3994L25.1 47.7334L21.1 43.7334L26.7 38.1334C27.7666 37.0669 27.7666 35.4669 26.7 34.4C25.6334 33.3331 24.0334 33.3334 22.9666 34.4L17.3666 40L13.6331 36.2666L22.9666 26.9331C24.0331 25.8666 24.0331 24.2666 22.9666 23.1997C21.9 22.1328 20.3 22.1331 19.2331 23.1997L9.90001 32.5334L6.16657 28.8C5.10001 27.7334 5.10001 26.1334 6.16657 25.0666L25.1 6.13344C25.6334 5.6 26.1666 5.33344 26.9666 5.33344C27.5 5.33344 28.3 5.6 28.8331 6.13344L76.3 53.6L53.6334 76.2666L51.3666 74ZM100.833 36.8L110.164 46.1306L21.5028 134.536L12.3 125.333L100.833 36.8ZM10.1666 130.667L18.9153 139.415C19.0484 139.72 19.2425 140.009 19.5 140.267L29.1394 149.906L6.16688 153.866L10.1666 130.667ZM154.433 133.067L133.1 154.4C132.833 154.667 132.033 154.667 131.767 154.4L104.167 126.8L113.633 117.333C114.7 116.267 114.7 114.667 113.633 113.6C112.567 112.533 110.967 112.533 109.9 113.6L100.433 123.067L96.5666 119.2L102.167 113.6C103.233 112.533 103.233 110.933 102.167 109.867C101.1 108.8 99.5 108.8 98.4331 109.867L92.8331 115.467L89.0997 111.733L98.4331 102.4C99.4997 101.333 99.4997 99.7331 98.4331 98.6662C97.3666 97.5997 95.7666 97.5997 94.6997 98.6662L85.3666 108L83.7666 106.4L106.433 83.7334L154.433 131.733C154.7 132 154.7 132.8 154.433 133.067Z" fill="#2C237D"/>
</g>
<defs>
<clipPath id="clip0">
<rect width="160" height="160" fill="white"/>
</clipPath>
</defs>
</svg>
