<svg width="160" height="160" viewBox="0 0 160 160" fill="none" xmlns="http://www.w3.org/2000/svg">
<path d="M101.227 125.333C99.7539 125.333 98.5599 126.527 98.5599 128C98.5599 132.418 94.9779 136 90.5599 136C89.0872 136 87.8932 134.806 87.8932 133.333C87.8932 131.861 89.0872 130.667 90.5599 130.667C92.0326 130.667 93.2266 129.473 93.2266 128C93.2266 126.527 92.0326 125.333 90.5599 125.333C87.1875 125.354 84.1901 127.487 83.0664 130.667C82.737 129.816 82.5651 128.913 82.5599 128C82.5872 125.757 83.5547 123.629 85.2266 122.133C97.6445 119.599 106.562 108.674 106.56 96C106.06 86.5443 103.169 77.3685 98.1602 69.3333C97.3906 68.086 95.7591 67.6927 94.5065 68.4531C93.8997 68.8229 93.4661 69.4193 93.3008 70.1107C93.1354 70.8008 93.2526 71.5287 93.6263 72.1328C98.1159 79.3776 100.728 87.6263 101.227 96.1328C101.214 102.858 98.0326 109.182 92.6406 113.201C93.6719 109.887 93.3398 106.298 91.7174 103.23C90.0964 100.163 87.319 97.8672 84 96.8529C82.0664 92.6888 81.5417 88.0091 82.5065 83.5195C82.7708 82.3815 82.263 81.2031 81.2539 80.6133C80.2422 80.0261 78.9661 80.1667 78.1068 80.9597L74.6133 84.1068C67.8854 90.1771 64.7773 99.2982 66.3997 108.214L66.6927 109.867C66.7409 110.97 66.9284 112.064 67.2539 113.12C61.806 109.113 58.5807 102.762 58.5599 96C58.9857 88.1459 61.2695 80.5052 65.2266 73.707L66.6133 80.5339C66.8529 81.7188 67.8594 82.5938 69.0664 82.6667C70.2005 82.7643 71.2708 82.1328 71.7331 81.0938L79.9466 62.5873L88.1862 81.0938C88.4727 81.7409 89.0039 82.2474 89.6654 82.5026C90.3255 82.7578 91.0599 82.7396 91.707 82.4531C93.0404 81.8581 93.6458 80.3008 93.0664 78.9597L82.3997 54.9596C81.9661 53.9961 81.0039 53.3789 79.9466 53.3867C78.8984 53.3893 77.9492 54.0039 77.5195 54.9596L70.2396 71.3333L69.0664 66.3998C68.8555 65.3854 68.0755 64.5846 67.0664 64.3464C66.0729 64.1224 65.0378 64.4844 64.3997 65.28C57.7031 74.181 53.8125 84.8763 53.2266 96C53.2396 103.876 56.7344 111.344 62.7734 116.4C58.5495 118.736 55.918 123.173 55.8932 128C55.8906 128.538 55.9453 129.074 56.0534 129.6C56.7331 134.973 60.5937 139.401 65.8242 140.805C71.0547 142.21 76.6146 140.31 79.8932 136C82.0573 138.945 85.3346 140.874 88.9596 141.333C89.487 141.441 90.0221 141.496 90.5599 141.494C97.9232 141.494 103.893 135.523 103.893 128.16C103.937 127.426 103.676 126.706 103.171 126.171C102.667 125.635 101.962 125.332 101.227 125.333ZM76.7201 89.3073C76.8516 91.6472 77.2904 93.961 78.026 96.1862H76.9336C76.2083 96.3607 75.4948 96.5833 74.7995 96.8529C74.0924 97.1537 73.4141 97.5208 72.7734 97.9466L72.3203 98.2396L71.8138 98.5873C72.6393 95.1289 74.3281 91.9362 76.7201 89.3073ZM69.2266 136C68.3138 135.995 67.4102 135.823 66.5599 135.494C69.7396 134.37 71.8724 131.372 71.8932 128C71.8932 126.527 70.6992 125.333 69.2266 125.333C67.7539 125.333 66.5599 126.527 66.5599 128C66.5599 129.473 65.3659 130.667 63.8932 130.667C62.4206 130.667 61.2266 129.473 61.2266 128C61.2096 123.848 64.3724 120.374 68.5065 120C70.4596 120.934 72.5195 121.624 74.6406 122.053C77.0391 124.277 77.8424 127.738 76.668 130.793C75.4935 133.846 72.5781 135.878 69.3073 135.921L69.2266 136ZM79.8932 117.333C75.4753 117.333 71.8932 113.751 71.8932 109.333C71.8971 108.749 71.9688 108.168 72.1068 107.6C72.1393 107.445 72.1836 107.294 72.2396 107.147L72.3997 106.693C73.5234 109.872 76.5208 112.007 79.8932 112.026C81.3659 112.026 82.5599 110.833 82.5599 109.359C82.5599 107.887 81.3659 106.693 79.8932 106.693C78.4206 106.693 77.2266 105.5 77.2266 104.026C77.2266 102.553 78.4206 101.359 79.8932 101.359C80.4687 101.294 81.0508 101.294 81.6263 101.359C86.0378 101.839 89.2253 105.802 88.7461 110.214C88.2682 114.624 84.3047 117.813 79.8932 117.333Z" fill="#2C237D"/>
<path d="M151.893 138.667H141.227V26.6667C148.59 26.6667 154.56 20.6966 154.56 13.3333C154.56 11.8607 153.366 10.6667 151.893 10.6667C150.421 10.6667 149.227 11.8607 149.227 13.3333C149.227 17.7513 145.645 21.3333 141.227 21.3333H18.5599C14.6875 21.3034 11.3932 18.5039 10.737 14.6888C10.082 10.8724 12.2539 7.13411 15.8932 5.8138V13.3333C15.8932 14.806 17.0872 16 18.5599 16H82.5599C84.0326 16 85.2266 14.806 85.2266 13.3333C85.2266 11.8607 84.0326 10.6667 82.5599 10.6667H21.2266V5.33333H138.56V10.6667H103.893C102.421 10.6667 101.227 11.8607 101.227 13.3333C101.227 14.806 102.421 16 103.893 16H141.227C142.699 16 143.893 14.806 143.893 13.3333V2.66667C143.893 1.19401 142.699 0 141.227 0H18.5599C11.1966 0 5.22656 5.97005 5.22656 13.3333C5.22656 20.6966 11.1966 26.6667 18.5599 26.6667H54.9336C53.8398 27.1471 52.7461 27.6797 51.6797 28.2396C42.7331 32.9089 35.0625 39.6927 29.3333 48C27.2878 51.0156 25.5039 54.2005 24 57.5195V34.6667C24 33.194 22.806 32 21.3333 32C19.8607 32 18.6667 33.194 18.6667 34.6667V138.667H8C3.58203 138.667 0 142.249 0 146.667V152C0 156.418 3.58203 160 8 160H152C156.418 160 160 156.418 160 152V146.667C160 144.526 159.143 142.475 157.62 140.971C156.096 139.469 154.034 138.638 151.893 138.667ZM135.893 26.6667V57.7604C134.406 54.4154 132.621 51.2109 130.56 48.1862C124.87 39.9323 117.254 33.1862 108.374 28.5339C107.307 27.974 106.24 27.4401 105.12 26.9596L135.893 26.6667ZM133.227 122.667H135.893V138.667H125.227V101.333H135.893V117.333H133.227C131.754 117.333 130.56 118.527 130.56 120C130.56 121.473 131.754 122.667 133.227 122.667ZM125.227 96V82.6667C125.227 81.7604 125.227 80.8802 125.094 80H135.76C135.76 80.8802 135.893 81.7604 135.893 82.6667V96H125.227ZM127.333 53.013C131.49 59.5898 134.216 66.9675 135.333 74.6667H124.667C123.63 68.862 121.465 63.3177 118.293 58.3464L127.333 53.013ZM114.987 54C111.508 49.7279 107.289 46.1146 102.534 43.3333L107.867 34.1068C114.221 37.7995 119.793 42.7005 124.267 48.5339L114.987 54ZM82.5599 26.8529C89.6667 27.1823 96.6458 28.8659 103.12 31.8138L97.7865 41.0664C92.9544 39.0117 87.8021 37.8112 82.5599 37.5195V26.8529ZM77.2266 26.8529V37.5195C71.9922 37.8099 66.849 39.0104 62.026 41.0664L56.6927 31.8138C63.1602 28.8685 70.1289 27.1849 77.2266 26.8529ZM51.9206 34.2669L57.2539 43.4935C52.5 46.2682 48.2904 49.8828 44.8268 54.1602L35.5195 48.8268C39.987 42.9518 45.5573 38.0052 51.9206 34.2669ZM32.4805 52.9336L41.707 58.2669C38.5169 63.2604 36.3424 68.8333 35.3073 74.6667H24.6406C25.7318 67.0026 28.401 59.6471 32.4805 53.0664V52.9336ZM34.6927 80V82.6667V117.333H24.026V101.333H26.6927C28.1667 101.333 29.3594 100.139 29.3594 98.6667C29.3594 97.194 28.1667 96 26.6927 96H24.026V82.6667C24.026 81.7604 24.026 80.8802 24.026 80H34.6927ZM24.026 122.667H34.6927V138.667H24.026V122.667ZM154.693 152C154.693 153.473 153.5 154.667 152.026 154.667H8.02604C6.55339 154.667 5.35938 153.473 5.35938 152V146.667C5.35938 145.194 6.55339 144 8.02604 144H50.6927C52.1667 144 53.3594 142.806 53.3594 141.333C53.3594 139.861 52.1667 138.667 50.6927 138.667H40.026V82.6667C40.026 60.5755 57.9349 42.6667 80.026 42.6667C102.118 42.6667 120.026 60.5755 120.026 82.6667V138.667H109.359C107.887 138.667 106.693 139.861 106.693 141.333C106.693 142.806 107.887 144 109.359 144H152.026C153.5 144 154.693 145.194 154.693 146.667V152Z" fill="#2C237D"/>
</svg>
