<svg width="160" height="160" viewBox="0 0 160 160" fill="none" xmlns="http://www.w3.org/2000/svg">
<path d="M32 56H37.3333V64H32V56Z" fill="#2C237D"/>
<path d="M32 80H37.3333V93.3333H32V80Z" fill="#2C237D"/>
<path d="M58.6667 122.667H93.3333V128H58.6667V122.667Z" fill="#2C237D"/>
<path d="M151.112 69.3334H112.888C107.982 69.3399 104.007 73.3151 104 78.2214V89.7787C104.005 93.3086 106.099 96.5 109.333 97.9115V101.333H66.6667V96H61.3333V101.333H58.6667V87.5417C58.6693 86.8347 58.9505 86.1576 59.4479 85.6563C60.5013 84.6446 62.1654 84.6446 63.2188 85.6563L64.7812 87.2188L68.5521 83.4479L66.9922 81.8854C63.8255 78.8633 58.8438 78.8633 55.6771 81.8854C54.1719 83.3815 53.3268 85.418 53.3333 87.5417V101.333H48V34.6667H0V160H160V101.333H154.667V97.9115C157.901 96.5 159.995 93.3086 160 89.7787V78.2214C159.993 73.3151 156.018 69.3399 151.112 69.3334ZM109.333 78.2214C109.336 76.2591 110.926 74.6693 112.888 74.6667H138.667V93.3334H112.888C110.926 93.3307 109.336 91.7409 109.333 89.7787V78.2214ZM104 106.667V112H48V106.667H104ZM42.6667 40V69.3334H5.33333V40H42.6667ZM42.6667 154.667H5.33333V74.6667H42.6667V154.667ZM58.6667 154.667V149.333H93.3333V154.667H58.6667ZM93.3333 144H58.6667V138.667H93.3333V144ZM53.3333 133.333V154.667H48V117.333H104V154.667H98.6667V133.333H53.3333ZM122.667 154.667V117.333H141.333V154.667H122.667ZM154.667 154.667H146.667V112H117.333V154.667H109.333V106.667H154.667V154.667ZM114.667 101.333V98.6667H149.333V101.333H114.667ZM154.667 89.7787C154.664 91.7409 153.074 93.3307 151.112 93.3334H144V74.6667H151.112C153.074 74.6693 154.664 76.2591 154.667 78.2214V89.7787Z" fill="#2C237D"/>
<path d="M130.667 80H136V88H130.667V80Z" fill="#2C237D"/>
<path d="M56 48H109.333V42.6667H105.184C106.143 41.0521 106.656 39.2109 106.667 37.3333C106.667 31.4427 101.891 26.6667 96 26.6667C93.5677 26.6758 91.2135 27.5234 89.3333 29.0664C85.4648 25.8659 79.8685 25.8659 76 29.0664C72.0208 25.8073 66.2773 25.8724 62.3737 29.2213C58.4701 32.5716 57.5326 38.2383 60.1497 42.6667H56V48ZM96 32C98.9453 32 101.333 34.388 101.333 37.3333C101.333 40.2786 98.9453 42.6667 96 42.6667C93.0547 42.6667 90.6667 40.2786 90.6667 37.3333C90.6667 34.388 93.0547 32 96 32ZM82.6667 32C83.9427 32.0078 85.1732 32.4753 86.1328 33.3177C85.0703 35.8893 85.0703 38.7773 86.1328 41.349C84.3451 42.9115 81.7396 43.1042 79.7409 41.8203C77.7435 40.5365 76.8346 38.0859 77.513 35.8099C78.1914 33.5338 80.2917 31.9805 82.6667 32ZM64 37.3333C63.987 35.2448 65.2005 33.3437 67.1003 32.4779C69 31.6107 71.2318 31.9388 72.7995 33.3177C71.737 35.8893 71.737 38.7773 72.7995 41.349C71.2318 42.7279 69 43.056 67.1003 42.1888C65.2005 41.3229 63.987 39.4219 64 37.3333Z" fill="#2C237D"/>
<path d="M128 122.667H136V128H128V122.667Z" fill="#2C237D"/>
<path d="M114.667 6V20.6667C114.68 32.8112 124.522 42.6536 136.667 42.6667H160V0H120.667C117.354 0.00390627 114.671 2.6875 114.667 6ZM154.667 37.3333H136.667C127.466 37.3229 120.01 29.8672 120 20.6667V6C120 5.63151 120.298 5.33333 120.667 5.33333H154.667V37.3333Z" fill="#2C237D"/>
<path d="M125.333 10.6667H130.667V24H125.333V10.6667Z" fill="#2C237D"/>
</svg>
