<svg width="160" height="160" viewBox="0 0 160 160" fill="none" xmlns="http://www.w3.org/2000/svg">
<g clip-path="url(#clip0)">
<path d="M139.355 74.8387H114.11C118.635 68.217 121.29 60.2193 121.29 51.6129C121.29 45.6363 119.987 39.966 117.69 34.8337C124.413 32.127 129.032 25.5015 129.032 18.0645C129.032 8.10358 120.926 0 110.968 0C102.94 0 96.0106 5.28226 93.7135 12.7117C89.4141 11.192 84.8135 10.3226 80 10.3226C75.1865 10.3226 70.5859 11.192 66.2865 12.7117C63.9894 5.28226 57.0602 0 49.0323 0C39.0738 0 30.9677 8.10358 30.9677 18.0645C30.9677 25.5179 35.5847 32.1245 42.3123 34.8286C40.0151 39.9635 38.7097 45.6338 38.7097 51.6129C38.7097 60.2193 41.3647 68.217 45.8896 74.8387H20.6452C13.5308 74.8387 7.74194 80.6275 7.74194 87.7419C7.74194 94.8563 13.5308 100.645 20.6452 100.645H32.0565C31.3344 104.023 30.9677 107.481 30.9677 110.968C30.9677 119.409 33.1174 127.589 37.1951 134.87C28.9957 136.57 23.2258 141.329 23.2258 147.097C23.2258 154.333 32.2946 160 43.871 160C50.2319 160 55.8266 158.281 59.5842 155.538C66.0005 158.488 72.8566 160 80 160C87.1434 160 93.997 158.488 100.416 155.538C104.173 158.281 109.768 160 116.129 160C127.705 160 136.774 154.333 136.774 147.097C136.774 141.329 131.007 136.57 122.805 134.87C126.883 127.589 129.032 119.409 129.032 110.968C129.032 107.479 128.666 104.021 127.944 100.645H139.355C146.469 100.645 152.258 94.8563 152.258 87.7419C152.258 80.6275 146.469 74.8387 139.355 74.8387ZM111.381 24.8488C109.19 22.2833 106.689 20.0025 103.94 18.0355C104.849 16.4982 106.523 15.4839 108.387 15.4839C111.234 15.4839 113.548 17.7986 113.548 20.6452C113.548 22.3589 112.718 23.9025 111.381 24.8488ZM110.968 5.16129C118.082 5.16129 123.871 10.9501 123.871 18.0645C123.871 23.566 120.318 28.4123 115.238 30.2041C114.989 29.7933 114.753 29.3725 114.491 28.973C117.097 27.0716 118.71 24.0209 118.71 20.6452C118.71 14.9521 114.08 10.3226 108.387 10.3226C104.723 10.3226 101.414 12.2757 99.5766 15.2697C99.2389 15.0869 98.8773 14.9395 98.5345 14.7669C100.005 9.19481 105.05 5.16129 110.968 5.16129ZM48.6164 24.8488C47.2795 23.9025 46.4516 22.3589 46.4516 20.6452C46.4516 17.7986 48.7664 15.4839 51.6129 15.4839C53.469 15.4839 55.1437 16.5008 56.0547 18.0393C53.309 20.005 50.8077 22.287 48.6164 24.8488ZM36.129 18.0645C36.129 10.9501 41.9179 5.16129 49.0323 5.16129C54.9496 5.16129 59.995 9.19481 61.4655 14.7694C61.1177 14.9446 60.7535 15.092 60.4133 15.2772C58.5698 12.2833 55.2596 10.3226 51.6129 10.3226C45.9199 10.3226 41.2903 14.9521 41.2903 20.6452C41.2903 24.0209 42.9032 27.0741 45.5091 28.973C45.247 29.375 45.0088 29.7959 44.7593 30.2067C39.6774 28.4186 36.129 23.5799 36.129 18.0645ZM80 15.4839C99.9231 15.4839 116.129 31.6898 116.129 51.6129C116.129 71.536 99.9231 87.7419 80 87.7419C60.0769 87.7419 43.871 71.536 43.871 51.6129C43.871 31.6898 60.0769 15.4839 80 15.4839ZM12.9032 87.7419C12.9032 83.474 16.3773 80 20.6452 80H23.2258V95.4839H20.6452C16.3773 95.4839 12.9032 92.0098 12.9032 87.7419ZM43.871 139.355C50.8619 139.355 56.2147 141.75 58.343 144.516H29.3989C31.5272 141.75 36.88 139.355 43.871 139.355ZM43.871 154.839C36.88 154.839 31.5272 152.443 29.3989 149.677H58.343C56.2147 152.443 50.8619 154.839 43.871 154.839ZM116.129 154.839C109.138 154.839 103.785 152.443 101.657 149.677H130.601C128.473 152.443 123.12 154.839 116.129 154.839ZM130.601 144.516H101.657C103.785 141.75 109.141 139.355 116.129 139.355C123.117 139.355 128.473 141.75 130.601 144.516ZM124.637 95.4839C123.827 95.4839 123.063 95.8657 122.576 96.5134C122.088 97.161 121.933 98.0003 122.157 98.779C123.293 102.721 123.871 106.821 123.871 110.968C123.871 119.257 121.541 127.259 117.171 134.225C116.823 134.214 116.483 134.194 116.129 134.194C104.553 134.194 95.4839 139.86 95.4839 147.097C95.4839 148.645 95.9224 150.116 96.6885 151.482C91.4037 153.667 85.8165 154.839 80 154.839C74.181 154.839 68.5963 153.667 63.3115 151.482C64.0801 150.116 64.5161 148.645 64.5161 147.097C64.5161 139.86 55.4473 134.194 43.871 134.194C43.5169 134.194 43.1767 134.214 42.8289 134.225C38.4589 127.259 36.129 119.259 36.129 110.968C36.129 106.818 36.7074 102.718 37.8453 98.7815C38.0696 98.0028 37.9146 97.1636 37.4269 96.5134C36.9393 95.8657 36.1782 95.4839 35.3654 95.4839H28.3871V80H50.0933C57.621 87.9272 68.2296 92.9032 80 92.9032C91.7704 92.9032 102.377 87.9272 109.907 80H131.613V95.4839H124.637ZM139.355 95.4839H136.774V80H139.355C143.623 80 147.097 83.474 147.097 87.7419C147.097 92.0098 143.623 95.4839 139.355 95.4839Z" fill="#2C237D"/>
<path d="M95.4838 105.806H64.5161C63.0884 105.806 61.9354 106.963 61.9354 108.387C61.9354 121.192 70.0415 131.613 79.9999 131.613C89.9583 131.613 98.0644 121.192 98.0644 108.387C98.0644 106.963 96.9115 105.806 95.4838 105.806ZM79.9999 126.452C73.5093 126.452 68.1237 119.711 67.2278 110.968H92.7721C91.8762 119.711 86.4906 126.452 79.9999 126.452Z" fill="#2C237D"/>
<path d="M70.354 54.0386C65.1511 56.8624 61.9354 61.7654 61.9354 67.0968C61.9354 75.6364 70.0415 82.5807 79.9999 82.5807C89.9583 82.5807 98.0644 75.6364 98.0644 67.0968C98.0644 61.7629 94.8487 56.8599 89.6458 54.0361C88.198 51.0913 84.4934 49.0323 79.9999 49.0323C75.5065 49.0323 71.8019 51.0913 70.354 54.0386ZM82.5806 77.2102V72.2581H77.4193V77.2102C71.5385 76.25 67.0967 72.0829 67.0967 67.0968C67.0967 64.4519 68.4072 61.933 70.6325 60.0366C72.2479 62.6966 75.7774 64.5162 79.9999 64.5162C84.2225 64.5162 87.7519 62.6966 89.3674 60.0341C91.5952 61.9305 92.9032 64.4519 92.9032 67.0968C92.9032 72.0829 88.4614 76.25 82.5806 77.2102ZM79.9999 54.1936C83.1514 54.1936 85.1612 55.7208 85.1612 56.7742C85.1612 57.8277 83.1514 59.3549 79.9999 59.3549C76.8485 59.3549 74.8386 57.8277 74.8386 56.7742C74.8386 55.7208 76.8485 54.1936 79.9999 54.1936Z" fill="#2C237D"/>
<path d="M67.0967 41.2903C71.3646 41.2903 74.8386 37.8162 74.8386 33.5483C74.8386 29.2804 71.3646 25.8064 67.0967 25.8064C62.8288 25.8064 59.3547 29.2804 59.3547 33.5483C59.3547 37.8162 62.8288 41.2903 67.0967 41.2903ZM67.0967 30.9677C68.5206 30.9677 69.6773 32.127 69.6773 33.5483C69.6773 34.9697 68.5206 36.129 67.0967 36.129C65.6728 36.129 64.516 34.9697 64.516 33.5483C64.516 32.127 65.6728 30.9677 67.0967 30.9677Z" fill="#2C237D"/>
<path d="M92.9032 41.2903C97.1711 41.2903 100.645 37.8162 100.645 33.5483C100.645 29.2804 97.1711 25.8064 92.9032 25.8064C88.6353 25.8064 85.1613 29.2804 85.1613 33.5483C85.1613 37.8162 88.6353 41.2903 92.9032 41.2903ZM92.9032 30.9677C94.3271 30.9677 95.4838 32.127 95.4838 33.5483C95.4838 34.9697 94.3271 36.129 92.9032 36.129C91.4793 36.129 90.3225 34.9697 90.3225 33.5483C90.3225 32.127 91.4793 30.9677 92.9032 30.9677Z" fill="#2C237D"/>
</g>
<defs>
<clipPath id="clip0">
<rect width="160" height="160" fill="white"/>
</clipPath>
</defs>
</svg>
