<svg width="60" height="60" viewBox="0 0 60 60" fill="none" xmlns="http://www.w3.org/2000/svg">
<g clip-path="url(#clip0)">
<path d="M50.7682 38.8206C51.9493 37.3201 53.1705 35.7688 53.1813 33.5766C53.1924 31.3043 52.0235 29.3947 50.8932 27.548C50.317 26.6067 49.7726 25.7177 49.3769 24.7877C48.6414 23.06 48.3666 20.9903 48.5603 18.6366C48.6449 17.6086 48.8876 16.5364 49.1446 15.4011C49.7406 12.7682 50.4161 9.7839 48.9003 7.08776C48.0703 5.61131 46.614 4.50482 44.9045 4.05154C43.425 3.65931 41.8687 3.78693 40.5373 4.39455C35.6739 0.0923531 28.1558 -1.22249 22.0125 1.21548C18.3561 2.6665 15.2192 5.43436 13.1798 9.00917C12.9394 9.43081 13.0861 9.96753 13.5077 10.2081C13.9292 10.4486 14.4661 10.3019 14.7067 9.88023C16.5491 6.65065 19.374 4.15361 22.6609 2.8492C28.3861 0.577159 35.4294 1.91122 39.7885 6.09354C40.0745 6.36799 40.5091 6.41698 40.8491 6.21307C41.8914 5.58787 43.2053 5.41912 44.4543 5.7503C45.7075 6.08252 46.7695 6.88385 47.3682 7.94874C48.5525 10.0553 48.0074 12.4633 47.4303 15.0127C47.1712 16.1574 46.9032 17.341 46.8085 18.4921C46.5911 21.1332 46.911 23.4828 47.7595 25.4759C48.206 26.5249 48.8099 27.5115 49.3939 28.4656C50.4421 30.178 51.4323 31.7955 51.4235 33.5679C51.4157 35.156 50.4302 36.4079 49.387 37.7333C48.4659 38.9034 47.5136 40.1133 47.1113 41.6647C46.7817 42.9363 46.9341 44.1625 47.0817 45.3485C47.208 46.3638 47.3273 47.3227 47.1235 48.2088C47.0224 48.6491 46.8462 49.0853 46.6001 49.5053C46.3547 49.924 46.4953 50.4625 46.9141 50.708C47.0536 50.7898 47.2067 50.8288 47.3576 50.8288C47.6594 50.8288 47.9532 50.6732 48.1168 50.3941C48.4533 49.8199 48.6954 49.2172 48.8368 48.6029C49.1101 47.4141 48.9657 46.2539 48.8261 45.1317C48.6931 44.0625 48.5675 43.0528 48.8129 42.1062C49.1226 40.9111 49.9219 39.8956 50.7682 38.8206Z" fill="#EF760D"/>
<path d="M42.5874 21.7959C42.4021 21.7959 42.2182 21.8072 42.0358 21.8275V20.2097C42.0358 19.7052 41.6939 19.2627 41.2044 19.1336C38.3412 18.3781 37.1488 16.1963 36.6574 14.3605C37.3585 13.3112 37.9445 12.0766 38.4578 10.604C38.6176 10.1457 38.3755 9.64444 37.9172 9.48471C37.459 9.32522 36.9578 9.56698 36.7979 10.0253C36.2951 11.4675 35.7311 12.6362 35.0448 13.6039C35.0119 13.6418 34.9821 13.6821 34.9562 13.7252C33.968 15.0733 32.7293 16.0234 31.0643 16.7794C30.6224 16.9802 30.4268 17.5012 30.6274 17.9431C30.7746 18.2672 31.0941 18.4588 31.4282 18.4588C31.5497 18.4588 31.6732 18.4335 31.7911 18.38C33.2065 17.7372 34.3682 16.9611 35.3444 15.9759C36.2753 18.304 37.98 19.9433 40.278 20.6926V22.9321V30.6846C40.278 31.1067 40.1967 31.555 40.0365 32.0175C39.8776 32.4761 40.1206 32.9768 40.5792 33.1357C40.6745 33.1687 40.7715 33.1844 40.8671 33.1844C41.231 33.1844 41.5716 32.9564 41.6974 32.5931C41.7564 32.4229 41.8073 32.2534 41.8508 32.0844C42.0941 32.1211 42.34 32.1405 42.5874 32.1405C42.9331 32.1405 43.2708 32.1048 43.5973 32.037L43.4495 32.5162C43.0371 33.8514 41.8219 34.7484 40.4255 34.7484H39.0381C38.6796 33.7821 37.7485 33.0916 36.6591 33.0916H34.232C32.8334 33.0916 31.6955 34.2296 31.6955 35.6283C31.6955 36.7953 32.4879 37.7801 33.5626 38.0745C33.5221 38.092 33.4815 38.1108 33.4411 38.1277C32.5456 38.504 31.6726 38.7494 30.8701 38.8562C30.57 38.8961 30.2789 38.9182 30.0013 38.9182C29.6912 38.9182 29.364 38.8899 29.0263 38.8403C28.2529 38.7265 27.4178 38.4877 26.5612 38.1277C23.1915 36.7129 20.3013 33.8438 19.8043 31.4314C19.7697 30.0213 19.8442 28.6386 20.0979 27.3376C20.8623 23.4176 23.1835 20.9926 27.1944 19.9234C27.6173 19.8107 27.9986 19.7051 28.3597 19.6008C28.826 19.4661 29.0947 18.9787 28.96 18.5124C28.8252 18.0461 28.338 17.7772 27.8715 17.912C27.5223 18.0129 27.1528 18.1154 26.7417 18.2248C22.0817 19.4669 19.2661 22.4195 18.3728 27.0009C17.6249 30.8366 18.2811 35.1368 18.8601 38.9308C18.9064 39.2335 18.9519 39.5322 18.9961 39.8261C19.0616 40.262 19.4365 40.5746 19.8642 40.5746C19.9076 40.5746 19.9516 40.5715 19.9958 40.5648C20.4758 40.4927 20.8065 40.0451 20.7344 39.5651C20.6901 39.2699 20.6443 38.9699 20.5979 38.6656C20.4492 37.6912 20.2955 36.682 20.1626 35.6588C20.3881 35.9178 20.6285 36.1746 20.8863 36.4281C22.1481 37.6684 23.7132 38.7472 25.3425 39.508V40.3608L21.1642 41.8604C21.1628 41.8609 21.1614 41.8616 21.1599 41.8622L19.7771 42.3586C16.6672 43.475 14.5777 46.4451 14.5777 49.7494V52.195C14.3224 52.0872 14.0892 51.9611 13.8778 51.813C12.7202 51.0035 12.1844 49.3121 12.6581 47.9616C12.8079 47.5334 13.0491 47.1162 13.3046 46.6745C13.4827 46.3666 13.6668 46.0482 13.8299 45.7085C14.667 43.968 14.7802 42.0254 14.157 40.091C13.6293 38.4529 12.5973 36.8564 11.1724 35.4744L11.0367 35.343C9.96231 34.3031 8.94758 33.3209 8.66644 31.9964C8.26765 30.1139 9.30219 28.1285 10.396 26.2562L10.4137 26.2258C11.2875 24.7292 12.2776 23.0328 12.5151 21.1318C12.6302 20.2117 12.6246 19.2885 12.6192 18.3953C12.6143 17.6038 12.6098 16.8563 12.6829 16.1185C12.7883 15.0558 13.015 13.9816 13.357 12.9252C13.5065 12.4634 13.2534 11.9679 12.7916 11.8184C12.33 11.669 11.8341 11.922 11.6847 12.3838C11.3041 13.5595 11.0514 14.7576 10.9338 15.945C10.8515 16.7747 10.8566 17.604 10.8615 18.4059C10.8669 19.281 10.8719 20.1074 10.7711 20.9135C10.5782 22.4573 9.72289 23.9226 8.89578 25.3395L8.87832 25.3695C7.61105 27.5383 6.4182 29.8647 6.94707 32.3608C7.33964 34.2105 8.65426 35.4832 9.8143 36.6059L9.94871 36.7361C13.9009 40.5696 12.7061 43.9898 12.2456 44.9473C12.1114 45.2266 11.9519 45.5025 11.7831 45.7944C11.4981 46.2872 11.2033 46.7967 10.9992 47.3803C10.2662 49.4699 11.0707 51.9947 12.8703 53.2533C13.37 53.6029 13.9334 53.8684 14.5776 54.0584V58.4182C14.5776 59.2906 15.2873 60.0001 16.1595 60.0001H43.8427C44.715 60.0001 45.4247 59.2905 45.4247 58.4182V49.7491C45.4247 46.4449 43.3353 43.4748 40.2253 42.3583L38.8421 41.8618C38.8408 41.8613 38.8396 41.8608 38.8383 41.8603L34.6602 40.3606V39.5073C35.4735 39.1269 36.2829 38.6602 37.0387 38.1361C37.9615 37.9968 38.7229 37.3586 39.0385 36.506H40.4251C42.5972 36.506 44.4875 35.111 45.1287 33.0343L45.756 30.9996C46.912 30.0508 47.6536 28.5966 47.6536 26.9682C47.6541 24.1162 45.3812 21.7959 42.5874 21.7959ZM20.225 44.0683C20.2734 44.0496 20.3216 44.0304 20.3707 44.0128L20.9285 43.8125C21.9839 46.1873 24.5933 47.9753 27.7602 48.5577C26.1689 49.8427 24.2239 50.2291 22.648 49.4713C20.8666 48.6146 19.9249 46.4785 20.225 44.0683ZM41.5874 45.1679C42.88 46.3041 43.6668 47.9634 43.6668 49.7491V58.2424H16.3353V53.3602C16.3353 53.36 16.3353 53.3598 16.3353 53.3596V49.7491C16.3353 47.9634 17.1222 46.3039 18.4147 45.1679C18.4833 47.7869 19.7619 50.0337 21.886 51.0554C22.6707 51.4329 23.5141 51.6144 24.3707 51.6144C26.3707 51.6144 28.4418 50.6238 30.0011 48.8257C31.5605 50.6239 33.6312 51.6147 35.6315 51.6144C36.4879 51.6143 37.3315 51.4328 38.1161 51.0554C40.2403 50.0337 41.5189 47.7868 41.5874 45.1679ZM39.0737 43.8125L39.6314 44.0127C39.6804 44.0304 39.7287 44.0496 39.7771 44.0683C40.0774 46.4787 39.1355 48.6145 37.3544 49.4713C35.7782 50.2291 33.8334 49.8425 32.2422 48.5577C35.4089 47.9753 38.0183 46.1875 39.0737 43.8125ZM37.3276 43.1857C37.3288 43.1862 37.33 43.1867 37.3312 43.1871L37.4165 43.2177C36.3614 45.4516 33.3977 47.0045 30.0011 47.0045C26.6044 47.0045 23.6406 45.4515 22.5858 43.2174L26.5178 41.806C26.8669 41.6808 27.0997 41.3497 27.0997 40.9788V40.1938C27.1144 40.1983 27.1288 40.2021 27.1434 40.2065C27.2501 40.2392 27.3564 40.2708 27.4622 40.3002C27.4693 40.3022 27.4766 40.3044 27.4837 40.3064C27.5955 40.3372 27.7068 40.3656 27.8176 40.3926C27.8477 40.4 27.8777 40.407 27.9077 40.4141C27.9991 40.4356 28.0902 40.4558 28.1808 40.4748C28.2026 40.4794 28.2244 40.4843 28.2462 40.4886C28.3546 40.5105 28.4624 40.5303 28.5694 40.5484C28.5955 40.5528 28.6215 40.5567 28.6477 40.5609C28.7343 40.5749 28.8203 40.5875 28.9059 40.5989C28.9327 40.6025 28.9595 40.6063 28.9862 40.6095C29.0914 40.6227 29.1961 40.634 29.2996 40.6432C29.3175 40.6447 29.3351 40.6458 29.353 40.6473C29.441 40.6545 29.5283 40.6602 29.6149 40.6646C29.6427 40.666 29.6705 40.6674 29.6981 40.6685C29.8002 40.6726 29.9016 40.6754 30.0014 40.6754C30.1013 40.6754 30.2027 40.6726 30.3047 40.6685C30.3323 40.6674 30.3601 40.666 30.3879 40.6646C30.4745 40.6603 30.5618 40.6545 30.6498 40.6473C30.6676 40.6458 30.6853 40.6448 30.7032 40.6432C30.8068 40.634 30.9114 40.6226 31.0166 40.6095C31.0432 40.6063 31.07 40.6025 31.0966 40.5989C31.1824 40.5875 31.2686 40.5749 31.3554 40.5609C31.3813 40.5567 31.4071 40.5528 31.4331 40.5485C31.5403 40.5303 31.6481 40.5105 31.7568 40.4886C31.7781 40.4843 31.7995 40.4795 31.8209 40.475C31.912 40.456 32.0036 40.4356 32.0956 40.414C32.1252 40.4069 32.1547 40.4001 32.1845 40.3929C32.2956 40.3658 32.4072 40.3373 32.5193 40.3064C32.5255 40.3046 32.5318 40.3028 32.5381 40.301C32.6449 40.2713 32.7524 40.2395 32.8602 40.2064C32.8745 40.2021 32.8886 40.1983 32.9029 40.1939V40.9789C32.9029 41.3498 33.1357 41.6809 33.4848 41.8062L37.3276 43.1857ZM36.7038 36.4045C36.7004 36.4046 36.697 36.4049 36.6935 36.4051C36.6819 36.4056 36.6706 36.4068 36.6588 36.4068H34.2318C33.8023 36.4068 33.4529 36.0575 33.4529 35.628C33.4529 35.1985 33.8024 34.849 34.2319 34.849H36.659C37.0885 34.849 37.4378 35.1984 37.4378 35.6279C37.4378 36.0423 37.1124 36.3811 36.7038 36.4045ZM42.5874 30.3825C42.402 30.3825 42.2178 30.3663 42.0358 30.3343V23.6007C42.2169 23.5693 42.4013 23.5536 42.5874 23.5536C44.4119 23.5536 45.8964 25.0852 45.8964 26.9681C45.8964 28.8508 44.412 30.3825 42.5874 30.3825Z" fill="#EF760D"/>
<path d="M33.72 30.006C33.3824 29.6575 32.8259 29.6486 32.4773 29.9866C31.1039 31.3174 28.9526 31.3174 27.5794 29.9866C27.2308 29.6487 26.6742 29.6574 26.3365 30.006C25.9987 30.3546 26.0074 30.9111 26.3561 31.2488C27.3857 32.2467 28.707 32.7454 30.0283 32.7454C31.3496 32.7454 32.6708 32.2465 33.7005 31.2488C34.0491 30.9111 34.0578 30.3546 33.72 30.006Z" fill="#EF760D"/>
<path d="M38.2915 23.9964C37.8035 23.4345 37.1172 23.1122 36.4088 23.1122C35.7003 23.1122 35.0142 23.4345 34.5263 23.9964C34.208 24.3629 34.2472 24.9181 34.6138 25.2364C34.9802 25.5543 35.5354 25.5152 35.8536 25.1488C36.0098 24.969 36.207 24.8701 36.409 24.8699C36.611 24.8699 36.8083 24.969 36.9645 25.1488C37.1383 25.349 37.3827 25.4515 37.6285 25.4515C37.8328 25.4515 38.0381 25.3808 38.2044 25.2363C38.5706 24.918 38.6097 24.3629 38.2915 23.9964Z" fill="#EF760D"/>
<path d="M25.4759 23.9962C24.9879 23.4345 24.3017 23.1122 23.5933 23.1121C22.8848 23.1121 22.1985 23.4344 21.7107 23.9963C21.3924 24.3627 21.4315 24.9179 21.798 25.2361C21.9643 25.3806 22.1696 25.4514 22.3738 25.4514C22.6196 25.4514 22.864 25.3489 23.0378 25.1487C23.194 24.9688 23.3914 24.8698 23.5934 24.8698C23.7954 24.8698 23.9927 24.9688 24.1488 25.1487C24.467 25.5152 25.0222 25.5543 25.3887 25.2361C25.7553 24.918 25.7941 24.3627 25.4759 23.9962Z" fill="#EF760D"/>
</g>
<defs>
<clipPath id="clip0">
<rect width="60" height="60" fill="white"/>
</clipPath>
</defs>
</svg>
