<svg width="60" height="60" viewBox="0 0 60 60" fill="none" xmlns="http://www.w3.org/2000/svg">
<path d="M16.7449 43.5173C17.2321 43.5173 17.6271 43.1224 17.6271 42.6351C17.6271 42.1479 17.2321 41.753 16.7449 41.753C16.2577 41.753 15.8627 42.1479 15.8627 42.6351C15.8627 43.1224 16.2577 43.5173 16.7449 43.5173Z" fill="#C8C8C8"/>
<path d="M25.3218 43.5171C25.8089 43.5171 26.2038 43.1222 26.2038 42.6352C26.2038 42.1481 25.8089 41.7532 25.3218 41.7532C24.8347 41.7532 24.4399 42.1481 24.4399 42.6352C24.4399 43.1222 24.8347 43.5171 25.3218 43.5171Z" fill="#C8C8C8"/>
<path d="M15.7587 20.6394C15.2733 20.6394 14.8798 21.0328 14.8798 21.5183V23.6639C14.8798 24.1494 15.2733 24.5428 15.7587 24.5428C16.2441 24.5428 16.6376 24.1493 16.6376 23.6639V21.5183C16.6376 21.0328 16.2441 20.6394 15.7587 20.6394Z" fill="#C8C8C8"/>
<path d="M26.3083 20.6394C25.823 20.6394 25.4294 21.0328 25.4294 21.5183V23.6639C25.4294 24.1493 25.823 24.5428 26.3083 24.5428C26.7937 24.5428 27.1873 24.1494 27.1873 23.6639V21.5183C27.1873 21.0328 26.7937 20.6394 26.3083 20.6394Z" fill="#C8C8C8"/>
<path d="M22.0169 25.911H20.9288V21.7842C20.9288 21.2987 20.5353 20.9053 20.0499 20.9053C19.5645 20.9053 19.171 21.2987 19.171 21.7842V26.2039C19.171 27.0117 19.8282 27.6688 20.6359 27.6688H22.0169C22.5023 27.6688 22.8958 27.2754 22.8958 26.7899C22.8958 26.3044 22.5023 25.911 22.0169 25.911Z" fill="#C8C8C8"/>
<path d="M24.878 28.8912C24.3926 28.8912 23.9991 29.2846 23.9991 29.7701C23.9991 30.2713 23.5912 30.6791 23.0898 30.6791H18.9774C18.4759 30.6791 18.068 30.2714 18.068 29.7701C18.068 29.2846 17.6745 28.8912 17.1891 28.8912C16.7037 28.8912 16.3102 29.2846 16.3102 29.7701C16.3102 31.2406 17.5067 32.4369 18.9774 32.4369H23.0898C24.5604 32.4369 25.7569 31.2406 25.7569 29.7701C25.7569 29.2846 25.3634 28.8912 24.878 28.8912Z" fill="#C8C8C8"/>
<path d="M59.0705 44.7576C57.8036 44.2015 57.0472 43.2786 57.0472 42.2891C57.0472 41.2994 57.8036 40.3765 59.0704 39.8203C59.6351 39.5725 60 39.0137 60 38.3969C60 38.2396 59.9761 38.0836 59.9291 37.933C59.6723 37.112 59.3392 36.3087 58.939 35.545C58.6696 35.0313 58.142 34.7122 57.5619 34.7122C57.3684 34.7122 57.1785 34.748 56.9978 34.8184C56.4737 35.0225 55.9656 35.1261 55.4878 35.1261C54.8053 35.1261 54.2291 34.9106 53.8215 34.5035C53.4141 34.0958 53.1987 33.5192 53.1986 32.836C53.1986 32.3532 53.3012 31.846 53.5036 31.3291C53.5747 31.1476 53.6109 30.9569 53.6109 30.7624C53.6109 30.1822 53.2916 29.6544 52.7777 29.3852C52.015 28.9856 51.2118 28.6528 50.3913 28.3964C50.2405 28.3492 50.0841 28.3251 49.9266 28.3251C49.3103 28.3251 48.7516 28.69 48.5033 29.2548C47.947 30.5216 47.0239 31.2778 46.0341 31.2778C45.0442 31.2778 44.1209 30.5215 43.5643 29.2546C43.3162 28.69 42.7576 28.325 42.1412 28.325C41.9838 28.325 41.8275 28.3491 41.6771 28.396C40.855 28.653 40.0519 28.9859 39.2904 29.385C38.7763 29.6543 38.457 30.182 38.457 30.7623C38.457 30.9564 38.4929 31.1468 38.5639 31.3287C38.7664 31.8459 38.8691 32.353 38.8691 32.8359C38.8691 33.5189 38.6538 34.0953 38.2467 34.5027C37.8389 34.9104 37.2626 35.1259 36.5802 35.1259C36.1023 35.1259 35.5942 35.0223 35.0694 34.8179C34.8887 34.7475 34.6991 34.712 34.5057 34.712C33.9257 34.712 33.398 35.0311 33.1286 35.5447C32.8185 36.1365 32.5491 36.7522 32.3237 37.3819H29.4527V37.0097C29.4527 36.5384 29.2281 36.1194 28.8812 35.8513C31.2216 34.2066 32.882 31.6574 33.3502 28.716C33.5671 28.7518 33.7894 28.7716 34.0164 28.7716C36.2757 28.7716 38.1138 26.9338 38.1138 24.6749V21.6357C38.1138 20.9825 37.9591 20.3652 37.6859 19.8169C37.9657 19.7418 38.2174 19.5817 38.4042 19.3496C38.6681 19.0214 38.7677 18.5974 38.6774 18.1864C38.3903 16.8778 37.623 15.7621 36.588 15.0082C36.3135 11.3238 34.7234 7.96757 32.0411 5.46011C30.8359 4.33359 29.4558 3.41777 27.9525 2.73222V2.40116C27.9525 1.91577 27.559 1.52226 27.0736 1.52226C26.7035 1.52226 26.3876 1.75124 26.258 2.07503C25.5339 1.84007 24.7876 1.65656 24.0251 1.52238C24.0034 0.733469 23.3563 0.0979614 22.5623 0.0979614H19.5043C18.7103 0.0979614 18.0633 0.733469 18.0416 1.52238C17.2791 1.65644 16.5328 1.84007 15.8087 2.07503C15.6791 1.75124 15.363 1.52226 14.9931 1.52226C14.5077 1.52226 14.1142 1.91577 14.1142 2.40116V2.73234C12.6109 3.418 11.2307 4.3337 10.0255 5.46023C7.3432 7.96769 5.75309 11.3241 5.47852 15.0084C4.44352 15.7624 3.67641 16.878 3.38906 18.1867C3.29895 18.5976 3.39844 19.0215 3.6627 19.3503C3.84926 19.5821 4.10086 19.7421 4.38059 19.817C4.1073 20.3653 3.95262 20.9825 3.95262 21.6359V24.675C3.95262 26.9339 5.7907 28.7717 8.04996 28.7717C8.27707 28.7717 8.49937 28.7519 8.71641 28.716C9.18457 31.6575 10.8451 34.2067 13.1855 35.8515C12.8386 36.1195 12.6139 36.5385 12.6139 37.0098V37.382H4.4148C1.98047 37.3819 0 39.362 0 41.7959V59.0231C0 59.5086 0.393516 59.902 0.878906 59.902H41.1881C41.6735 59.902 42.067 59.5086 42.067 59.0231V56.25C42.0918 56.2513 42.1165 56.2528 42.1412 56.2528C42.7577 56.2527 43.3164 55.888 43.5646 55.3232C44.1207 54.0565 45.0438 53.3003 46.0336 53.3003C47.0237 53.3003 47.9469 54.0564 48.5032 55.3229C48.7512 55.8876 49.3099 56.2526 49.9266 56.2526C50.0838 56.2526 50.2398 56.2287 50.3904 56.1817C51.2109 55.9251 52.014 55.5925 52.7782 55.1924C53.2917 54.9227 53.6108 54.3951 53.6108 53.8155C53.6108 53.6211 53.5748 53.4306 53.5037 53.2489C53.3012 52.7319 53.1986 52.225 53.1986 51.742C53.1986 51.0588 53.4138 50.4825 53.8211 50.0753C54.2289 49.6675 54.8052 49.4519 55.4876 49.4519C55.9654 49.4519 56.4734 49.5555 56.9974 49.7597C57.1782 49.8302 57.3681 49.8659 57.5617 49.8659C58.1419 49.8659 58.6696 49.5466 58.9388 49.033C59.3388 48.2699 59.672 47.4664 59.9289 46.645C59.976 46.4946 59.9999 46.3385 59.9999 46.181C60 45.5646 59.6353 45.0061 59.0705 44.7576ZM29.453 39.1397H32.2571C32.4186 39.4362 32.6753 39.6787 32.9972 39.8201C33.4709 40.028 33.8729 40.2872 34.191 40.5819H29.453V39.1397ZM36.3562 24.675C36.3562 25.9648 35.3067 27.0139 34.0166 27.0139C33.8334 27.0139 33.6558 26.9912 33.4849 26.9509V23.9933H34.1855C34.6709 23.9933 35.0644 23.5999 35.0644 23.1144C35.0644 22.6289 34.6709 22.2355 34.1855 22.2355H33.4849V19.8661H35.542C36.0396 20.2953 36.3562 20.9287 36.3562 21.636V24.675ZM19.7975 1.85577H22.2696V11.3901H19.7975V1.85577ZM8.58211 22.2354H7.85133C7.36594 22.2354 6.97242 22.6288 6.97242 23.1143C6.97242 23.5998 7.36594 23.9932 7.85133 23.9932H8.58211V26.9508C8.41113 26.9911 8.23348 27.0138 8.0502 27.0138C6.7602 27.0139 5.71066 25.9646 5.71066 24.675V21.6359C5.71066 20.9287 6.0273 20.2952 6.52488 19.866H8.58211V22.2354ZM5.23875 18.1083C5.75016 16.7072 7.10836 15.7323 8.63016 15.7323H13.4766C13.962 15.7323 14.3555 15.3389 14.3555 14.8534C14.3555 14.3679 13.962 13.9745 13.4766 13.9745H8.63016C8.19047 13.9745 7.76039 14.0304 7.34648 14.1337C7.77762 11.2889 9.11707 8.71593 11.2261 6.74437C12.0929 5.93402 13.0646 5.24835 14.1143 4.693V8.39226C14.1143 8.87777 14.5078 9.27116 14.9932 9.27116C15.4786 9.27116 15.8721 8.87777 15.8721 8.39226V3.91288C16.5713 3.65823 17.2957 3.45679 18.0397 3.30995V11.6832C18.0397 12.491 18.6968 13.1481 19.5046 13.1481H22.5626C23.3704 13.1481 24.0274 12.491 24.0274 11.6832V3.30984C24.7713 3.45679 25.4958 3.65824 26.195 3.91277V8.39237C26.195 8.87788 26.5886 9.27128 27.0739 9.27128C27.5593 9.27128 27.9529 8.87788 27.9529 8.39237V4.69323C29.0024 5.24859 29.9741 5.93425 30.8409 6.74449C32.95 8.71593 34.2895 11.2889 34.7205 14.1339C34.3068 14.0304 33.8766 13.9746 33.437 13.9746H18.0469C17.5615 13.9746 17.168 14.368 17.168 14.8535C17.168 15.339 17.5615 15.7324 18.0469 15.7324H33.437C34.9588 15.7324 36.317 16.7072 36.8284 18.1083H5.23875ZM10.3399 27.0134V19.8661H31.727V27.0134C31.727 31.9972 27.6715 36.052 22.6867 36.052H19.3802C14.3954 36.052 10.3399 31.9972 10.3399 27.0134ZM20.0429 40.4178C20.318 40.6178 20.6698 40.7278 21.0335 40.7278C21.3973 40.7278 21.7489 40.6179 22.0242 40.4177L25.556 37.8503C25.7469 37.7115 25.9166 37.5201 26.0528 37.3027H27.6952V42.2484C27.6919 42.3319 27.6083 42.52 27.55 42.5773L25.0949 44.7973L22.0793 41.4203C21.8104 41.1193 21.4293 40.9467 21.0335 40.9467C20.6378 40.9467 20.2567 41.1193 19.9876 41.4205L16.9723 44.7973L14.5185 42.5783C14.4588 42.52 14.3753 42.3317 14.372 42.2501V37.3025H16.014C16.1502 37.5198 16.3199 37.7114 16.5107 37.85L20.0429 40.4178ZM19.4445 37.8098H22.6223L21.0335 38.9648L19.4445 37.8098ZM4.4148 39.1397H12.6142V40.5819H2.05277C2.49457 39.7263 3.38707 39.1397 4.4148 39.1397ZM15.6858 58.1442H6.38789V54.4758H15.6858V58.1442ZM35.697 58.1442H26.3989V54.4758H35.697V58.1442ZM40.3091 58.1443H37.4548V58.1442V53.9484C37.4548 53.2699 36.9027 52.718 36.2243 52.718H25.8716C25.1931 52.718 24.6411 53.2699 24.6411 53.9484V58.1442H21.9123V53.5547C21.9123 53.0692 21.5188 52.6758 21.0334 52.6758C20.548 52.6758 20.1545 53.0692 20.1545 53.5547V58.1442H17.4435V53.9484C17.4435 53.2699 16.8914 52.718 16.213 52.718H5.86055C5.18203 52.718 4.63008 53.2699 4.63008 53.9484V58.1442H1.75781V42.3397H12.617C12.6456 42.8932 12.9338 43.5152 13.3382 43.881L16.0145 46.3012C16.2833 46.5444 16.6313 46.6784 16.9942 46.6784C17.4103 46.6784 17.8077 46.5006 18.0845 46.1907L20.1545 43.8727V49.5703C20.1545 50.0558 20.548 50.4492 21.0334 50.4492C21.5188 50.4492 21.9123 50.0558 21.9123 49.5703V43.8725L23.9825 46.1908C24.2592 46.5007 24.6566 46.6784 25.0727 46.6784C25.0729 46.6784 25.0729 46.6784 25.0729 46.6784C25.4358 46.6784 25.7837 46.5444 26.0524 46.3012L28.729 43.881C29.1333 43.5152 29.4214 42.8931 29.45 42.3397H35.0183C34.9928 43.3099 34.2424 44.2111 32.9972 44.7579C32.4325 45.0057 32.0675 45.5645 32.0675 46.1812C32.0675 46.338 32.0913 46.4939 32.1384 46.6451C32.3953 47.4666 32.7285 48.27 33.1287 49.0332C33.3981 49.5469 33.9257 49.8661 34.5057 49.8661C34.6993 49.8661 34.8892 49.8303 35.0699 49.7599C35.5942 49.5557 36.1023 49.4521 36.5801 49.4521C37.2623 49.4521 37.8386 49.6677 38.2465 50.0754C38.6538 50.4826 38.8691 51.0589 38.8691 51.7421C38.8691 52.2251 38.7664 52.7321 38.5639 53.2495C38.493 53.4309 38.457 53.6215 38.457 53.8159C38.457 54.3959 38.7762 54.9234 39.2903 55.193C39.6227 55.3671 39.9633 55.5278 40.3091 55.6757V58.1443ZM57.4642 48.0574C56.794 47.8161 56.1299 47.694 55.4877 47.694C54.3291 47.694 53.323 48.0875 52.5783 48.8321C51.8341 49.576 51.4407 50.5823 51.4407 51.7419C51.4407 52.3893 51.5623 53.0531 51.8023 53.7177C51.2334 54.0053 50.6409 54.2508 50.0367 54.4492C49.1779 52.6251 47.6925 51.5425 46.0336 51.5425C44.3749 51.5425 42.8896 52.6254 42.0311 54.4494C41.4266 54.2509 40.8342 54.0054 40.2656 53.7178C40.5054 53.0529 40.6269 52.389 40.6269 51.7419C40.6269 50.5822 40.2335 49.5759 39.4891 48.8319C38.7445 48.0875 37.7385 47.694 36.58 47.694C35.9378 47.694 35.2737 47.8162 34.6034 48.0575C34.3153 47.4887 34.0696 46.8959 33.8709 46.2914C35.6953 45.4324 36.7786 43.9472 36.7786 42.2887C36.7782 40.6304 35.6952 39.1453 33.8709 38.2867C34.0696 37.682 34.3154 37.0894 34.6034 36.5204C35.2738 36.7617 35.9379 36.8839 36.5802 36.8839C37.7388 36.8839 38.7449 36.4905 39.4898 35.7457C40.2337 35.0013 40.627 33.9951 40.627 32.8362C40.627 32.1888 40.5054 31.5247 40.2656 30.8601C40.8333 30.5729 41.4255 30.3275 42.0309 30.1287C42.89 31.9527 44.3755 33.0357 46.0341 33.0357C47.6927 33.0357 49.1782 31.9528 50.0368 30.1288C50.6414 30.3272 51.2338 30.5727 51.8022 30.8601C51.5623 31.5252 51.4406 32.1891 51.4406 32.8363C51.4409 33.9956 51.8343 35.0018 52.5786 35.7466C53.3232 36.4908 54.3293 36.8841 55.4878 36.8841C56.13 36.8841 56.794 36.7619 57.4642 36.5207C57.7521 37.0896 57.998 37.6822 58.1965 38.2867C56.3722 39.1454 55.2893 40.6307 55.2893 42.2891C55.2893 43.9475 56.3725 45.4328 58.1964 46.2912C57.9977 46.8961 57.752 47.4886 57.4642 48.0574Z" fill="#C8C8C8"/>
<path d="M53.2712 40.316C53.144 39.8476 52.6607 39.5716 52.1925 39.6987C51.7241 39.8262 51.4478 40.3092 51.5752 40.7775C51.7084 41.2672 51.7759 41.7757 51.7759 42.289C51.7759 45.4547 49.1999 48.03 46.0336 48.03C42.8672 48.03 40.2912 45.4546 40.2912 42.289C40.2912 39.1232 42.8672 36.5477 46.0336 36.5477C47.3473 36.5477 48.5836 36.9793 49.6087 37.7955C49.9883 38.0981 50.5414 38.0354 50.8437 37.6557C51.1462 37.2761 51.0835 36.723 50.7038 36.4207C49.3834 35.3691 47.7249 34.7899 46.0336 34.7899C41.898 34.7899 38.5334 38.154 38.5334 42.289C38.5334 46.4238 41.898 49.7878 46.0336 49.7878C50.1693 49.7878 53.5337 46.4238 53.5337 42.289C53.5337 41.6198 53.4454 40.956 53.2712 40.316Z" fill="#C8C8C8"/>
<path d="M46.0337 38.0708C43.7074 38.0708 41.8148 39.9631 41.8148 42.289C41.8148 44.6149 43.7074 46.5072 46.0337 46.5072C48.36 46.5072 50.2524 44.6149 50.2524 42.289C50.2524 39.9632 48.3599 38.0708 46.0337 38.0708ZM46.0337 44.7493C44.6767 44.7493 43.5726 43.6457 43.5726 42.289C43.5726 40.9323 44.6767 39.8286 46.0337 39.8286C47.3907 39.8286 48.4946 40.9323 48.4946 42.289C48.4946 43.6457 47.3906 44.7493 46.0337 44.7493Z" fill="#C8C8C8"/>
<path d="M49.1538 20.2859L46.9706 19.029C46.6293 18.8325 46.2676 18.7913 46.0243 18.7913C45.781 18.7913 45.4194 18.8326 45.0779 19.0292L42.8952 20.286C42.3458 20.6023 41.947 21.292 41.947 21.926V24.4371C41.9473 25.071 42.3459 25.7608 42.8953 26.0769L45.0782 27.334C45.4196 27.5305 45.7812 27.5718 46.0244 27.5718C46.2677 27.5718 46.6294 27.5305 46.9707 27.334L49.1538 26.077C49.7032 25.7608 50.102 25.071 50.102 24.437V21.9259C50.102 21.2919 49.7032 20.6022 49.1538 20.2859ZM48.3444 24.425C48.3357 24.4637 48.2958 24.5329 48.2666 24.5597L46.1044 25.8045C46.0926 25.8079 46.0639 25.814 46.0246 25.814C45.9852 25.814 45.9565 25.8079 45.9448 25.8045L43.7829 24.5597C43.7537 24.5329 43.7137 24.4637 43.7051 24.425V21.938C43.7137 21.8993 43.7537 21.83 43.7829 21.8033L45.9448 20.5586C45.9565 20.5552 45.9852 20.5491 46.0246 20.5491C46.0638 20.5491 46.0926 20.5552 46.1044 20.5586L48.2666 21.8033C48.2958 21.8302 48.3357 21.8993 48.3444 21.938V24.425Z" fill="#C8C8C8"/>
<path d="M55.2973 13.0705L53.7062 12.1546C53.3647 11.9581 53.0031 11.9168 52.7599 11.9168C52.5167 11.9168 52.155 11.9582 51.8135 12.1547L50.2228 13.0705C49.6734 13.3868 49.2747 14.0766 49.2747 14.7106V16.54C49.2747 17.1741 49.6734 17.8638 50.2227 18.18L51.8136 19.0962C52.155 19.2927 52.5167 19.334 52.7599 19.334C53.0032 19.334 53.3649 19.2927 53.7062 19.0962L55.2973 18.1801C55.8467 17.8638 56.2454 17.1741 56.2454 16.5401V14.7106C56.2454 14.0766 55.8467 13.3868 55.2973 13.0705ZM54.4876 16.528C54.479 16.5667 54.439 16.636 54.4098 16.6627L52.8397 17.5667C52.828 17.5701 52.7993 17.5761 52.7599 17.5761C52.7207 17.5761 52.6918 17.5701 52.6801 17.5667L51.1103 16.6627C51.0811 16.6358 51.0411 16.5667 51.0325 16.528V14.7226C51.0411 14.684 51.0811 14.6147 51.1103 14.588L52.6801 13.6841C52.6918 13.6807 52.7206 13.6746 52.7599 13.6746C52.7992 13.6746 52.828 13.6807 52.8397 13.6841L54.4098 14.588C54.439 14.6148 54.479 14.684 54.4876 14.7226V16.528Z" fill="#C8C8C8"/>
</svg>
