<svg width="65" height="65" viewBox="0 0 65 65" fill="none" xmlns="http://www.w3.org/2000/svg">
<path d="M63.9167 58.5H60.6667V37.9167C60.6663 37.3184 60.1808 36.8338 59.5826 36.8342C59.2295 36.8344 58.8987 37.0067 58.6961 37.2959L43.5295 58.9626C43.1866 59.4529 43.3062 60.1284 43.7965 60.4711C43.9784 60.5983 44.1948 60.6665 44.4167 60.6667H58.5001V63.9167C58.5001 64.515 58.9851 65 59.5834 65C60.1817 65 60.6667 64.515 60.6667 63.9167V60.6667H63.9167C64.515 60.6667 65.0001 60.1816 65.0001 59.5834C65.0001 58.9851 64.515 58.5 63.9167 58.5ZM58.5001 58.5H46.4967L58.5001 41.353V58.5Z" fill="#EF760D"/>
<path d="M44.4166 62.8334H31.591L43.5153 48.7923C43.5424 48.76 43.5677 48.7265 43.5911 48.6915C45.8344 45.3714 45.0872 40.8762 41.8903 38.4605C38.0032 35.6676 32.5878 36.5547 29.795 40.4418C28.7359 41.9158 28.1664 43.685 28.1666 45.5C28.1666 46.0983 28.6517 46.5834 29.25 46.5834C29.8482 46.5834 30.3333 46.0983 30.3333 45.5C30.3329 41.9101 33.2429 38.9998 36.8326 38.9993C38.1933 38.9992 39.5197 39.426 40.625 40.2199C42.8643 41.9357 43.3858 45.0958 41.8166 47.4403L28.4245 63.2158C28.0373 63.672 28.0934 64.3556 28.5496 64.7427C28.7453 64.9088 28.9933 64.9999 29.25 65H44.4166C45.0149 65 45.5 64.515 45.5 63.9167C45.5 63.3184 45.0149 62.8334 44.4166 62.8334Z" fill="#EF760D"/>
<path d="M29.2738 57.4373C29.2964 56.8394 28.8299 56.3364 28.2321 56.3138C28.2319 56.3138 28.2318 56.3138 28.2317 56.3138C14.0982 55.7892 2.75451 44.4658 2.20458 30.3333H6.5C7.09827 30.3333 7.58333 29.8483 7.58333 29.25C7.58333 28.6517 7.09827 28.1667 6.5 28.1667H2.20458C2.74666 14.0591 14.059 2.7472 28.1667 2.20567V5.41667C28.1667 6.01494 28.6517 6.5 29.25 6.5C29.8483 6.5 30.3333 6.01494 30.3333 5.41667V2.20567C44.2479 2.74381 55.4783 13.7621 56.2813 27.664L52.0563 23.439C51.626 23.0233 50.9402 23.0352 50.5245 23.4655C50.1191 23.8853 50.1191 24.5509 50.5245 24.9708L56.5717 31.018C56.6856 31.1559 56.8323 31.2627 56.9985 31.3289C57.0409 31.3416 57.0839 31.3522 57.1274 31.3603C57.2018 31.3871 57.2787 31.4057 57.3571 31.4156C57.3679 31.4156 57.3777 31.4156 57.3885 31.4156C57.3993 31.4156 57.4091 31.4156 57.4188 31.4156C57.5013 31.4094 57.5828 31.3934 57.6615 31.3679C57.7061 31.3625 57.7502 31.3542 57.7937 31.343C57.9403 31.2909 58.0738 31.2073 58.1847 31.0982L64.3142 24.9708C64.7298 24.5405 64.7181 23.8547 64.2877 23.439C63.8679 23.0336 63.2023 23.0336 62.7824 23.439L58.4523 27.7658C57.6784 12.2376 44.8744 0.0380521 29.3269 0.0151667C29.2998 0.0140833 29.2771 0 29.25 0C29.2229 0 29.2002 0.0140833 29.1731 0.0151667C13.0788 0.0372396 0.0372396 13.0788 0.0151667 29.1731C0.0151667 29.2002 0 29.2229 0 29.25C0 29.2771 0.0140833 29.2998 0.0151667 29.3269C0.0421146 45.024 12.4652 57.8958 28.1515 58.4794H28.1916C28.7737 58.4793 29.2518 58.019 29.2738 57.4373Z" fill="#EF760D"/>
<path d="M43.8046 14.6954C43.3816 14.2725 42.6958 14.2725 42.2728 14.6954L30.6313 26.3358C29.7517 25.9437 28.7471 25.9437 27.8677 26.3358L22.3557 20.8238C21.9253 20.4082 21.2394 20.4202 20.8239 20.8505C20.4184 21.2703 20.4184 21.9359 20.8239 22.3557L26.325 27.8568C25.5526 29.4737 26.2373 31.4107 27.8543 32.183C29.0954 32.7758 30.5755 32.5217 31.5478 31.5488C32.5254 30.5795 32.7771 29.0954 32.1739 27.8579L43.8046 16.2272C44.2275 15.8042 44.2275 15.1185 43.8046 14.6954ZM30.0162 30.0156C30.0161 30.0158 30.0161 30.0158 30.0159 30.0159C29.5875 30.4256 28.9126 30.4256 28.4841 30.0159C28.0609 29.5929 28.0609 28.907 28.4838 28.4838C28.9069 28.0606 29.5928 28.0606 30.0159 28.4835C30.4391 28.9066 30.4391 29.5926 30.0162 30.0156Z" fill="#EF760D"/>
</svg>
