<svg width="65" height="65" viewBox="0 0 65 65" fill="none" xmlns="http://www.w3.org/2000/svg">
<g clip-path="url(#clip0)">
<path d="M16.2497 63.9168C16.2492 64.204 16.3634 64.4796 16.5666 64.6828C16.7697 64.8859 17.0453 65.0001 17.333 65.0001H47.6659C47.9532 65.0001 48.2288 64.8859 48.4319 64.6828C48.635 64.4796 48.7493 64.204 48.7493 63.9168V54.167H51.9992C52.2864 54.167 52.562 54.0527 52.7652 53.8496C52.9683 53.6465 53.0825 53.3709 53.0825 53.0836V29.2506C53.0825 17.8827 43.8669 8.6676 32.4995 8.6676C21.1315 8.6676 11.9164 17.8827 11.9164 29.2506V53.0836C11.9159 53.3709 12.0302 53.6465 12.2333 53.8496C12.4364 54.0527 12.712 54.167 12.9998 54.167H16.2497V63.9168ZM46.5826 62.8335H18.4164V54.167H46.5826V62.8335ZM14.0831 29.2506C14.0831 19.0792 22.328 10.8342 32.4995 10.8342C42.6704 10.8342 50.9159 19.0792 50.9159 29.2506V43.3338H40.0827V26.0007C40.0785 22.4122 37.1708 19.5045 33.5828 19.5008H31.4162C27.8277 19.5045 24.92 22.4122 24.9163 26.0007V43.3338H14.0831V29.2506ZM32.4995 30.334C31.3024 30.334 30.3329 29.3638 30.3329 28.1673C30.3329 26.9708 31.3024 26.0007 32.4995 26.0007C33.696 26.0007 34.6661 26.9708 34.6661 28.1673C34.6645 29.3633 33.695 30.3324 32.4995 30.334ZM33.5828 32.3467C35.6955 31.8013 37.0729 29.7696 36.7979 27.605C36.5228 25.44 34.6815 23.8177 32.4995 23.8177C30.317 23.8177 28.4757 25.44 28.2006 27.605C27.9255 29.7696 29.303 31.8013 31.4162 32.3467V43.3338H27.0829V26.0007C27.085 23.6082 29.0237 21.6695 31.4162 21.6674H33.5828C35.9748 21.6695 37.9134 23.6082 37.9161 26.0007V43.3338H33.5828V32.3467ZM14.0831 45.5004H50.9159V52.0003H14.0831V45.5004Z" fill="#EF760D"/>
<path d="M46.5826 49.8337H47.6659C48.2642 49.8337 48.7493 49.3486 48.7493 48.7503C48.7493 48.1521 48.2642 47.667 47.6659 47.667H46.5826C45.9838 47.667 45.4993 48.1521 45.4993 48.7503C45.4993 49.3486 45.9838 49.8337 46.5826 49.8337Z" fill="#EF760D"/>
<path d="M24.9163 18.4175C25.5146 18.4175 25.9996 17.9324 25.9996 17.3341C25.9996 16.7359 25.5146 16.2508 24.9163 16.2508C21.9297 16.2508 19.4996 19.1665 19.4996 22.7508C19.4996 23.3491 19.9842 23.8341 20.583 23.8341C21.1812 23.8341 21.6663 23.3491 21.6663 22.7508C21.6663 20.3609 23.1236 18.4175 24.9163 18.4175Z" fill="#EF760D"/>
<path d="M12.6818 12.6835C13.1055 12.2603 13.1055 11.5743 12.6818 11.1516L1.84864 0.318452C1.42547 -0.103661 0.740992 -0.103132 0.31835 0.31951C-0.104292 0.742152 -0.104821 1.42716 0.317292 1.85033L11.1505 12.6835C11.5731 13.1067 12.2592 13.1067 12.6818 12.6835Z" fill="#EF760D"/>
<path d="M12.7025 0.0423536C12.1269 0.206861 11.7937 0.806177 11.9577 1.38169L14.1243 8.96492C14.2571 9.42935 14.6818 9.7499 15.1648 9.75096C15.2658 9.75043 15.3663 9.73667 15.4631 9.7097C16.0386 9.54519 16.3719 8.94587 16.2079 8.37036L14.0413 0.787135C13.8736 0.214267 13.2774 -0.117394 12.7025 0.0423536Z" fill="#EF760D"/>
<path d="M10.0465 15.2088L2.4633 13.0422C1.88778 12.8776 1.28847 13.2114 1.12449 13.7869C0.95998 14.3624 1.29376 14.9618 1.86927 15.1263L9.45249 17.2929C9.5493 17.3199 9.6498 17.3336 9.75083 17.3342C10.2909 17.3336 10.7485 16.9353 10.823 16.4C10.8976 15.8652 10.5665 15.3569 10.0465 15.2088Z" fill="#EF760D"/>
<path d="M63.1498 0.318447L52.3166 11.1516C52.0421 11.4251 51.9347 11.8239 52.0347 12.1984C52.1346 12.5724 52.4272 12.8649 52.8011 12.9649C53.1756 13.0649 53.5745 12.9575 53.8479 12.6835L64.6811 1.85033C64.9557 1.57685 65.063 1.17748 64.9631 0.803507C64.8631 0.429001 64.5706 0.137013 64.1966 0.0370388C63.8221 -0.0634644 63.4232 0.0439153 63.1498 0.318447Z" fill="#EF760D"/>
<path d="M50.9571 0.787116L48.7905 8.37034C48.6265 8.94585 48.9598 9.54517 49.5353 9.70968C49.6321 9.73666 49.7326 9.75041 49.8336 9.75094C50.3166 9.74988 50.7413 9.42933 50.8741 8.9649L53.0407 1.38167C53.2052 0.806159 52.8715 0.206314 52.2959 0.0423347C51.7204 -0.122173 51.1211 0.211603 50.9571 0.787116Z" fill="#EF760D"/>
<path d="M62.5351 13.0422L54.9519 15.2088C54.4319 15.3569 54.1008 15.8652 54.1754 16.4C54.25 16.9353 54.7075 17.3336 55.2476 17.3342C55.3486 17.3336 55.4491 17.3199 55.5459 17.2929L63.1291 15.1263C63.7047 14.9618 64.0384 14.3624 63.8739 13.7869C63.7099 13.2114 63.1106 12.8776 62.5351 13.0422Z" fill="#EF760D"/>
</g>
<defs>
<clipPath id="clip0">
<rect width="65" height="65" fill="white"/>
</clipPath>
</defs>
</svg>
