<svg width="65" height="65" viewBox="0 0 65 65" fill="none" xmlns="http://www.w3.org/2000/svg">
<path d="M60.1407 56.1968L52.4317 38.063C55.1563 34.1416 56.7562 29.3826 56.7562 24.2564C56.7562 10.8814 45.8749 0 32.4999 0C19.1252 0 8.2438 10.8814 8.2438 24.2563C8.2438 29.3826 9.84366 34.1413 12.5683 38.0628L4.85923 56.1967C4.49018 57.0647 4.55417 57.8979 5.03494 58.4828C5.51571 59.0676 6.32097 59.2914 7.24379 59.0977L13.1314 57.8599C13.8273 57.7135 14.8051 58.1292 15.1828 58.732L18.3765 63.8306C18.8463 64.5802 19.5087 65 20.212 65C20.2585 65 20.3052 64.9981 20.3521 64.9945C21.1069 64.9348 21.7512 64.4029 22.1204 63.5348L28.6381 48.2038C29.8961 48.4059 31.1857 48.5124 32.4999 48.5124C33.8141 48.5124 35.1037 48.4059 36.3617 48.2038L42.8796 63.5348C43.2486 64.4028 43.8932 64.9349 44.648 64.9945C44.6949 64.9981 44.7416 65 44.7881 65C45.4911 65 46.1538 64.5803 46.6234 63.8306L49.8171 58.732C50.1949 58.1291 51.1725 57.713 51.8687 57.8598L57.7561 59.0976C58.6791 59.2913 59.4843 59.0675 59.965 58.4826C60.4457 57.8979 60.5098 57.0647 60.1407 56.1968ZM10.6883 56.2625L6.81875 57.076C6.78473 57.0832 6.75401 57.0886 6.72646 57.0922C6.7356 57.0661 6.74652 57.037 6.76035 57.0049L14.0142 39.9419C14.7914 40.8565 15.6349 41.713 16.5374 42.5038L10.6883 56.2625ZM13.1382 55.7799L18.212 43.8447C19.2222 44.5836 20.2907 45.247 21.4105 45.825L16.5855 57.1746C15.7499 56.2386 14.384 55.6831 13.1382 55.7799ZM20.2193 62.7267C20.2057 62.7588 20.1925 62.787 20.1798 62.8117C20.1634 62.7892 20.1459 62.7635 20.1275 62.734L17.9469 59.2528L23.2864 46.6929C24.347 47.1301 25.4448 47.4943 26.574 47.7791L20.2193 62.7267ZM32.4999 46.4467C20.2641 46.4467 10.3096 36.4922 10.3096 24.2564C10.3096 12.0205 20.2642 2.06578 32.4999 2.06578C44.7356 2.06578 54.6905 12.0204 54.6905 24.2564C54.6905 36.4924 44.7359 46.4467 32.4999 46.4467ZM44.8725 62.7339C44.8541 62.7635 44.8366 62.7891 44.8202 62.8116C44.8075 62.7868 44.7943 62.7585 44.7807 62.7265L38.4261 47.7788C39.5553 47.4943 40.6531 47.1299 41.7137 46.6926L47.0532 59.2526L44.8725 62.7339ZM48.4145 57.1746L43.5895 45.825C44.7092 45.247 45.7777 44.5836 46.7878 43.8448L51.8619 55.7798C50.6158 55.6824 49.2502 56.2383 48.4145 57.1746ZM58.181 57.076L54.3116 56.2625L48.4622 42.504C49.3651 41.7133 50.2083 40.8566 50.9855 39.942L58.2394 57.005C58.2532 57.037 58.2641 57.0661 58.2731 57.0924C58.2458 57.0886 58.2151 57.0834 58.181 57.076Z" fill="#EF760D"/>
<path d="M32.4999 11.1843C25.2921 11.1843 19.428 17.0484 19.428 24.2563C19.428 31.4642 25.2921 37.3281 32.4999 37.3281C39.708 37.3281 45.572 31.4642 45.572 24.2563C45.572 17.0484 39.708 11.1843 32.4999 11.1843ZM32.4999 35.2625C26.4311 35.2625 21.4938 30.3251 21.4938 24.2564C21.4938 18.1876 26.4311 13.2502 32.4999 13.2502C38.5688 13.2502 43.5064 18.1876 43.5064 24.2564C43.5064 30.325 38.5689 35.2625 32.4999 35.2625Z" fill="#EF760D"/>
<path d="M32.4999 5.82324C22.3358 5.82324 14.0669 14.0922 14.0669 24.2563C14.0669 34.4203 22.3358 42.6892 32.4999 42.6892C42.6641 42.6892 50.9333 34.4203 50.9333 24.2563C50.9333 14.0922 42.6641 5.82324 32.4999 5.82324ZM32.4999 40.6234C23.4749 40.6234 16.1325 33.2812 16.1325 24.2562C16.1325 15.2312 23.4749 7.88877 32.4999 7.88877C41.525 7.88877 48.8675 15.2311 48.8675 24.2562C48.8675 33.2812 41.525 40.6234 32.4999 40.6234Z" fill="#EF760D"/>
</svg>
