<svg width="65" height="65" viewBox="0 0 65 65" fill="none" xmlns="http://www.w3.org/2000/svg">
<path d="M32.5 31.9247C26.5169 31.9247 21.6669 36.7744 21.6669 42.7578C21.6669 48.7409 26.5169 53.5913 32.5 53.5913C38.4831 53.5913 43.3331 48.7409 43.3331 42.7578C43.3267 36.7775 38.4803 31.9311 32.5 31.9247ZM32.5 51.4243C27.7135 51.4243 23.8335 47.5443 23.8335 42.7578C23.8335 37.9713 27.7135 34.0913 32.5 34.0913C37.2865 34.0913 41.1665 37.9713 41.1665 42.7578C41.161 47.5416 37.2841 51.4192 32.5 51.4243Z" fill="#EF760D"/>
<path d="M32.5 30.8409C33.0982 30.8409 33.5834 30.3561 33.5834 29.7578V28.6744C33.5834 28.0765 33.0982 27.5913 32.5 27.5913C31.9017 27.5913 31.4165 28.0765 31.4165 28.6744V29.7578C31.4165 30.3561 31.9017 30.8409 32.5 30.8409Z" fill="#EF760D"/>
<path d="M41.6922 32.0327L40.9261 32.7988C40.4961 33.2145 40.4842 33.9005 40.8995 34.3305C41.3153 34.7606 42.0012 34.7725 42.4317 34.3571C42.4404 34.3488 42.4495 34.3396 42.4579 34.3305L43.2239 33.5644C43.6397 33.134 43.6278 32.4484 43.1973 32.0327C42.7776 31.6272 42.1119 31.6272 41.6922 32.0327Z" fill="#EF760D"/>
<path d="M46.5835 41.674H45.5C44.9017 41.674 44.4169 42.1595 44.4169 42.7578C44.4169 43.3561 44.9017 43.8413 45.5 43.8413H46.5835C47.1813 43.8413 47.6665 43.3561 47.6665 42.7578C47.6665 42.1595 47.1813 41.674 46.5835 41.674Z" fill="#EF760D"/>
<path d="M42.4579 51.1835C42.0278 50.7681 41.3415 50.78 40.9261 51.2105C40.521 51.6306 40.521 52.2959 40.9261 52.7157L41.6922 53.4818C42.1151 53.9047 42.8011 53.9051 43.2244 53.4821C43.6477 53.0592 43.6481 52.3733 43.2252 51.95L42.4579 51.1835Z" fill="#EF760D"/>
<path d="M32.5 54.6743C31.9017 54.6743 31.4165 55.1595 31.4165 55.7578V56.8409C31.4165 57.4395 31.9017 57.9247 32.5 57.9247C33.0982 57.9247 33.5834 57.4395 33.5834 56.8409V55.7578C33.5834 55.1595 33.0982 54.6743 32.5 54.6743Z" fill="#EF760D"/>
<path d="M22.5421 51.1835L21.7761 51.95C21.3527 52.3729 21.3523 53.0589 21.7757 53.4822C22.1986 53.9051 22.8849 53.9059 23.3078 53.483L24.0739 52.7165C24.4897 52.2865 24.4778 51.6009 24.0473 51.1851C23.6276 50.7797 22.9619 50.7797 22.5421 51.1851V51.1835Z" fill="#EF760D"/>
<path d="M19.5 41.674H18.4165C17.8179 41.674 17.3331 42.1595 17.3331 42.7578C17.3331 43.3561 17.8179 43.8413 18.4165 43.8413H19.5C20.0983 43.8413 20.5831 43.3561 20.5831 42.7578C20.5831 42.1595 20.0983 41.674 19.5 41.674Z" fill="#EF760D"/>
<path d="M22.5421 34.3317C22.9721 34.7471 23.6585 34.7352 24.0739 34.3051C24.4789 33.8854 24.4789 33.2193 24.0739 32.7999L23.3078 32.0342C22.8849 31.6105 22.1989 31.6105 21.7756 32.033C21.3523 32.4564 21.3519 33.1427 21.7748 33.5656L22.5421 34.3317Z" fill="#EF760D"/>
<path d="M61.75 30.8409C59.9552 30.8409 58.5 32.2961 58.5 34.0913V35.1743H49.2634C47.4126 31.1063 44.1515 27.8452 40.0835 25.9944V17.8413C40.0835 17.2426 39.5983 16.7578 39 16.7578H36.8331V10.2578H49.8331C51.6283 10.2578 53.0831 8.80261 53.0831 7.00781C53.0831 5.21301 51.6283 3.75781 49.8331 3.75781H15.1665C13.3717 3.75781 11.9169 5.21301 11.9169 7.00781C11.9169 8.80261 13.3717 10.2578 15.1665 10.2578H28.1669V16.7578H26C25.4017 16.7578 24.9165 17.243 24.9165 17.8413V25.9944C20.8481 27.8452 17.5874 31.1063 15.7362 35.1747H6.5V34.0913C6.5 32.2965 5.0448 30.8417 3.25 30.8417C1.4552 30.8417 0 32.2961 0 34.0913V51.4243C0 53.2195 1.4552 54.6743 3.25 54.6743C5.0448 54.6743 6.5 53.2195 6.5 51.4243V50.3413H15.7366C19.9078 59.5993 30.7945 63.7233 40.0529 59.5517C44.144 57.7085 47.4202 54.4323 49.2634 50.3413H58.5V51.4243C58.5 53.2195 59.9552 54.6743 61.75 54.6743C63.5448 54.6743 65 53.2195 65 51.4243V34.0913C65 32.2961 63.5448 30.8409 61.75 30.8409ZM14.0835 7.00781C14.0835 6.40955 14.5683 5.92435 15.1665 5.92435H49.8331C50.4317 5.92435 50.9165 6.40955 50.9165 7.00781C50.9165 7.60608 50.4317 8.09088 49.8331 8.09088H15.1665C14.5683 8.09088 14.0835 7.60608 14.0835 7.00781ZM30.3335 10.2578H34.6665V16.7578H30.3335V10.2578ZM27.0831 18.9243H37.9169V25.1569C34.3876 24.0695 30.6124 24.0695 27.0831 25.1569V18.9243ZM4.33307 51.4243C4.33307 52.023 3.84827 52.5078 3.25 52.5078C2.65173 52.5078 2.16653 52.023 2.16653 51.4243V34.0913C2.16653 33.4926 2.65173 33.0078 3.25 33.0078C3.84827 33.0078 4.33307 33.4926 4.33307 34.0913V51.4243ZM6.5 48.1747V37.3409H14.8991C13.8117 40.8702 13.8117 44.645 14.8991 48.1747H6.5ZM32.5 59.0078C23.5256 59.0078 16.25 51.7322 16.25 42.7578C16.25 33.783 23.5256 26.5078 32.5 26.5078C41.4744 26.5078 48.75 33.783 48.75 42.7578C48.7401 51.7282 41.4704 58.9979 32.5 59.0078ZM50.1009 48.1747C51.1883 44.645 51.1883 40.8702 50.1009 37.3409H58.5V48.1747H50.1009ZM62.8335 51.4243C62.8335 52.023 62.3483 52.5078 61.75 52.5078C61.1517 52.5078 60.6669 52.023 60.6669 51.4243V34.0913C60.6669 33.4926 61.1517 33.0078 61.75 33.0078C62.3483 33.0078 62.8335 33.4926 62.8335 34.0913V51.4243Z" fill="#EF760D"/>
</svg>
