<svg width="12" height="13" viewBox="0 0 12 13" fill="none" xmlns="http://www.w3.org/2000/svg">
<path d="M0 9.99219L0 11C0 11.2656 0.203125 11.5156 0.609375 11.75C1.01563 11.9844 1.5625 12.1641 2.25 12.2891C2.9375 12.4297 3.6875 12.5 4.5 12.5C5.3125 12.5 6.0625 12.4297 6.75 12.2891C7.4375 12.1641 7.98438 11.9844 8.39063 11.75C8.79688 11.5156 9 11.2656 9 11V9.99219C8.53125 10.3203 7.88281 10.5781 7.05469 10.7656C6.27344 10.9219 5.42188 11 4.5 11C3.57813 11 2.72656 10.9219 1.94531 10.7656C1.11719 10.5781 0.46875 10.3203 0 9.99219ZM7.5 3.5C8.3125 3.5 9.0625 3.4375 9.75 3.3125C10.4375 3.17187 10.9844 2.98437 11.3906 2.75C11.7969 2.51562 12 2.26562 12 2C12 1.73437 11.7969 1.48437 11.3906 1.25C10.9844 1.01562 10.4375 0.835937 9.75 0.710937C9.0625 0.570312 8.3125 0.5 7.5 0.5C6.6875 0.5 5.9375 0.570312 5.25 0.710937C4.5625 0.835937 4.01562 1.01562 3.60938 1.25C3.20313 1.48437 3 1.73438 3 2C3 2.26562 3.20313 2.51562 3.60938 2.75C4.01563 2.98437 4.5625 3.17187 5.25 3.3125C5.9375 3.4375 6.6875 3.5 7.5 3.5ZM0 7.53125L0 8.75C0 9.01562 0.203125 9.26562 0.609375 9.5C1.01563 9.73438 1.5625 9.92188 2.25 10.0625C2.9375 10.1875 3.6875 10.25 4.5 10.25C5.3125 10.25 6.0625 10.1875 6.75 10.0625C7.4375 9.92187 7.98438 9.73437 8.39063 9.5C8.79688 9.26562 9 9.01562 9 8.75V7.53125C8.53125 7.92187 7.88281 8.22656 7.05469 8.44531C6.25781 8.64844 5.40625 8.75 4.5 8.75C3.59375 8.75 2.74219 8.64844 1.94531 8.44531C1.11719 8.22656 0.46875 7.92188 0 7.53125ZM9.75 7.78906C10.4375 7.66406 10.9844 7.48437 11.3906 7.25C11.7969 7.01562 12 6.76562 12 6.5L12 5.49219C11.4844 5.86719 10.7344 6.14062 9.75 6.3125V7.78906ZM4.5 4.25C3.6875 4.25 2.9375 4.33594 2.25 4.50781C1.5625 4.67969 1.01563 4.90625 0.609375 5.1875C0.203125 5.46875 0 5.78125 0 6.125C0 6.46875 0.203125 6.78125 0.609375 7.0625C1.01563 7.34375 1.5625 7.57031 2.25 7.74219C2.9375 7.91406 3.6875 8 4.5 8C5.3125 8 6.0625 7.91406 6.75 7.74219C7.4375 7.57031 7.98438 7.34375 8.39063 7.0625C8.79688 6.78125 9 6.46875 9 6.125C9 5.78125 8.79688 5.46875 8.39062 5.1875C7.98438 4.90625 7.4375 4.67969 6.75 4.50781C6.0625 4.33594 5.3125 4.25 4.5 4.25ZM9.63281 5.5625C10.3516 5.4375 10.9219 5.25781 11.3438 5.02344C11.7812 4.78906 12 4.53125 12 4.25V3.24219C11.5938 3.52344 11.0469 3.75 10.3594 3.92187C9.73438 4.09375 9.02344 4.19531 8.22656 4.22656C8.97656 4.58594 9.44531 5.03125 9.63281 5.5625Z" fill="#3F3F3F"/>
</svg>
