<svg width="13" height="12" viewBox="0 0 13 12" fill="none" xmlns="http://www.w3.org/2000/svg">
<path d="M11.9141 11.5547L12.4766 9.11719C12.5078 8.99219 12.4922 8.86719 12.4297 8.74219C12.3672 8.61719 12.2812 8.53125 12.1719 8.48437L9.54687 7.35937C9.42187 7.3125 9.29687 7.30469 9.17187 7.33594C9.0625 7.36719 8.96875 7.42969 8.89062 7.52344L7.71875 8.92969C6.8125 8.50781 6 7.9375 5.28125 7.21875C4.5625 6.51562 3.99219 5.70312 3.57031 4.78125L4.97656 3.63281C5.08594 3.55469 5.14844 3.45312 5.16406 3.32812C5.19531 3.20312 5.1875 3.08594 5.14062 2.97656L4.01562 0.351562C3.96875 0.226562 3.88281 0.132812 3.75781 0.0703121C3.63281 0.00781209 3.50781 -0.00781291 3.38281 0.0234371L0.945312 0.585937C0.804687 0.601562 0.695312 0.664062 0.617187 0.773437C0.539062 0.882812 0.5 0.999999 0.5 1.125C0.5 3.09375 0.992187 4.92187 1.97656 6.60937C2.94531 8.25 4.25 9.55469 5.89062 10.5234C7.57812 11.5078 9.40625 12 11.375 12C11.5 12 11.6172 11.9609 11.7266 11.8828C11.8359 11.8047 11.8984 11.6953 11.9141 11.5547Z" fill="#3F3F3F"/>
</svg>
